%TF.GenerationSoftware,KiCad,Pcbnew,(6.0.1)*%
%TF.CreationDate,2022-02-12T16:29:40-05:00*%
%TF.ProjectId,PCB,5043422e-6b69-4636-9164-5f7063625858,rev?*%
%TF.SameCoordinates,Original*%
%TF.FileFunction,Soldermask,Top*%
%TF.FilePolarity,Negative*%
%FSLAX46Y46*%
G04 Gerber Fmt 4.6, Leading zero omitted, Abs format (unit mm)*
G04 Created by KiCad (PCBNEW (6.0.1)) date 2022-02-12 16:29:40*
%MOMM*%
%LPD*%
G01*
G04 APERTURE LIST*
%ADD10C,1.750000*%
%ADD11C,3.987800*%
G04 APERTURE END LIST*
D10*
%TO.C,K65*%
X351463750Y-262580751D03*
D11*
X356543750Y-262580751D03*
D10*
X361623750Y-262580751D03*
%TD*%
%TO.C,K11*%
X308601250Y-205430751D03*
D11*
X313681250Y-205430751D03*
D10*
X318761250Y-205430751D03*
%TD*%
%TO.C,K66*%
X380673750Y-262580751D03*
D11*
X375593750Y-262580751D03*
D10*
X370513750Y-262580751D03*
%TD*%
D11*
%TO.C,K22*%
X204143750Y-224480751D03*
D10*
X199063750Y-224480751D03*
X209223750Y-224480751D03*
%TD*%
%TO.C,K37*%
X108426250Y-243530751D03*
D11*
X113506250Y-243530751D03*
D10*
X118586250Y-243530751D03*
%TD*%
%TO.C,K83*%
X470376250Y-286393251D03*
X480536250Y-286393251D03*
D11*
X475456250Y-286393251D03*
%TD*%
D10*
%TO.C,K3*%
X146526250Y-205430751D03*
D11*
X151606250Y-205430751D03*
D10*
X156686250Y-205430751D03*
%TD*%
%TO.C,K43*%
X256848750Y-243530751D03*
X246688750Y-243530751D03*
D11*
X251768750Y-243530751D03*
%TD*%
D10*
%TO.C,K13*%
X346701250Y-205430751D03*
D11*
X351781250Y-205430751D03*
D10*
X356861250Y-205430751D03*
%TD*%
%TO.C,K46*%
X303838750Y-243530751D03*
X313998750Y-243530751D03*
D11*
X308918750Y-243530751D03*
%TD*%
%TO.C,K76*%
X225575000Y-281630751D03*
D10*
X230655000Y-281630751D03*
X220495000Y-281630751D03*
%TD*%
D11*
%TO.C,K12*%
X332731250Y-205430751D03*
D10*
X337811250Y-205430751D03*
X327651250Y-205430751D03*
%TD*%
%TO.C,K30*%
X356226250Y-224480751D03*
D11*
X361306250Y-224480751D03*
D10*
X366386250Y-224480751D03*
%TD*%
D11*
%TO.C,K15*%
X389881250Y-205430751D03*
D10*
X394961250Y-205430751D03*
X384801250Y-205430751D03*
%TD*%
D11*
%TO.C,K35*%
X461318750Y-224480751D03*
D10*
X456238750Y-224480751D03*
X466398750Y-224480751D03*
%TD*%
%TO.C,K48*%
X341938750Y-243530751D03*
X352098750Y-243530751D03*
D11*
X347018750Y-243530751D03*
%TD*%
%TO.C,K67*%
X394643750Y-262580751D03*
D10*
X399723750Y-262580751D03*
X389563750Y-262580751D03*
%TD*%
%TO.C,K69*%
X447198750Y-262731250D03*
D11*
X442118750Y-262731250D03*
D10*
X437038750Y-262731250D03*
%TD*%
D11*
%TO.C,K2*%
X132556250Y-205430751D03*
D10*
X127476250Y-205430751D03*
X137636250Y-205430751D03*
%TD*%
%TO.C,K63*%
X313363750Y-262580751D03*
D11*
X318443750Y-262580751D03*
D10*
X323523750Y-262580751D03*
%TD*%
D11*
%TO.C,K17*%
X427981250Y-205430751D03*
D10*
X422901250Y-205430751D03*
X433061250Y-205430751D03*
%TD*%
D11*
%TO.C,K36*%
X499268750Y-224631250D03*
D10*
X504348750Y-224631250D03*
X494188750Y-224631250D03*
%TD*%
D11*
%TO.C,K49*%
X366068750Y-243530751D03*
D10*
X360988750Y-243530751D03*
X371148750Y-243530751D03*
%TD*%
D11*
%TO.C,K40*%
X170656250Y-234005751D03*
D10*
X175736250Y-234005751D03*
X165576250Y-234005751D03*
%TD*%
%TO.C,K73*%
X156686250Y-281630751D03*
D11*
X151606250Y-281630751D03*
D10*
X146526250Y-281630751D03*
%TD*%
%TO.C,K51*%
X409248750Y-243530751D03*
D11*
X404168750Y-243530751D03*
D10*
X399088750Y-243530751D03*
%TD*%
%TO.C,K44*%
X275898750Y-243530751D03*
D11*
X270818750Y-243530751D03*
D10*
X265738750Y-243530751D03*
%TD*%
%TO.C,K47*%
X322888750Y-243530751D03*
X333048750Y-243530751D03*
D11*
X327968750Y-243530751D03*
%TD*%
%TO.C,K29*%
X342256250Y-224480751D03*
D10*
X347336250Y-224480751D03*
X337176250Y-224480751D03*
%TD*%
%TO.C,K59*%
X237163750Y-262580751D03*
X247323750Y-262580751D03*
D11*
X242243750Y-262580751D03*
%TD*%
D10*
%TO.C,K57*%
X156686250Y-262580751D03*
X146526250Y-262580751D03*
D11*
X151606250Y-262580751D03*
%TD*%
D10*
%TO.C,K55*%
X118586250Y-262580751D03*
D11*
X113506250Y-262580751D03*
D10*
X108426250Y-262580751D03*
%TD*%
%TO.C,K31*%
X385436250Y-224480751D03*
D11*
X380356250Y-224480751D03*
D10*
X375276250Y-224480751D03*
%TD*%
%TO.C,K82*%
X461486250Y-286543750D03*
X451326250Y-286543750D03*
D11*
X456406250Y-286543750D03*
%TD*%
D10*
%TO.C,K81*%
X422901250Y-281630751D03*
X433061250Y-281630751D03*
D11*
X427981250Y-281630751D03*
%TD*%
D10*
%TO.C,K20*%
X137636250Y-224631250D03*
X127476250Y-224631250D03*
D11*
X132556250Y-224631250D03*
%TD*%
%TO.C,K6*%
X218431250Y-205430751D03*
D10*
X213351250Y-205430751D03*
X223511250Y-205430751D03*
%TD*%
%TO.C,K32*%
X394326250Y-224480751D03*
D11*
X399406250Y-224480751D03*
D10*
X404486250Y-224480751D03*
%TD*%
D11*
%TO.C,K54*%
X499268750Y-243681250D03*
D10*
X494188750Y-243681250D03*
X504348750Y-243681250D03*
%TD*%
D11*
%TO.C,K26*%
X285106250Y-224480751D03*
D10*
X280026250Y-224480751D03*
X290186250Y-224480751D03*
%TD*%
%TO.C,K80*%
X414011250Y-281630751D03*
X403851250Y-281630751D03*
D11*
X408931250Y-281630751D03*
%TD*%
%TO.C,K16*%
X408931250Y-205430751D03*
D10*
X414011250Y-205430751D03*
X403851250Y-205430751D03*
%TD*%
%TO.C,K41*%
X211605000Y-243530751D03*
X201445000Y-243530751D03*
D11*
X206525000Y-243530751D03*
%TD*%
D10*
%TO.C,K4*%
X175736250Y-205430751D03*
X165576250Y-205430751D03*
D11*
X170656250Y-205430751D03*
%TD*%
%TO.C,K52*%
X423218750Y-243530751D03*
D10*
X418138750Y-243530751D03*
X428298750Y-243530751D03*
%TD*%
%TO.C,K77*%
X244307500Y-281630751D03*
X254467500Y-281630751D03*
D11*
X249387500Y-281630751D03*
%TD*%
D10*
%TO.C,K75*%
X206842500Y-281630751D03*
D11*
X201762500Y-281630751D03*
D10*
X196682500Y-281630751D03*
%TD*%
%TO.C,K28*%
X328286250Y-224480751D03*
D11*
X323206250Y-224480751D03*
D10*
X318126250Y-224480751D03*
%TD*%
%TO.C,K50*%
X380038750Y-243530751D03*
X390198750Y-243530751D03*
D11*
X385118750Y-243530751D03*
%TD*%
D10*
%TO.C,K5*%
X194301250Y-205430751D03*
D11*
X199381250Y-205430751D03*
D10*
X204461250Y-205430751D03*
%TD*%
%TO.C,K33*%
X423536250Y-224480751D03*
X413376250Y-224480751D03*
D11*
X418456250Y-224480751D03*
%TD*%
D10*
%TO.C,K62*%
X294313750Y-262580751D03*
X304473750Y-262580751D03*
D11*
X299393750Y-262580751D03*
%TD*%
D10*
%TO.C,K74*%
X175736250Y-272105751D03*
X165576250Y-272105751D03*
D11*
X170656250Y-272105751D03*
%TD*%
D10*
%TO.C,K84*%
X489426250Y-286543750D03*
D11*
X494506250Y-286543750D03*
D10*
X499586250Y-286543750D03*
%TD*%
%TO.C,K34*%
X432426250Y-224480751D03*
D11*
X437506250Y-224480751D03*
D10*
X442586250Y-224480751D03*
%TD*%
%TO.C,K61*%
X275263750Y-262580751D03*
D11*
X280343750Y-262580751D03*
D10*
X285423750Y-262580751D03*
%TD*%
%TO.C,K14*%
X365751250Y-205430751D03*
D11*
X370831250Y-205430751D03*
D10*
X375911250Y-205430751D03*
%TD*%
D11*
%TO.C,K10*%
X294631250Y-205430751D03*
D10*
X289551250Y-205430751D03*
X299711250Y-205430751D03*
%TD*%
%TO.C,K1*%
X118586250Y-205430751D03*
X108426250Y-205430751D03*
D11*
X113506250Y-205430751D03*
%TD*%
D10*
%TO.C,K79*%
X384801250Y-281630751D03*
D11*
X389881250Y-281630751D03*
D10*
X394961250Y-281630751D03*
%TD*%
D11*
%TO.C,K23*%
X227956250Y-224480751D03*
D10*
X222876250Y-224480751D03*
X233036250Y-224480751D03*
%TD*%
%TO.C,K8*%
X251451250Y-205430751D03*
X261611250Y-205430751D03*
D11*
X256531250Y-205430751D03*
%TD*%
D10*
%TO.C,K71*%
X494188750Y-262731250D03*
X504348750Y-262731250D03*
D11*
X499268750Y-262731250D03*
%TD*%
D10*
%TO.C,K70*%
X480536250Y-267493750D03*
D11*
X475456250Y-267493750D03*
D10*
X470376250Y-267493750D03*
%TD*%
%TO.C,K18*%
X451476250Y-205430751D03*
D11*
X456556250Y-205430751D03*
D10*
X461636250Y-205430751D03*
%TD*%
%TO.C,K78*%
X325746250Y-281789501D03*
X315586250Y-281789501D03*
D11*
X320666250Y-281789501D03*
%TD*%
%TO.C,K25*%
X266056250Y-224480751D03*
D10*
X271136250Y-224480751D03*
X260976250Y-224480751D03*
%TD*%
D11*
%TO.C,K53*%
X454175000Y-243530751D03*
D10*
X449095000Y-243530751D03*
X459255000Y-243530751D03*
%TD*%
%TO.C,K72*%
X117951250Y-281630751D03*
X128111250Y-281630751D03*
D11*
X123031250Y-281630751D03*
%TD*%
D10*
%TO.C,K7*%
X242561250Y-205430751D03*
D11*
X237481250Y-205430751D03*
D10*
X232401250Y-205430751D03*
%TD*%
D11*
%TO.C,K24*%
X247006250Y-224480751D03*
D10*
X252086250Y-224480751D03*
X241926250Y-224480751D03*
%TD*%
%TO.C,K21*%
X146526250Y-224480751D03*
X156686250Y-224480751D03*
D11*
X151606250Y-224480751D03*
%TD*%
D10*
%TO.C,K38*%
X127476250Y-243530751D03*
D11*
X132556250Y-243530751D03*
D10*
X137636250Y-243530751D03*
%TD*%
%TO.C,K58*%
X216367500Y-262580751D03*
D11*
X211287500Y-262580751D03*
D10*
X206207500Y-262580751D03*
%TD*%
%TO.C,K68*%
X408613750Y-262580751D03*
D11*
X413693750Y-262580751D03*
D10*
X418773750Y-262580751D03*
%TD*%
%TO.C,K42*%
X237798750Y-243530751D03*
D11*
X232718750Y-243530751D03*
D10*
X227638750Y-243530751D03*
%TD*%
%TO.C,K45*%
X284788750Y-243530751D03*
D11*
X289868750Y-243530751D03*
D10*
X294948750Y-243530751D03*
%TD*%
D11*
%TO.C,K9*%
X275581250Y-205430751D03*
D10*
X280661250Y-205430751D03*
X270501250Y-205430751D03*
%TD*%
D11*
%TO.C,K39*%
X151606250Y-243530751D03*
D10*
X146526250Y-243530751D03*
X156686250Y-243530751D03*
%TD*%
%TO.C,K56*%
X137636250Y-262580751D03*
D11*
X132556250Y-262580751D03*
D10*
X127476250Y-262580751D03*
%TD*%
D11*
%TO.C,K27*%
X304156250Y-224480751D03*
D10*
X309236250Y-224480751D03*
X299076250Y-224480751D03*
%TD*%
%TO.C,K60*%
X266373750Y-262580751D03*
X256213750Y-262580751D03*
D11*
X261293750Y-262580751D03*
%TD*%
D10*
%TO.C,K19*%
X108426250Y-224480751D03*
X118586250Y-224480751D03*
D11*
X113506250Y-224480751D03*
%TD*%
%TO.C,K64*%
X337493750Y-262580751D03*
D10*
X332413750Y-262580751D03*
X342573750Y-262580751D03*
%TD*%
M02*
