M48
; DRILL file {KiCad (6.0.1)} date Sat Feb 12 16:29:36 2022
; FORMAT={-:-/ absolute / metric / decimal}
; #@! TF.CreationDate,2022-02-12T16:29:36-05:00
; #@! TF.GenerationSoftware,Kicad,Pcbnew,(6.0.1)
; #@! TF.FileFunction,NonPlated,1,2,NPTH
FMAT,2
METRIC
; #@! TA.AperFunction,NonPlated,NPTH,ComponentDrill
T1C1.750
; #@! TA.AperFunction,NonPlated,NPTH,ComponentDrill
T2C3.988
%
G90
G05
T1
X108.426Y-205.431
X108.426Y-224.481
X108.426Y-243.531
X108.426Y-262.581
X117.951Y-281.631
X118.586Y-205.431
X118.586Y-224.481
X118.586Y-243.531
X118.586Y-262.581
X127.476Y-205.431
X127.476Y-224.631
X127.476Y-243.531
X127.476Y-262.581
X128.111Y-281.631
X137.636Y-205.431
X137.636Y-224.631
X137.636Y-243.531
X137.636Y-262.581
X146.526Y-205.431
X146.526Y-224.481
X146.526Y-243.531
X146.526Y-262.581
X146.526Y-281.631
X156.686Y-205.431
X156.686Y-224.481
X156.686Y-243.531
X156.686Y-262.581
X156.686Y-281.631
X165.576Y-205.431
X165.576Y-234.006
X165.576Y-272.106
X175.736Y-205.431
X175.736Y-234.006
X175.736Y-272.106
X194.301Y-205.431
X196.683Y-281.631
X199.064Y-224.481
X201.445Y-243.531
X204.461Y-205.431
X206.207Y-262.581
X206.843Y-281.631
X209.224Y-224.481
X211.605Y-243.531
X213.351Y-205.431
X216.367Y-262.581
X220.495Y-281.631
X222.876Y-224.481
X223.511Y-205.431
X227.639Y-243.531
X230.655Y-281.631
X232.401Y-205.431
X233.036Y-224.481
X237.164Y-262.581
X237.799Y-243.531
X241.926Y-224.481
X242.561Y-205.431
X244.307Y-281.631
X246.689Y-243.531
X247.324Y-262.581
X251.451Y-205.431
X252.086Y-224.481
X254.468Y-281.631
X256.214Y-262.581
X256.849Y-243.531
X260.976Y-224.481
X261.611Y-205.431
X265.739Y-243.531
X266.374Y-262.581
X270.501Y-205.431
X271.136Y-224.481
X275.264Y-262.581
X275.899Y-243.531
X280.026Y-224.481
X280.661Y-205.431
X284.789Y-243.531
X285.424Y-262.581
X289.551Y-205.431
X290.186Y-224.481
X294.314Y-262.581
X294.949Y-243.531
X299.076Y-224.481
X299.711Y-205.431
X303.839Y-243.531
X304.474Y-262.581
X308.601Y-205.431
X309.236Y-224.481
X313.364Y-262.581
X313.999Y-243.531
X315.586Y-281.79
X318.126Y-224.481
X318.761Y-205.431
X322.889Y-243.531
X323.524Y-262.581
X325.746Y-281.79
X327.651Y-205.431
X328.286Y-224.481
X332.414Y-262.581
X333.049Y-243.531
X337.176Y-224.481
X337.811Y-205.431
X341.939Y-243.531
X342.574Y-262.581
X346.701Y-205.431
X347.336Y-224.481
X351.464Y-262.581
X352.099Y-243.531
X356.226Y-224.481
X356.861Y-205.431
X360.989Y-243.531
X361.624Y-262.581
X365.751Y-205.431
X366.386Y-224.481
X370.514Y-262.581
X371.149Y-243.531
X375.276Y-224.481
X375.911Y-205.431
X380.039Y-243.531
X380.674Y-262.581
X384.801Y-205.431
X384.801Y-281.631
X385.436Y-224.481
X389.564Y-262.581
X390.199Y-243.531
X394.326Y-224.481
X394.961Y-205.431
X394.961Y-281.631
X399.089Y-243.531
X399.724Y-262.581
X403.851Y-205.431
X403.851Y-281.631
X404.486Y-224.481
X408.614Y-262.581
X409.249Y-243.531
X413.376Y-224.481
X414.011Y-205.431
X414.011Y-281.631
X418.139Y-243.531
X418.774Y-262.581
X422.901Y-205.431
X422.901Y-281.631
X423.536Y-224.481
X428.299Y-243.531
X432.426Y-224.481
X433.061Y-205.431
X433.061Y-281.631
X437.039Y-262.731
X442.586Y-224.481
X447.199Y-262.731
X449.095Y-243.531
X451.326Y-286.544
X451.476Y-205.431
X456.239Y-224.481
X459.255Y-243.531
X461.486Y-286.544
X461.636Y-205.431
X466.399Y-224.481
X470.376Y-267.494
X470.376Y-286.393
X480.536Y-267.494
X480.536Y-286.393
X489.426Y-286.544
X494.189Y-224.631
X494.189Y-243.681
X494.189Y-262.731
X499.586Y-286.544
X504.349Y-224.631
X504.349Y-243.681
X504.349Y-262.731
T2
X113.506Y-205.431
X113.506Y-224.481
X113.506Y-243.531
X113.506Y-262.581
X123.031Y-281.631
X132.556Y-205.431
X132.556Y-224.631
X132.556Y-243.531
X132.556Y-262.581
X151.606Y-205.431
X151.606Y-224.481
X151.606Y-243.531
X151.606Y-262.581
X151.606Y-281.631
X170.656Y-205.431
X170.656Y-234.006
X170.656Y-272.106
X199.381Y-205.431
X201.762Y-281.631
X204.144Y-224.481
X206.525Y-243.531
X211.287Y-262.581
X218.431Y-205.431
X225.575Y-281.631
X227.956Y-224.481
X232.719Y-243.531
X237.481Y-205.431
X242.244Y-262.581
X247.006Y-224.481
X249.387Y-281.631
X251.769Y-243.531
X256.531Y-205.431
X261.294Y-262.581
X266.056Y-224.481
X270.819Y-243.531
X275.581Y-205.431
X280.344Y-262.581
X285.106Y-224.481
X289.869Y-243.531
X294.631Y-205.431
X299.394Y-262.581
X304.156Y-224.481
X308.919Y-243.531
X313.681Y-205.431
X318.444Y-262.581
X320.666Y-281.79
X323.206Y-224.481
X327.969Y-243.531
X332.731Y-205.431
X337.494Y-262.581
X342.256Y-224.481
X347.019Y-243.531
X351.781Y-205.431
X356.544Y-262.581
X361.306Y-224.481
X366.069Y-243.531
X370.831Y-205.431
X375.594Y-262.581
X380.356Y-224.481
X385.119Y-243.531
X389.881Y-205.431
X389.881Y-281.631
X394.644Y-262.581
X399.406Y-224.481
X404.169Y-243.531
X408.931Y-205.431
X408.931Y-281.631
X413.694Y-262.581
X418.456Y-224.481
X423.219Y-243.531
X427.981Y-205.431
X427.981Y-281.631
X437.506Y-224.481
X442.119Y-262.731
X454.175Y-243.531
X456.406Y-286.544
X456.556Y-205.431
X461.319Y-224.481
X475.456Y-267.494
X475.456Y-286.393
X494.506Y-286.544
X499.269Y-224.631
X499.269Y-243.681
X499.269Y-262.731
T0
M30
