%TF.GenerationSoftware,KiCad,Pcbnew,(6.0.1)*%
%TF.CreationDate,2022-02-12T16:29:40-05:00*%
%TF.ProjectId,PCB,5043422e-6b69-4636-9164-5f7063625858,rev?*%
%TF.SameCoordinates,Original*%
%TF.FileFunction,Legend,Top*%
%TF.FilePolarity,Positive*%
%FSLAX46Y46*%
G04 Gerber Fmt 4.6, Leading zero omitted, Abs format (unit mm)*
G04 Created by KiCad (PCBNEW (6.0.1)) date 2022-02-12 16:29:40*
%MOMM*%
%LPD*%
G01*
G04 APERTURE LIST*
%ADD10C,0.264582*%
%ADD11C,0.003102*%
%ADD12C,0.012285*%
%ADD13C,0.012260*%
%ADD14C,0.264999*%
%ADD15C,0.002893*%
%ADD16C,0.018283*%
%ADD17C,0.175372*%
%ADD18C,0.300000*%
G04 APERTURE END LIST*
D10*
X499591077Y-208704731D02*
X499591077Y-208704731D01*
X496677628Y-204798632D02*
X496661383Y-204780867D01*
X499503340Y-201067140D02*
X499125890Y-201155743D01*
X496765634Y-202009834D02*
X496633921Y-202100374D01*
X487964690Y-204568571D02*
X488036793Y-204922421D01*
X499313619Y-201618466D02*
X499313619Y-201618466D01*
X499858384Y-204265737D02*
X499973119Y-204214329D01*
X490703183Y-209116684D02*
X490735638Y-209142736D01*
X496989674Y-205210802D02*
X496982642Y-205200038D01*
X500185398Y-200981943D02*
X500126704Y-200979213D01*
X496768969Y-206996606D02*
X496818411Y-206983382D01*
X496097407Y-204817175D02*
X496071876Y-204846674D01*
X495516906Y-204494952D02*
X495518165Y-204483413D01*
X501301433Y-206109422D02*
X501327847Y-206067282D01*
X499373031Y-199169583D02*
X499256712Y-199022625D01*
X487861407Y-203855369D02*
X487906096Y-204211447D01*
X493033929Y-197256579D02*
X492747753Y-197325368D01*
X491893590Y-203331593D02*
X491787430Y-203377406D01*
X496230231Y-197224434D02*
X495859471Y-197135281D01*
X499933964Y-200218127D02*
X499886752Y-200102013D01*
X496367609Y-207015626D02*
X496392883Y-207020789D01*
X500121041Y-201653160D02*
X500107731Y-201631957D01*
X500736978Y-202844747D02*
X500737271Y-202683578D01*
X500739263Y-202529072D02*
X500739263Y-202529072D01*
X500405560Y-201091070D02*
X500393486Y-201072588D01*
X495148423Y-197031299D02*
X494816659Y-197017793D01*
X494685251Y-202635920D02*
X494487201Y-202638549D01*
X494506421Y-197030827D02*
X494506421Y-197030827D01*
X500726255Y-203419026D02*
X500726255Y-203419026D01*
X505127172Y-205723881D02*
X505244100Y-208179409D01*
X496400627Y-204623342D02*
X496383511Y-204626311D01*
X495499258Y-204566090D02*
X495505732Y-204547037D01*
X493391356Y-206401170D02*
X493474246Y-206392320D01*
X495171448Y-205354663D02*
X495202283Y-205290549D01*
X494487201Y-202638549D02*
X494386696Y-202641924D01*
X495152639Y-202645374D02*
X495152639Y-202645374D01*
X491775202Y-205963887D02*
X491837635Y-206008733D01*
X496661383Y-204780867D02*
X496643061Y-204761736D01*
X496214000Y-206942594D02*
X496232854Y-206957360D01*
X500365949Y-201992050D02*
X500303343Y-201894917D01*
X500716998Y-203068968D02*
X500704155Y-202954361D01*
X496435043Y-203107348D02*
X496482058Y-203221357D01*
X495519064Y-204471395D02*
X495519590Y-204458852D01*
X496765064Y-204912102D02*
X496729785Y-204863486D01*
X497305797Y-205985964D02*
X497289286Y-205921865D01*
X500733265Y-203584205D02*
X500726725Y-203498884D01*
X495529558Y-202551376D02*
X495262935Y-202619012D01*
X493919413Y-206296766D02*
X494009063Y-206268275D01*
X497073652Y-206826841D02*
X497089993Y-206808681D01*
X495900117Y-205163417D02*
X495885199Y-205213429D01*
X500621871Y-201756065D02*
X500592952Y-201637504D01*
X493140047Y-206409959D02*
X493224117Y-206409953D01*
X500683445Y-203565103D02*
X500695418Y-203527752D01*
X500292442Y-201254024D02*
X500283641Y-201199487D01*
X499256712Y-199022625D02*
X499131918Y-198880152D01*
X501357227Y-205959039D02*
X501361234Y-205893945D01*
X498954268Y-204569791D02*
X499049673Y-204548383D01*
X500737158Y-206340153D02*
X500825992Y-206288516D01*
X493224117Y-206409953D02*
X493307933Y-206407035D01*
X500705797Y-203489256D02*
X500714544Y-203449586D01*
X495311922Y-205025794D02*
X495411321Y-204759174D01*
X497218510Y-205617866D02*
X497208086Y-205581082D01*
X492638122Y-206350869D02*
X492720781Y-206367576D01*
X496162023Y-202356167D02*
X496162023Y-202356167D01*
X497284421Y-206462090D02*
X497299225Y-206416974D01*
X500005596Y-200982146D02*
X499942434Y-200987553D01*
X497715355Y-197813363D02*
X497352288Y-197632607D01*
X497299225Y-206416974D02*
X497311773Y-206372776D01*
X499049673Y-204548383D02*
X499143318Y-204524570D01*
X500140241Y-202245869D02*
X500140241Y-202245869D01*
X492921994Y-208455451D02*
X492973682Y-208444936D01*
X500450426Y-201176809D02*
X500428706Y-201131938D01*
X499410751Y-204442561D02*
X499574846Y-204382942D01*
X500337386Y-204008319D02*
X500399329Y-203960085D01*
X500052266Y-204177015D02*
X500128560Y-204137997D01*
X493022104Y-208439895D02*
X493045581Y-208439427D01*
X500660079Y-206398774D02*
X500737158Y-206340153D01*
X497058958Y-204167567D02*
X497119161Y-204230763D01*
X497677432Y-204583201D02*
X497758580Y-204604557D01*
X500251908Y-201069741D02*
X500228212Y-200993673D01*
X487906096Y-204211447D02*
X487964690Y-204568571D01*
X498267982Y-204659785D02*
X498316211Y-204656728D01*
X492556187Y-206331503D02*
X492638122Y-206350869D01*
X496347673Y-202883192D02*
X496435043Y-203107348D01*
X496498920Y-207030441D02*
X496553718Y-207029429D01*
X497041149Y-205276791D02*
X497027588Y-205261066D01*
X496729955Y-203723957D02*
X496781548Y-203804377D01*
X497286771Y-201698625D02*
X497197367Y-201741521D01*
X496910619Y-205097538D02*
X496910619Y-205097538D01*
X505127172Y-205723881D02*
X505127172Y-205723881D01*
X500096448Y-201578277D02*
X500102209Y-201570496D01*
X488886777Y-206944859D02*
X488886777Y-206944859D01*
X492032405Y-206130071D02*
X492099835Y-206165571D01*
X490735638Y-209142736D02*
X490771524Y-209163685D01*
X492099835Y-206165571D02*
X492168527Y-206198325D01*
X500636136Y-202618380D02*
X500603579Y-202509383D01*
X493556463Y-206380451D02*
X493647418Y-206364063D01*
X488731112Y-206734872D02*
X488886777Y-206944859D01*
X500505868Y-207683824D02*
X500454348Y-207507098D01*
X492168527Y-206198325D02*
X492238485Y-206228169D01*
X497450330Y-204486497D02*
X497523426Y-204523934D01*
X500396205Y-207135730D02*
X500394530Y-207042864D01*
X493753679Y-208805605D02*
X493859951Y-208910272D01*
X500066895Y-200979323D02*
X500005596Y-200982146D01*
X494208627Y-197060934D02*
X493911804Y-197098348D01*
X490794835Y-204003636D02*
X490794835Y-204003636D01*
X500566053Y-202402077D02*
X500523544Y-202296575D01*
X490605565Y-204192356D02*
X490662972Y-204344321D01*
X497976980Y-201463055D02*
X497740823Y-201534189D01*
X497208086Y-205581082D02*
X497197025Y-205545263D01*
X493055863Y-206407089D02*
X493140047Y-206409959D01*
X497114870Y-201785151D02*
X497038128Y-201829387D01*
X491580781Y-203479837D02*
X491481728Y-203534559D01*
X496123287Y-204789846D02*
X496097407Y-204817175D01*
X496888266Y-203958145D02*
X496943629Y-204031020D01*
X497056997Y-205294322D02*
X497041149Y-205276791D01*
X500813221Y-208291491D02*
X500795623Y-208274441D01*
X493214497Y-208474517D02*
X493270108Y-208496882D01*
X495231505Y-205225368D02*
X495259356Y-205159356D01*
X498165353Y-204660961D02*
X498217925Y-204661291D01*
X496162023Y-202356167D02*
X496213894Y-202511058D01*
X496717101Y-207008257D02*
X496768969Y-206996606D01*
X489616006Y-199056179D02*
X489426144Y-199245568D01*
X496416067Y-202233704D02*
X496333425Y-202276976D01*
X496825025Y-204990764D02*
X496791899Y-204947798D01*
X496530610Y-203333761D02*
X496580187Y-203442393D01*
X500580156Y-203766836D02*
X500600930Y-203735727D01*
X497326473Y-206073295D02*
X497320376Y-206044826D01*
X491319854Y-205549512D02*
X491372529Y-205605186D01*
X491426407Y-205660080D02*
X491481492Y-205714030D01*
X494228796Y-209381164D02*
X494306885Y-209500962D01*
X500603579Y-202509383D02*
X500566053Y-202402077D01*
X493115425Y-208446243D02*
X493163458Y-208457638D01*
X501169042Y-206181866D02*
X501222551Y-206167218D01*
X495515303Y-204506058D02*
X495516906Y-204494952D01*
X495518165Y-204483413D02*
X495519064Y-204471395D01*
X497000486Y-204100907D02*
X497058958Y-204167567D01*
X501238463Y-205280539D02*
X501170531Y-205069705D01*
X496022525Y-204912272D02*
X495999037Y-204948413D01*
X495027103Y-205595681D02*
X495066827Y-205538218D01*
X497337517Y-206222046D02*
X497338525Y-206190106D01*
X499663653Y-201032481D02*
X499503340Y-201067140D01*
X494889974Y-205753575D02*
X494889974Y-205753575D01*
X497320376Y-206044826D02*
X497305797Y-205985964D01*
X498759356Y-204603845D02*
X498857398Y-204588407D01*
X496492928Y-202189761D02*
X496416067Y-202233704D01*
X495015038Y-202640468D02*
X494866385Y-202637195D01*
X500295157Y-201381431D02*
X500297818Y-201344566D01*
X491452310Y-209086130D02*
X491575146Y-209036644D01*
X497267402Y-206507728D02*
X497284421Y-206462090D01*
X492802554Y-208492894D02*
X492865474Y-208471438D01*
X496718236Y-204846851D02*
X496711198Y-204837986D01*
X496946692Y-206931375D02*
X496966138Y-206919207D01*
X497352288Y-197632607D02*
X496980902Y-197473759D01*
X499724842Y-204322971D02*
X499858384Y-204265737D01*
X493738373Y-206344655D02*
X493829111Y-206322224D01*
X496344513Y-204638002D02*
X496322965Y-204646769D01*
X495859617Y-205788507D02*
X495868738Y-205863389D01*
D11*
X496678983Y-206961331D02*
X496655308Y-206965591D01*
X496655308Y-206965591D02*
X496629616Y-206969276D01*
X496629616Y-206969276D02*
X496602629Y-206972354D01*
X496602629Y-206972354D02*
X496575073Y-206974794D01*
X496575073Y-206974794D02*
X496547670Y-206976562D01*
X496547670Y-206976562D02*
X496521145Y-206977629D01*
X496521145Y-206977629D02*
X496496221Y-206977961D01*
X496496221Y-206977961D02*
X496473623Y-206977528D01*
X496473623Y-206977528D02*
X496455493Y-206976521D01*
X496455493Y-206976521D02*
X496437907Y-206975005D01*
X496437907Y-206975005D02*
X496420887Y-206972986D01*
X496420887Y-206972986D02*
X496404453Y-206970469D01*
X496404453Y-206970469D02*
X496388628Y-206967462D01*
X496388628Y-206967462D02*
X496373435Y-206963969D01*
X496373435Y-206963969D02*
X496358894Y-206959998D01*
X496358894Y-206959998D02*
X496345029Y-206955554D01*
X496345029Y-206955554D02*
X496331861Y-206950644D01*
X496331861Y-206950644D02*
X496319412Y-206945273D01*
X496319412Y-206945273D02*
X496307703Y-206939448D01*
X496307703Y-206939448D02*
X496296758Y-206933176D01*
X496296758Y-206933176D02*
X496286597Y-206926461D01*
X496286597Y-206926461D02*
X496277244Y-206919311D01*
X496277244Y-206919311D02*
X496268719Y-206911732D01*
X496268719Y-206911732D02*
X496261045Y-206903729D01*
X496261045Y-206903729D02*
X496257424Y-206899560D01*
X496257424Y-206899560D02*
X496254057Y-206895433D01*
X496254057Y-206895433D02*
X496250879Y-206891203D01*
X496250879Y-206891203D02*
X496247826Y-206886727D01*
X496247826Y-206886727D02*
X496244831Y-206881862D01*
X496244831Y-206881862D02*
X496241831Y-206876463D01*
X496241831Y-206876463D02*
X496238761Y-206870387D01*
X496238761Y-206870387D02*
X496235555Y-206863489D01*
X496235555Y-206863489D02*
X496232149Y-206855627D01*
X496232149Y-206855627D02*
X496228478Y-206846657D01*
X496228478Y-206846657D02*
X496224476Y-206836434D01*
X496224476Y-206836434D02*
X496220080Y-206824816D01*
X496220080Y-206824816D02*
X496215224Y-206811658D01*
X496215224Y-206811658D02*
X496209843Y-206796817D01*
X496209843Y-206796817D02*
X496197248Y-206761509D01*
X496197248Y-206761509D02*
X496156891Y-206646589D01*
X496156891Y-206646589D02*
X496141474Y-206601301D01*
X496141474Y-206601301D02*
X496127668Y-206559249D01*
X496127668Y-206559249D02*
X496114301Y-206516775D01*
X496114301Y-206516775D02*
X496100201Y-206470220D01*
X496100201Y-206470220D02*
X496065114Y-206350231D01*
X496065114Y-206350231D02*
X496028880Y-206223562D01*
X496028880Y-206223562D02*
X496016371Y-206177670D01*
X496016371Y-206177670D02*
X496006390Y-206138395D01*
X496006390Y-206138395D02*
X495998031Y-206101979D01*
X495998031Y-206101979D02*
X495990387Y-206064664D01*
X495990387Y-206064664D02*
X495973615Y-205972302D01*
X495973615Y-205972302D02*
X495964926Y-205919471D01*
X495964926Y-205919471D02*
X495956996Y-205865043D01*
X495956996Y-205865043D02*
X495949919Y-205809927D01*
X495949919Y-205809927D02*
X495943790Y-205755036D01*
X495943790Y-205755036D02*
X495938701Y-205701282D01*
X495938701Y-205701282D02*
X495934747Y-205649575D01*
X495934747Y-205649575D02*
X495932020Y-205600827D01*
X495932020Y-205600827D02*
X495930616Y-205555950D01*
X495930616Y-205555950D02*
X495930812Y-205504944D01*
X495930812Y-205504944D02*
X495932894Y-205454839D01*
X495932894Y-205454839D02*
X495936852Y-205405672D01*
X495936852Y-205405672D02*
X495942673Y-205357481D01*
X495942673Y-205357481D02*
X495950349Y-205310302D01*
X495950349Y-205310302D02*
X495959868Y-205264174D01*
X495959868Y-205264174D02*
X495971220Y-205219133D01*
X495971220Y-205219133D02*
X495984395Y-205175216D01*
X495984395Y-205175216D02*
X495999382Y-205132461D01*
X495999382Y-205132461D02*
X496016171Y-205090905D01*
X496016171Y-205090905D02*
X496034751Y-205050586D01*
X496034751Y-205050586D02*
X496055111Y-205011540D01*
X496055111Y-205011540D02*
X496077242Y-204973805D01*
X496077242Y-204973805D02*
X496101132Y-204937419D01*
X496101132Y-204937419D02*
X496126771Y-204902418D01*
X496126771Y-204902418D02*
X496154149Y-204868839D01*
X496154149Y-204868839D02*
X496164950Y-204856587D01*
X496164950Y-204856587D02*
X496176166Y-204844461D01*
X496176166Y-204844461D02*
X496187743Y-204832505D01*
X496187743Y-204832505D02*
X496199625Y-204820764D01*
X496199625Y-204820764D02*
X496211756Y-204809284D01*
X496211756Y-204809284D02*
X496224081Y-204798110D01*
X496224081Y-204798110D02*
X496236544Y-204787287D01*
X496236544Y-204787287D02*
X496249090Y-204776860D01*
X496249090Y-204776860D02*
X496261665Y-204766875D01*
X496261665Y-204766875D02*
X496274211Y-204757376D01*
X496274211Y-204757376D02*
X496286674Y-204748409D01*
X496286674Y-204748409D02*
X496298998Y-204740019D01*
X496298998Y-204740019D02*
X496311128Y-204732251D01*
X496311128Y-204732251D02*
X496323009Y-204725150D01*
X496323009Y-204725150D02*
X496334585Y-204718762D01*
X496334585Y-204718762D02*
X496345800Y-204713131D01*
X496345800Y-204713131D02*
X496376528Y-204698855D01*
X496376528Y-204698855D02*
X496381721Y-204696617D01*
X496381721Y-204696617D02*
X496386177Y-204694877D01*
X496386177Y-204694877D02*
X496390027Y-204693620D01*
X496390027Y-204693620D02*
X496393400Y-204692830D01*
X496393400Y-204692830D02*
X496396426Y-204692490D01*
X496396426Y-204692490D02*
X496399235Y-204692583D01*
X496399235Y-204692583D02*
X496401956Y-204693094D01*
X496401956Y-204693094D02*
X496404720Y-204694005D01*
X496404720Y-204694005D02*
X496407657Y-204695300D01*
X496407657Y-204695300D02*
X496410895Y-204696964D01*
X496410895Y-204696964D02*
X496418798Y-204701328D01*
X496418798Y-204701328D02*
X496432287Y-204709314D01*
X496432287Y-204709314D02*
X496445748Y-204717999D01*
X496445748Y-204717999D02*
X496459219Y-204727424D01*
X496459219Y-204727424D02*
X496472744Y-204737630D01*
X496472744Y-204737630D02*
X496486362Y-204748659D01*
X496486362Y-204748659D02*
X496500117Y-204760553D01*
X496500117Y-204760553D02*
X496514048Y-204773352D01*
X496514048Y-204773352D02*
X496528197Y-204787099D01*
X496528197Y-204787099D02*
X496542605Y-204801834D01*
X496542605Y-204801834D02*
X496557314Y-204817599D01*
X496557314Y-204817599D02*
X496572365Y-204834436D01*
X496572365Y-204834436D02*
X496587799Y-204852385D01*
X496587799Y-204852385D02*
X496603658Y-204871489D01*
X496603658Y-204871489D02*
X496619983Y-204891788D01*
X496619983Y-204891788D02*
X496636815Y-204913324D01*
X496636815Y-204913324D02*
X496654195Y-204936138D01*
X496654195Y-204936138D02*
X496681476Y-204972075D01*
X496681476Y-204972075D02*
X496713441Y-205013745D01*
X496713441Y-205013745D02*
X496746150Y-205055989D01*
X496746150Y-205055989D02*
X496775663Y-205093647D01*
X496775663Y-205093647D02*
X496803945Y-205130129D01*
X496803945Y-205130129D02*
X496833392Y-205169113D01*
X496833392Y-205169113D02*
X496860560Y-205205935D01*
X496860560Y-205205935D02*
X496882001Y-205235928D01*
X496882001Y-205235928D02*
X496896632Y-205256953D01*
X496896632Y-205256953D02*
X496909447Y-205274982D01*
X496909447Y-205274982D02*
X496921186Y-205290958D01*
X496921186Y-205290958D02*
X496932592Y-205305820D01*
X496932592Y-205305820D02*
X496944407Y-205320510D01*
X496944407Y-205320510D02*
X496957373Y-205335969D01*
X496957373Y-205335969D02*
X496972233Y-205353138D01*
X496972233Y-205353138D02*
X496989728Y-205372959D01*
X496989728Y-205372959D02*
X496995561Y-205379488D01*
X496995561Y-205379488D02*
X497001481Y-205386336D01*
X497001481Y-205386336D02*
X497007330Y-205393299D01*
X497007330Y-205393299D02*
X497012953Y-205400171D01*
X497012953Y-205400171D02*
X497018191Y-205406749D01*
X497018191Y-205406749D02*
X497022888Y-205412825D01*
X497022888Y-205412825D02*
X497026885Y-205418197D01*
X497026885Y-205418197D02*
X497030027Y-205422657D01*
X497030027Y-205422657D02*
X497037910Y-205434781D01*
X497037910Y-205434781D02*
X497045810Y-205448466D01*
X497045810Y-205448466D02*
X497053728Y-205463714D01*
X497053728Y-205463714D02*
X497061664Y-205480527D01*
X497061664Y-205480527D02*
X497069618Y-205498907D01*
X497069618Y-205498907D02*
X497077592Y-205518856D01*
X497077592Y-205518856D02*
X497085585Y-205540377D01*
X497085585Y-205540377D02*
X497093599Y-205563470D01*
X497093599Y-205563470D02*
X497101633Y-205588138D01*
X497101633Y-205588138D02*
X497109688Y-205614384D01*
X497109688Y-205614384D02*
X497117766Y-205642209D01*
X497117766Y-205642209D02*
X497125865Y-205671614D01*
X497125865Y-205671614D02*
X497142134Y-205735177D01*
X497142134Y-205735177D02*
X497158498Y-205805088D01*
X497158498Y-205805088D02*
X497181238Y-205904828D01*
X497181238Y-205904828D02*
X497193641Y-205958235D01*
X497193641Y-205958235D02*
X497205098Y-206005146D01*
X497205098Y-206005146D02*
X497223108Y-206082699D01*
X497223108Y-206082699D02*
X497229303Y-206111484D01*
X497229303Y-206111484D02*
X497233973Y-206135217D01*
X497233973Y-206135217D02*
X497237377Y-206155103D01*
X497237377Y-206155103D02*
X497239775Y-206172350D01*
X497239775Y-206172350D02*
X497241428Y-206188162D01*
X497241428Y-206188162D02*
X497242597Y-206203747D01*
X497242597Y-206203747D02*
X497242948Y-206221528D01*
X497242948Y-206221528D02*
X497242509Y-206239974D01*
X497242509Y-206239974D02*
X497241288Y-206259058D01*
X497241288Y-206259058D02*
X497239293Y-206278750D01*
X497239293Y-206278750D02*
X497236533Y-206299022D01*
X497236533Y-206299022D02*
X497233016Y-206319845D01*
X497233016Y-206319845D02*
X497228751Y-206341190D01*
X497228751Y-206341190D02*
X497223746Y-206363029D01*
X497223746Y-206363029D02*
X497218009Y-206385331D01*
X497218009Y-206385331D02*
X497211551Y-206408070D01*
X497211551Y-206408070D02*
X497204377Y-206431215D01*
X497204377Y-206431215D02*
X497196498Y-206454738D01*
X497196498Y-206454738D02*
X497187922Y-206478611D01*
X497187922Y-206478611D02*
X497178657Y-206502804D01*
X497178657Y-206502804D02*
X497168711Y-206527289D01*
X497168711Y-206527289D02*
X497158094Y-206552036D01*
X497158094Y-206552036D02*
X497149080Y-206571320D01*
X497149080Y-206571320D02*
X497137777Y-206593743D01*
X497137777Y-206593743D02*
X497124834Y-206618145D01*
X497124834Y-206618145D02*
X497110907Y-206643365D01*
X497110907Y-206643365D02*
X497096646Y-206668242D01*
X497096646Y-206668242D02*
X497082705Y-206691615D01*
X497082705Y-206691615D02*
X497069737Y-206712324D01*
X497069737Y-206712324D02*
X497058393Y-206729206D01*
X497058393Y-206729206D02*
X497047654Y-206743966D01*
X497047654Y-206743966D02*
X497036576Y-206758407D01*
X497036576Y-206758407D02*
X497025204Y-206772488D01*
X497025204Y-206772488D02*
X497013578Y-206786170D01*
X497013578Y-206786170D02*
X497001743Y-206799411D01*
X497001743Y-206799411D02*
X496989741Y-206812172D01*
X496989741Y-206812172D02*
X496977614Y-206824411D01*
X496977614Y-206824411D02*
X496965407Y-206836088D01*
X496965407Y-206836088D02*
X496953160Y-206847164D01*
X496953160Y-206847164D02*
X496940919Y-206857597D01*
X496940919Y-206857597D02*
X496928724Y-206867347D01*
X496928724Y-206867347D02*
X496916619Y-206876374D01*
X496916619Y-206876374D02*
X496904647Y-206884637D01*
X496904647Y-206884637D02*
X496892850Y-206892095D01*
X496892850Y-206892095D02*
X496881272Y-206898709D01*
X496881272Y-206898709D02*
X496869954Y-206904438D01*
X496869954Y-206904438D02*
X496858181Y-206908917D01*
X496858181Y-206908917D02*
X496837045Y-206915794D01*
X496837045Y-206915794D02*
X496778476Y-206933401D01*
X496778476Y-206933401D02*
X496717815Y-206950576D01*
X496717815Y-206950576D02*
X496694066Y-206956913D01*
X496694066Y-206956913D02*
X496678632Y-206960636D01*
X496678632Y-206960636D02*
X496678983Y-206961331D01*
X496678983Y-206961331D02*
X496678983Y-206961331D01*
G36*
X496399235Y-204692583D02*
G01*
X496401956Y-204693094D01*
X496404720Y-204694005D01*
X496407657Y-204695300D01*
X496410895Y-204696964D01*
X496418798Y-204701328D01*
X496432287Y-204709314D01*
X496445748Y-204717999D01*
X496459219Y-204727424D01*
X496472744Y-204737630D01*
X496486362Y-204748659D01*
X496500117Y-204760553D01*
X496514048Y-204773352D01*
X496528197Y-204787099D01*
X496542605Y-204801834D01*
X496557314Y-204817599D01*
X496572365Y-204834436D01*
X496587799Y-204852385D01*
X496603658Y-204871489D01*
X496619983Y-204891788D01*
X496636815Y-204913324D01*
X496654195Y-204936138D01*
X496681476Y-204972075D01*
X496713441Y-205013745D01*
X496746150Y-205055989D01*
X496775663Y-205093647D01*
X496803945Y-205130129D01*
X496833392Y-205169113D01*
X496860560Y-205205935D01*
X496882001Y-205235928D01*
X496896632Y-205256953D01*
X496909447Y-205274982D01*
X496921186Y-205290958D01*
X496932592Y-205305820D01*
X496944407Y-205320510D01*
X496957373Y-205335969D01*
X496972233Y-205353138D01*
X496989728Y-205372959D01*
X496995561Y-205379488D01*
X497001481Y-205386336D01*
X497007330Y-205393299D01*
X497012953Y-205400171D01*
X497018191Y-205406749D01*
X497022888Y-205412825D01*
X497026885Y-205418197D01*
X497030027Y-205422657D01*
X497037910Y-205434781D01*
X497045810Y-205448466D01*
X497053728Y-205463714D01*
X497061664Y-205480527D01*
X497069618Y-205498907D01*
X497077592Y-205518856D01*
X497085585Y-205540377D01*
X497093599Y-205563470D01*
X497101633Y-205588138D01*
X497109688Y-205614384D01*
X497117766Y-205642209D01*
X497125865Y-205671614D01*
X497142134Y-205735177D01*
X497158498Y-205805088D01*
X497181238Y-205904828D01*
X497193641Y-205958235D01*
X497205098Y-206005146D01*
X497223108Y-206082699D01*
X497229303Y-206111484D01*
X497233973Y-206135217D01*
X497237377Y-206155103D01*
X497239775Y-206172350D01*
X497241428Y-206188162D01*
X497242597Y-206203747D01*
X497242948Y-206221528D01*
X497242509Y-206239974D01*
X497241288Y-206259058D01*
X497239293Y-206278750D01*
X497236533Y-206299022D01*
X497233016Y-206319845D01*
X497228751Y-206341190D01*
X497223746Y-206363029D01*
X497218009Y-206385331D01*
X497211551Y-206408070D01*
X497204377Y-206431215D01*
X497196498Y-206454738D01*
X497187922Y-206478611D01*
X497178657Y-206502804D01*
X497168711Y-206527289D01*
X497158094Y-206552036D01*
X497149080Y-206571320D01*
X497137777Y-206593743D01*
X497124834Y-206618145D01*
X497110907Y-206643365D01*
X497096646Y-206668242D01*
X497082705Y-206691615D01*
X497069737Y-206712324D01*
X497058393Y-206729206D01*
X497047654Y-206743966D01*
X497036576Y-206758407D01*
X497025204Y-206772488D01*
X497013578Y-206786170D01*
X497001743Y-206799411D01*
X496989741Y-206812172D01*
X496977614Y-206824411D01*
X496965407Y-206836088D01*
X496953160Y-206847164D01*
X496940919Y-206857597D01*
X496928724Y-206867347D01*
X496916619Y-206876374D01*
X496904647Y-206884637D01*
X496892850Y-206892095D01*
X496881272Y-206898709D01*
X496869954Y-206904438D01*
X496858181Y-206908917D01*
X496837045Y-206915794D01*
X496778476Y-206933401D01*
X496717815Y-206950576D01*
X496694066Y-206956913D01*
X496678632Y-206960636D01*
X496678983Y-206961331D01*
X496655308Y-206965591D01*
X496629616Y-206969276D01*
X496602629Y-206972354D01*
X496575073Y-206974794D01*
X496547670Y-206976562D01*
X496521145Y-206977629D01*
X496496221Y-206977961D01*
X496473623Y-206977528D01*
X496455493Y-206976521D01*
X496437907Y-206975005D01*
X496420887Y-206972986D01*
X496404453Y-206970469D01*
X496388628Y-206967462D01*
X496373435Y-206963969D01*
X496358894Y-206959998D01*
X496345029Y-206955554D01*
X496331861Y-206950644D01*
X496319412Y-206945273D01*
X496307703Y-206939448D01*
X496296758Y-206933176D01*
X496286597Y-206926461D01*
X496277244Y-206919311D01*
X496268719Y-206911732D01*
X496261045Y-206903729D01*
X496257424Y-206899560D01*
X496254057Y-206895433D01*
X496250879Y-206891203D01*
X496247826Y-206886727D01*
X496244831Y-206881862D01*
X496241831Y-206876463D01*
X496238761Y-206870387D01*
X496235555Y-206863489D01*
X496232149Y-206855627D01*
X496228478Y-206846657D01*
X496224476Y-206836434D01*
X496220080Y-206824816D01*
X496215224Y-206811658D01*
X496209843Y-206796817D01*
X496197248Y-206761509D01*
X496156891Y-206646589D01*
X496141474Y-206601301D01*
X496127668Y-206559249D01*
X496114301Y-206516775D01*
X496100201Y-206470220D01*
X496065114Y-206350231D01*
X496028880Y-206223562D01*
X496016371Y-206177670D01*
X496006390Y-206138395D01*
X495998031Y-206101979D01*
X495990387Y-206064664D01*
X495973615Y-205972302D01*
X495964926Y-205919471D01*
X495956996Y-205865043D01*
X495949919Y-205809927D01*
X495943790Y-205755036D01*
X495938701Y-205701282D01*
X495934747Y-205649575D01*
X495932020Y-205600827D01*
X495930616Y-205555950D01*
X495930812Y-205504944D01*
X495932894Y-205454839D01*
X495936852Y-205405672D01*
X495942673Y-205357481D01*
X495950349Y-205310302D01*
X495959868Y-205264174D01*
X495971220Y-205219133D01*
X495984395Y-205175216D01*
X495999382Y-205132461D01*
X496016171Y-205090905D01*
X496034751Y-205050586D01*
X496055111Y-205011540D01*
X496077242Y-204973805D01*
X496101132Y-204937419D01*
X496126771Y-204902418D01*
X496154149Y-204868839D01*
X496164950Y-204856587D01*
X496176166Y-204844461D01*
X496187743Y-204832505D01*
X496199625Y-204820764D01*
X496211756Y-204809284D01*
X496224081Y-204798110D01*
X496236544Y-204787287D01*
X496249090Y-204776860D01*
X496261665Y-204766875D01*
X496274211Y-204757376D01*
X496286674Y-204748409D01*
X496298998Y-204740019D01*
X496311128Y-204732251D01*
X496323009Y-204725150D01*
X496334585Y-204718762D01*
X496345800Y-204713131D01*
X496376528Y-204698855D01*
X496381721Y-204696617D01*
X496386177Y-204694877D01*
X496390027Y-204693620D01*
X496393400Y-204692830D01*
X496396426Y-204692490D01*
X496399235Y-204692583D01*
G37*
X496399235Y-204692583D02*
X496401956Y-204693094D01*
X496404720Y-204694005D01*
X496407657Y-204695300D01*
X496410895Y-204696964D01*
X496418798Y-204701328D01*
X496432287Y-204709314D01*
X496445748Y-204717999D01*
X496459219Y-204727424D01*
X496472744Y-204737630D01*
X496486362Y-204748659D01*
X496500117Y-204760553D01*
X496514048Y-204773352D01*
X496528197Y-204787099D01*
X496542605Y-204801834D01*
X496557314Y-204817599D01*
X496572365Y-204834436D01*
X496587799Y-204852385D01*
X496603658Y-204871489D01*
X496619983Y-204891788D01*
X496636815Y-204913324D01*
X496654195Y-204936138D01*
X496681476Y-204972075D01*
X496713441Y-205013745D01*
X496746150Y-205055989D01*
X496775663Y-205093647D01*
X496803945Y-205130129D01*
X496833392Y-205169113D01*
X496860560Y-205205935D01*
X496882001Y-205235928D01*
X496896632Y-205256953D01*
X496909447Y-205274982D01*
X496921186Y-205290958D01*
X496932592Y-205305820D01*
X496944407Y-205320510D01*
X496957373Y-205335969D01*
X496972233Y-205353138D01*
X496989728Y-205372959D01*
X496995561Y-205379488D01*
X497001481Y-205386336D01*
X497007330Y-205393299D01*
X497012953Y-205400171D01*
X497018191Y-205406749D01*
X497022888Y-205412825D01*
X497026885Y-205418197D01*
X497030027Y-205422657D01*
X497037910Y-205434781D01*
X497045810Y-205448466D01*
X497053728Y-205463714D01*
X497061664Y-205480527D01*
X497069618Y-205498907D01*
X497077592Y-205518856D01*
X497085585Y-205540377D01*
X497093599Y-205563470D01*
X497101633Y-205588138D01*
X497109688Y-205614384D01*
X497117766Y-205642209D01*
X497125865Y-205671614D01*
X497142134Y-205735177D01*
X497158498Y-205805088D01*
X497181238Y-205904828D01*
X497193641Y-205958235D01*
X497205098Y-206005146D01*
X497223108Y-206082699D01*
X497229303Y-206111484D01*
X497233973Y-206135217D01*
X497237377Y-206155103D01*
X497239775Y-206172350D01*
X497241428Y-206188162D01*
X497242597Y-206203747D01*
X497242948Y-206221528D01*
X497242509Y-206239974D01*
X497241288Y-206259058D01*
X497239293Y-206278750D01*
X497236533Y-206299022D01*
X497233016Y-206319845D01*
X497228751Y-206341190D01*
X497223746Y-206363029D01*
X497218009Y-206385331D01*
X497211551Y-206408070D01*
X497204377Y-206431215D01*
X497196498Y-206454738D01*
X497187922Y-206478611D01*
X497178657Y-206502804D01*
X497168711Y-206527289D01*
X497158094Y-206552036D01*
X497149080Y-206571320D01*
X497137777Y-206593743D01*
X497124834Y-206618145D01*
X497110907Y-206643365D01*
X497096646Y-206668242D01*
X497082705Y-206691615D01*
X497069737Y-206712324D01*
X497058393Y-206729206D01*
X497047654Y-206743966D01*
X497036576Y-206758407D01*
X497025204Y-206772488D01*
X497013578Y-206786170D01*
X497001743Y-206799411D01*
X496989741Y-206812172D01*
X496977614Y-206824411D01*
X496965407Y-206836088D01*
X496953160Y-206847164D01*
X496940919Y-206857597D01*
X496928724Y-206867347D01*
X496916619Y-206876374D01*
X496904647Y-206884637D01*
X496892850Y-206892095D01*
X496881272Y-206898709D01*
X496869954Y-206904438D01*
X496858181Y-206908917D01*
X496837045Y-206915794D01*
X496778476Y-206933401D01*
X496717815Y-206950576D01*
X496694066Y-206956913D01*
X496678632Y-206960636D01*
X496678983Y-206961331D01*
X496655308Y-206965591D01*
X496629616Y-206969276D01*
X496602629Y-206972354D01*
X496575073Y-206974794D01*
X496547670Y-206976562D01*
X496521145Y-206977629D01*
X496496221Y-206977961D01*
X496473623Y-206977528D01*
X496455493Y-206976521D01*
X496437907Y-206975005D01*
X496420887Y-206972986D01*
X496404453Y-206970469D01*
X496388628Y-206967462D01*
X496373435Y-206963969D01*
X496358894Y-206959998D01*
X496345029Y-206955554D01*
X496331861Y-206950644D01*
X496319412Y-206945273D01*
X496307703Y-206939448D01*
X496296758Y-206933176D01*
X496286597Y-206926461D01*
X496277244Y-206919311D01*
X496268719Y-206911732D01*
X496261045Y-206903729D01*
X496257424Y-206899560D01*
X496254057Y-206895433D01*
X496250879Y-206891203D01*
X496247826Y-206886727D01*
X496244831Y-206881862D01*
X496241831Y-206876463D01*
X496238761Y-206870387D01*
X496235555Y-206863489D01*
X496232149Y-206855627D01*
X496228478Y-206846657D01*
X496224476Y-206836434D01*
X496220080Y-206824816D01*
X496215224Y-206811658D01*
X496209843Y-206796817D01*
X496197248Y-206761509D01*
X496156891Y-206646589D01*
X496141474Y-206601301D01*
X496127668Y-206559249D01*
X496114301Y-206516775D01*
X496100201Y-206470220D01*
X496065114Y-206350231D01*
X496028880Y-206223562D01*
X496016371Y-206177670D01*
X496006390Y-206138395D01*
X495998031Y-206101979D01*
X495990387Y-206064664D01*
X495973615Y-205972302D01*
X495964926Y-205919471D01*
X495956996Y-205865043D01*
X495949919Y-205809927D01*
X495943790Y-205755036D01*
X495938701Y-205701282D01*
X495934747Y-205649575D01*
X495932020Y-205600827D01*
X495930616Y-205555950D01*
X495930812Y-205504944D01*
X495932894Y-205454839D01*
X495936852Y-205405672D01*
X495942673Y-205357481D01*
X495950349Y-205310302D01*
X495959868Y-205264174D01*
X495971220Y-205219133D01*
X495984395Y-205175216D01*
X495999382Y-205132461D01*
X496016171Y-205090905D01*
X496034751Y-205050586D01*
X496055111Y-205011540D01*
X496077242Y-204973805D01*
X496101132Y-204937419D01*
X496126771Y-204902418D01*
X496154149Y-204868839D01*
X496164950Y-204856587D01*
X496176166Y-204844461D01*
X496187743Y-204832505D01*
X496199625Y-204820764D01*
X496211756Y-204809284D01*
X496224081Y-204798110D01*
X496236544Y-204787287D01*
X496249090Y-204776860D01*
X496261665Y-204766875D01*
X496274211Y-204757376D01*
X496286674Y-204748409D01*
X496298998Y-204740019D01*
X496311128Y-204732251D01*
X496323009Y-204725150D01*
X496334585Y-204718762D01*
X496345800Y-204713131D01*
X496376528Y-204698855D01*
X496381721Y-204696617D01*
X496386177Y-204694877D01*
X496390027Y-204693620D01*
X496393400Y-204692830D01*
X496396426Y-204692490D01*
X496399235Y-204692583D01*
D10*
X500289440Y-201413261D02*
X500295157Y-201381431D01*
X488054774Y-201450925D02*
X487975329Y-201712245D01*
X498363302Y-204652404D02*
X498456815Y-204641086D01*
X500399329Y-203960085D02*
X500456949Y-203908949D01*
X488145385Y-201198336D02*
X488054774Y-201450925D01*
X500654857Y-203636488D02*
X500669912Y-203601338D01*
X491237597Y-205457397D02*
X491268377Y-205493221D01*
X496429311Y-204623036D02*
X496429311Y-204623036D01*
X495381412Y-203607009D02*
X495317426Y-203319486D01*
X490992374Y-203852222D02*
X490886455Y-203931282D01*
X498231363Y-201390222D02*
X497976980Y-201463055D01*
X495921395Y-206148595D02*
X495938524Y-206218372D01*
X495202987Y-202843104D02*
X495152578Y-202645146D01*
X491213369Y-209164114D02*
X491331144Y-209129291D01*
X499665815Y-199636540D02*
X499578116Y-199476623D01*
X500592952Y-201637504D02*
X500564580Y-201528797D01*
X500457301Y-206690379D02*
X500493367Y-206610181D01*
D12*
X498875631Y-204551632D02*
X498791730Y-204564088D01*
X498791730Y-204564088D02*
X498694572Y-204576543D01*
X498694572Y-204576543D02*
X498590275Y-204588415D01*
X498590275Y-204588415D02*
X498484956Y-204599120D01*
X498484956Y-204599120D02*
X498384733Y-204608077D01*
X498384733Y-204608077D02*
X498295722Y-204614704D01*
X498295722Y-204614704D02*
X498224042Y-204618416D01*
X498224042Y-204618416D02*
X498175809Y-204618633D01*
X498175809Y-204618633D02*
X498121611Y-204614556D01*
X498121611Y-204614556D02*
X498061962Y-204607831D01*
X498061962Y-204607831D02*
X497998977Y-204598838D01*
X497998977Y-204598838D02*
X497934766Y-204587956D01*
X497934766Y-204587956D02*
X497871444Y-204575564D01*
X497871444Y-204575564D02*
X497811123Y-204562043D01*
X497811123Y-204562043D02*
X497755916Y-204547772D01*
X497755916Y-204547772D02*
X497707937Y-204533131D01*
X497707937Y-204533131D02*
X497649175Y-204511199D01*
X497649175Y-204511199D02*
X497590730Y-204485049D01*
X497590730Y-204485049D02*
X497532616Y-204454694D01*
X497532616Y-204454694D02*
X497474846Y-204420147D01*
X497474846Y-204420147D02*
X497417434Y-204381422D01*
X497417434Y-204381422D02*
X497360395Y-204338530D01*
X497360395Y-204338530D02*
X497303741Y-204291486D01*
X497303741Y-204291486D02*
X497247487Y-204240303D01*
X497247487Y-204240303D02*
X497191647Y-204184994D01*
X497191647Y-204184994D02*
X497136233Y-204125571D01*
X497136233Y-204125571D02*
X497081261Y-204062048D01*
X497081261Y-204062048D02*
X497026743Y-203994438D01*
X497026743Y-203994438D02*
X496972694Y-203922754D01*
X496972694Y-203922754D02*
X496919128Y-203847010D01*
X496919128Y-203847010D02*
X496866057Y-203767218D01*
X496866057Y-203767218D02*
X496813497Y-203683392D01*
X496813497Y-203683392D02*
X496790023Y-203643751D01*
X496790023Y-203643751D02*
X496765903Y-203600772D01*
X496765903Y-203600772D02*
X496715770Y-203504920D01*
X496715770Y-203504920D02*
X496663201Y-203396075D01*
X496663201Y-203396075D02*
X496608299Y-203274476D01*
X496608299Y-203274476D02*
X496551163Y-203140364D01*
X496551163Y-203140364D02*
X496491898Y-202993977D01*
X496491898Y-202993977D02*
X496430604Y-202835556D01*
X496430604Y-202835556D02*
X496367383Y-202665341D01*
X496367383Y-202665341D02*
X496302996Y-202488161D01*
X496302996Y-202488161D02*
X496284482Y-202435422D01*
X496284482Y-202435422D02*
X496273517Y-202401082D01*
X496273517Y-202401082D02*
X496270497Y-202389522D01*
X496270497Y-202389522D02*
X496268923Y-202381013D01*
X496268923Y-202381013D02*
X496268647Y-202375041D01*
X496268647Y-202375041D02*
X496269521Y-202371088D01*
X496269521Y-202371088D02*
X496271400Y-202368640D01*
X496271400Y-202368640D02*
X496274134Y-202367180D01*
X496274134Y-202367180D02*
X496281583Y-202365162D01*
X496281583Y-202365162D02*
X496294025Y-202360650D01*
X496294025Y-202360650D02*
X496310630Y-202353165D01*
X496310630Y-202353165D02*
X496331091Y-202342897D01*
X496331091Y-202342897D02*
X496355099Y-202330035D01*
X496355099Y-202330035D02*
X496412523Y-202297288D01*
X496412523Y-202297288D02*
X496480438Y-202256438D01*
X496480438Y-202256438D02*
X496556375Y-202209003D01*
X496556375Y-202209003D02*
X496637868Y-202156496D01*
X496637868Y-202156496D02*
X496722452Y-202100434D01*
X496722452Y-202100434D02*
X496807660Y-202042332D01*
X496807660Y-202042332D02*
X496967741Y-201933565D01*
X496967741Y-201933565D02*
X497039568Y-201887156D01*
X497039568Y-201887156D02*
X497108338Y-201845070D01*
X497108338Y-201845070D02*
X497175863Y-201806559D01*
X497175863Y-201806559D02*
X497243957Y-201770878D01*
X497243957Y-201770878D02*
X497314432Y-201737280D01*
X497314432Y-201737280D02*
X497389101Y-201705020D01*
X497389101Y-201705020D02*
X497469778Y-201673351D01*
X497469778Y-201673351D02*
X497558276Y-201641528D01*
X497558276Y-201641528D02*
X497656407Y-201608804D01*
X497656407Y-201608804D02*
X497765985Y-201574433D01*
X497765985Y-201574433D02*
X497888822Y-201537670D01*
X497888822Y-201537670D02*
X498026733Y-201497767D01*
X498026733Y-201497767D02*
X498355024Y-201405560D01*
X498355024Y-201405560D02*
X498641493Y-201327164D01*
X498641493Y-201327164D02*
X498922220Y-201252574D01*
X498922220Y-201252574D02*
X499164969Y-201190222D01*
X499164969Y-201190222D02*
X499337507Y-201148541D01*
X499337507Y-201148541D02*
X499566840Y-201096128D01*
X499566840Y-201096128D02*
X499686979Y-201067341D01*
X499686979Y-201067341D02*
X499729276Y-201055439D01*
X499729276Y-201055439D02*
X499769079Y-201164166D01*
X499769079Y-201164166D02*
X499800727Y-201248210D01*
X499800727Y-201248210D02*
X499830241Y-201323635D01*
X499830241Y-201323635D02*
X499857456Y-201390075D01*
X499857456Y-201390075D02*
X499882209Y-201447161D01*
X499882209Y-201447161D02*
X499904337Y-201494526D01*
X499904337Y-201494526D02*
X499923675Y-201531802D01*
X499923675Y-201531802D02*
X499940060Y-201558622D01*
X499940060Y-201558622D02*
X499947094Y-201567997D01*
X499947094Y-201567997D02*
X499953328Y-201574619D01*
X499953328Y-201574619D02*
X499968674Y-201588444D01*
X499968674Y-201588444D02*
X499987741Y-201605408D01*
X499987741Y-201605408D02*
X500027326Y-201640316D01*
X500027326Y-201640316D02*
X500054594Y-201665879D01*
X500054594Y-201665879D02*
X500083087Y-201695692D01*
X500083087Y-201695692D02*
X500112590Y-201729415D01*
X500112590Y-201729415D02*
X500142886Y-201766708D01*
X500142886Y-201766708D02*
X500173760Y-201807231D01*
X500173760Y-201807231D02*
X500204996Y-201850643D01*
X500204996Y-201850643D02*
X500236379Y-201896604D01*
X500236379Y-201896604D02*
X500267691Y-201944774D01*
X500267691Y-201944774D02*
X500298718Y-201994813D01*
X500298718Y-201994813D02*
X500329243Y-202046381D01*
X500329243Y-202046381D02*
X500359051Y-202099137D01*
X500359051Y-202099137D02*
X500387925Y-202152741D01*
X500387925Y-202152741D02*
X500415651Y-202206854D01*
X500415651Y-202206854D02*
X500442011Y-202261135D01*
X500442011Y-202261135D02*
X500466791Y-202315243D01*
X500466791Y-202315243D02*
X500489774Y-202368839D01*
X500489774Y-202368839D02*
X500515084Y-202433798D01*
X500515084Y-202433798D02*
X500539043Y-202502695D01*
X500539043Y-202502695D02*
X500561537Y-202574816D01*
X500561537Y-202574816D02*
X500582452Y-202649448D01*
X500582452Y-202649448D02*
X500601673Y-202725878D01*
X500601673Y-202725878D02*
X500619085Y-202803393D01*
X500619085Y-202803393D02*
X500634573Y-202881279D01*
X500634573Y-202881279D02*
X500648024Y-202958823D01*
X500648024Y-202958823D02*
X500659322Y-203035313D01*
X500659322Y-203035313D02*
X500668353Y-203110034D01*
X500668353Y-203110034D02*
X500675003Y-203182273D01*
X500675003Y-203182273D02*
X500679156Y-203251317D01*
X500679156Y-203251317D02*
X500680699Y-203316454D01*
X500680699Y-203316454D02*
X500679516Y-203376969D01*
X500679516Y-203376969D02*
X500675493Y-203432149D01*
X500675493Y-203432149D02*
X500668515Y-203481281D01*
X500668515Y-203481281D02*
X500663110Y-203506221D01*
X500663110Y-203506221D02*
X500655971Y-203532185D01*
X500655971Y-203532185D02*
X500647213Y-203558968D01*
X500647213Y-203558968D02*
X500636952Y-203586370D01*
X500636952Y-203586370D02*
X500625301Y-203614185D01*
X500625301Y-203614185D02*
X500612376Y-203642211D01*
X500612376Y-203642211D02*
X500598292Y-203670245D01*
X500598292Y-203670245D02*
X500583164Y-203698084D01*
X500583164Y-203698084D02*
X500567105Y-203725524D01*
X500567105Y-203725524D02*
X500550232Y-203752362D01*
X500550232Y-203752362D02*
X500532659Y-203778396D01*
X500532659Y-203778396D02*
X500514501Y-203803421D01*
X500514501Y-203803421D02*
X500495872Y-203827235D01*
X500495872Y-203827235D02*
X500476889Y-203849635D01*
X500476889Y-203849635D02*
X500457664Y-203870417D01*
X500457664Y-203870417D02*
X500438314Y-203889378D01*
X500438314Y-203889378D02*
X500408368Y-203916096D01*
X500408368Y-203916096D02*
X500376304Y-203942584D01*
X500376304Y-203942584D02*
X500342008Y-203968906D01*
X500342008Y-203968906D02*
X500305363Y-203995125D01*
X500305363Y-203995125D02*
X500266255Y-204021302D01*
X500266255Y-204021302D02*
X500224569Y-204047501D01*
X500224569Y-204047501D02*
X500180190Y-204073785D01*
X500180190Y-204073785D02*
X500133003Y-204100217D01*
X500133003Y-204100217D02*
X500082892Y-204126859D01*
X500082892Y-204126859D02*
X500029744Y-204153774D01*
X500029744Y-204153774D02*
X499973443Y-204181025D01*
X499973443Y-204181025D02*
X499913873Y-204208675D01*
X499913873Y-204208675D02*
X499850921Y-204236787D01*
X499850921Y-204236787D02*
X499784470Y-204265423D01*
X499784470Y-204265423D02*
X499714407Y-204294647D01*
X499714407Y-204294647D02*
X499640615Y-204324520D01*
X499640615Y-204324520D02*
X499558974Y-204355166D01*
X499558974Y-204355166D02*
X499461038Y-204388808D01*
X499461038Y-204388808D02*
X499352941Y-204423620D01*
X499352941Y-204423620D02*
X499240817Y-204457778D01*
X499240817Y-204457778D02*
X499130802Y-204489455D01*
X499130802Y-204489455D02*
X499029028Y-204516825D01*
X499029028Y-204516825D02*
X498941631Y-204538063D01*
X498941631Y-204538063D02*
X498874746Y-204551342D01*
X498874746Y-204551342D02*
X498875631Y-204551632D01*
X498875631Y-204551632D02*
X498875631Y-204551632D01*
G36*
X499769079Y-201164166D02*
G01*
X499800727Y-201248210D01*
X499830241Y-201323635D01*
X499857456Y-201390075D01*
X499882209Y-201447161D01*
X499904337Y-201494526D01*
X499923675Y-201531802D01*
X499940060Y-201558622D01*
X499947094Y-201567997D01*
X499953328Y-201574619D01*
X499968674Y-201588444D01*
X499987741Y-201605408D01*
X500027326Y-201640316D01*
X500054594Y-201665879D01*
X500083087Y-201695692D01*
X500112590Y-201729415D01*
X500142886Y-201766708D01*
X500173760Y-201807231D01*
X500204996Y-201850643D01*
X500236379Y-201896604D01*
X500267691Y-201944774D01*
X500298718Y-201994813D01*
X500329243Y-202046381D01*
X500359051Y-202099137D01*
X500387925Y-202152741D01*
X500415651Y-202206854D01*
X500442011Y-202261135D01*
X500466791Y-202315243D01*
X500489774Y-202368839D01*
X500515084Y-202433798D01*
X500539043Y-202502695D01*
X500561537Y-202574816D01*
X500582452Y-202649448D01*
X500601673Y-202725878D01*
X500619085Y-202803393D01*
X500634573Y-202881279D01*
X500648024Y-202958823D01*
X500659322Y-203035313D01*
X500668353Y-203110034D01*
X500675003Y-203182273D01*
X500679156Y-203251317D01*
X500680699Y-203316454D01*
X500679516Y-203376969D01*
X500675493Y-203432149D01*
X500668515Y-203481281D01*
X500663110Y-203506221D01*
X500655971Y-203532185D01*
X500647213Y-203558968D01*
X500636952Y-203586370D01*
X500625301Y-203614185D01*
X500612376Y-203642211D01*
X500598292Y-203670245D01*
X500583164Y-203698084D01*
X500567105Y-203725524D01*
X500550232Y-203752362D01*
X500532659Y-203778396D01*
X500514501Y-203803421D01*
X500495872Y-203827235D01*
X500476889Y-203849635D01*
X500457664Y-203870417D01*
X500438314Y-203889378D01*
X500408368Y-203916096D01*
X500376304Y-203942584D01*
X500342008Y-203968906D01*
X500305363Y-203995125D01*
X500266255Y-204021302D01*
X500224569Y-204047501D01*
X500180190Y-204073785D01*
X500133003Y-204100217D01*
X500082892Y-204126859D01*
X500029744Y-204153774D01*
X499973443Y-204181025D01*
X499913873Y-204208675D01*
X499850921Y-204236787D01*
X499784470Y-204265423D01*
X499714407Y-204294647D01*
X499640615Y-204324520D01*
X499558974Y-204355166D01*
X499461038Y-204388808D01*
X499352941Y-204423620D01*
X499240817Y-204457778D01*
X499130802Y-204489455D01*
X499029028Y-204516825D01*
X498941631Y-204538063D01*
X498874746Y-204551342D01*
X498875631Y-204551632D01*
X498791730Y-204564088D01*
X498694572Y-204576543D01*
X498590275Y-204588415D01*
X498484956Y-204599120D01*
X498384733Y-204608077D01*
X498295722Y-204614704D01*
X498224042Y-204618416D01*
X498175809Y-204618633D01*
X498121611Y-204614556D01*
X498061962Y-204607831D01*
X497998977Y-204598838D01*
X497934766Y-204587956D01*
X497871444Y-204575564D01*
X497811123Y-204562043D01*
X497755916Y-204547772D01*
X497707937Y-204533131D01*
X497649175Y-204511199D01*
X497590730Y-204485049D01*
X497532616Y-204454694D01*
X497474846Y-204420147D01*
X497417434Y-204381422D01*
X497360395Y-204338530D01*
X497303741Y-204291486D01*
X497247487Y-204240303D01*
X497191647Y-204184994D01*
X497136233Y-204125571D01*
X497081261Y-204062048D01*
X497026743Y-203994438D01*
X496972694Y-203922754D01*
X496919128Y-203847010D01*
X496866057Y-203767218D01*
X496813497Y-203683392D01*
X496790023Y-203643751D01*
X496765903Y-203600772D01*
X496715770Y-203504920D01*
X496663201Y-203396075D01*
X496608299Y-203274476D01*
X496551163Y-203140364D01*
X496491898Y-202993977D01*
X496430604Y-202835556D01*
X496367383Y-202665341D01*
X496302996Y-202488161D01*
X496284482Y-202435422D01*
X496273517Y-202401082D01*
X496270497Y-202389522D01*
X496268923Y-202381013D01*
X496268647Y-202375041D01*
X496269521Y-202371088D01*
X496271400Y-202368640D01*
X496274134Y-202367180D01*
X496281583Y-202365162D01*
X496294025Y-202360650D01*
X496310630Y-202353165D01*
X496331091Y-202342897D01*
X496355099Y-202330035D01*
X496412523Y-202297288D01*
X496480438Y-202256438D01*
X496556375Y-202209003D01*
X496637868Y-202156496D01*
X496722452Y-202100434D01*
X496807660Y-202042332D01*
X496967741Y-201933565D01*
X497039568Y-201887156D01*
X497108338Y-201845070D01*
X497175863Y-201806559D01*
X497243957Y-201770878D01*
X497314432Y-201737280D01*
X497389101Y-201705020D01*
X497469778Y-201673351D01*
X497558276Y-201641528D01*
X497656407Y-201608804D01*
X497765985Y-201574433D01*
X497888822Y-201537670D01*
X498026733Y-201497767D01*
X498355024Y-201405560D01*
X498641493Y-201327164D01*
X498922220Y-201252574D01*
X499164969Y-201190222D01*
X499337507Y-201148541D01*
X499566840Y-201096128D01*
X499686979Y-201067341D01*
X499729276Y-201055439D01*
X499769079Y-201164166D01*
G37*
X499769079Y-201164166D02*
X499800727Y-201248210D01*
X499830241Y-201323635D01*
X499857456Y-201390075D01*
X499882209Y-201447161D01*
X499904337Y-201494526D01*
X499923675Y-201531802D01*
X499940060Y-201558622D01*
X499947094Y-201567997D01*
X499953328Y-201574619D01*
X499968674Y-201588444D01*
X499987741Y-201605408D01*
X500027326Y-201640316D01*
X500054594Y-201665879D01*
X500083087Y-201695692D01*
X500112590Y-201729415D01*
X500142886Y-201766708D01*
X500173760Y-201807231D01*
X500204996Y-201850643D01*
X500236379Y-201896604D01*
X500267691Y-201944774D01*
X500298718Y-201994813D01*
X500329243Y-202046381D01*
X500359051Y-202099137D01*
X500387925Y-202152741D01*
X500415651Y-202206854D01*
X500442011Y-202261135D01*
X500466791Y-202315243D01*
X500489774Y-202368839D01*
X500515084Y-202433798D01*
X500539043Y-202502695D01*
X500561537Y-202574816D01*
X500582452Y-202649448D01*
X500601673Y-202725878D01*
X500619085Y-202803393D01*
X500634573Y-202881279D01*
X500648024Y-202958823D01*
X500659322Y-203035313D01*
X500668353Y-203110034D01*
X500675003Y-203182273D01*
X500679156Y-203251317D01*
X500680699Y-203316454D01*
X500679516Y-203376969D01*
X500675493Y-203432149D01*
X500668515Y-203481281D01*
X500663110Y-203506221D01*
X500655971Y-203532185D01*
X500647213Y-203558968D01*
X500636952Y-203586370D01*
X500625301Y-203614185D01*
X500612376Y-203642211D01*
X500598292Y-203670245D01*
X500583164Y-203698084D01*
X500567105Y-203725524D01*
X500550232Y-203752362D01*
X500532659Y-203778396D01*
X500514501Y-203803421D01*
X500495872Y-203827235D01*
X500476889Y-203849635D01*
X500457664Y-203870417D01*
X500438314Y-203889378D01*
X500408368Y-203916096D01*
X500376304Y-203942584D01*
X500342008Y-203968906D01*
X500305363Y-203995125D01*
X500266255Y-204021302D01*
X500224569Y-204047501D01*
X500180190Y-204073785D01*
X500133003Y-204100217D01*
X500082892Y-204126859D01*
X500029744Y-204153774D01*
X499973443Y-204181025D01*
X499913873Y-204208675D01*
X499850921Y-204236787D01*
X499784470Y-204265423D01*
X499714407Y-204294647D01*
X499640615Y-204324520D01*
X499558974Y-204355166D01*
X499461038Y-204388808D01*
X499352941Y-204423620D01*
X499240817Y-204457778D01*
X499130802Y-204489455D01*
X499029028Y-204516825D01*
X498941631Y-204538063D01*
X498874746Y-204551342D01*
X498875631Y-204551632D01*
X498791730Y-204564088D01*
X498694572Y-204576543D01*
X498590275Y-204588415D01*
X498484956Y-204599120D01*
X498384733Y-204608077D01*
X498295722Y-204614704D01*
X498224042Y-204618416D01*
X498175809Y-204618633D01*
X498121611Y-204614556D01*
X498061962Y-204607831D01*
X497998977Y-204598838D01*
X497934766Y-204587956D01*
X497871444Y-204575564D01*
X497811123Y-204562043D01*
X497755916Y-204547772D01*
X497707937Y-204533131D01*
X497649175Y-204511199D01*
X497590730Y-204485049D01*
X497532616Y-204454694D01*
X497474846Y-204420147D01*
X497417434Y-204381422D01*
X497360395Y-204338530D01*
X497303741Y-204291486D01*
X497247487Y-204240303D01*
X497191647Y-204184994D01*
X497136233Y-204125571D01*
X497081261Y-204062048D01*
X497026743Y-203994438D01*
X496972694Y-203922754D01*
X496919128Y-203847010D01*
X496866057Y-203767218D01*
X496813497Y-203683392D01*
X496790023Y-203643751D01*
X496765903Y-203600772D01*
X496715770Y-203504920D01*
X496663201Y-203396075D01*
X496608299Y-203274476D01*
X496551163Y-203140364D01*
X496491898Y-202993977D01*
X496430604Y-202835556D01*
X496367383Y-202665341D01*
X496302996Y-202488161D01*
X496284482Y-202435422D01*
X496273517Y-202401082D01*
X496270497Y-202389522D01*
X496268923Y-202381013D01*
X496268647Y-202375041D01*
X496269521Y-202371088D01*
X496271400Y-202368640D01*
X496274134Y-202367180D01*
X496281583Y-202365162D01*
X496294025Y-202360650D01*
X496310630Y-202353165D01*
X496331091Y-202342897D01*
X496355099Y-202330035D01*
X496412523Y-202297288D01*
X496480438Y-202256438D01*
X496556375Y-202209003D01*
X496637868Y-202156496D01*
X496722452Y-202100434D01*
X496807660Y-202042332D01*
X496967741Y-201933565D01*
X497039568Y-201887156D01*
X497108338Y-201845070D01*
X497175863Y-201806559D01*
X497243957Y-201770878D01*
X497314432Y-201737280D01*
X497389101Y-201705020D01*
X497469778Y-201673351D01*
X497558276Y-201641528D01*
X497656407Y-201608804D01*
X497765985Y-201574433D01*
X497888822Y-201537670D01*
X498026733Y-201497767D01*
X498355024Y-201405560D01*
X498641493Y-201327164D01*
X498922220Y-201252574D01*
X499164969Y-201190222D01*
X499337507Y-201148541D01*
X499566840Y-201096128D01*
X499686979Y-201067341D01*
X499729276Y-201055439D01*
X499769079Y-201164166D01*
D10*
X500737271Y-202683578D02*
X500739263Y-202529072D01*
X497335341Y-206130312D02*
X497331523Y-206101657D01*
X494020217Y-202674722D02*
X493947210Y-202688938D01*
X494386696Y-202641924D02*
X494287800Y-202646990D01*
X501358813Y-205822209D02*
X501350485Y-205744334D01*
X496834278Y-203882518D02*
X496888266Y-203958145D01*
X490794835Y-204003636D02*
X490794835Y-204003636D01*
X495861557Y-205320636D02*
X495853165Y-205377875D01*
X500669912Y-203601338D02*
X500683445Y-203565103D01*
X500393486Y-201072588D02*
X500381098Y-201055646D01*
X491682921Y-203427137D02*
X491580781Y-203479837D01*
X496554410Y-204683066D02*
X496542158Y-204674177D01*
X491653317Y-197686492D02*
X491395653Y-197799339D01*
X495846334Y-205631573D02*
X495852143Y-205711372D01*
X497289286Y-205921865D02*
X497280775Y-205886850D01*
D13*
X493703763Y-206294781D02*
X493639250Y-206307150D01*
X493639250Y-206307150D02*
X493575804Y-206317933D01*
X493575804Y-206317933D02*
X493513291Y-206327131D01*
X493513291Y-206327131D02*
X493451574Y-206334744D01*
X493451574Y-206334744D02*
X493390520Y-206340774D01*
X493390520Y-206340774D02*
X493329991Y-206345221D01*
X493329991Y-206345221D02*
X493269853Y-206348085D01*
X493269853Y-206348085D02*
X493209970Y-206349368D01*
X493209970Y-206349368D02*
X493150207Y-206349070D01*
X493150207Y-206349070D02*
X493090428Y-206347192D01*
X493090428Y-206347192D02*
X493030498Y-206343735D01*
X493030498Y-206343735D02*
X492970282Y-206338699D01*
X492970282Y-206338699D02*
X492909644Y-206332086D01*
X492909644Y-206332086D02*
X492848449Y-206323895D01*
X492848449Y-206323895D02*
X492786560Y-206314127D01*
X492786560Y-206314127D02*
X492723844Y-206302784D01*
X492723844Y-206302784D02*
X492625431Y-206282121D01*
X492625431Y-206282121D02*
X492530051Y-206258246D01*
X492530051Y-206258246D02*
X492437442Y-206231004D01*
X492437442Y-206231004D02*
X492347341Y-206200241D01*
X492347341Y-206200241D02*
X492259487Y-206165801D01*
X492259487Y-206165801D02*
X492173619Y-206127531D01*
X492173619Y-206127531D02*
X492089476Y-206085274D01*
X492089476Y-206085274D02*
X492006794Y-206038878D01*
X492006794Y-206038878D02*
X491925314Y-205988186D01*
X491925314Y-205988186D02*
X491844772Y-205933043D01*
X491844772Y-205933043D02*
X491764909Y-205873296D01*
X491764909Y-205873296D02*
X491685461Y-205808790D01*
X491685461Y-205808790D02*
X491606168Y-205739369D01*
X491606168Y-205739369D02*
X491526767Y-205664879D01*
X491526767Y-205664879D02*
X491446997Y-205585165D01*
X491446997Y-205585165D02*
X491366597Y-205500073D01*
X491366597Y-205500073D02*
X491333607Y-205463491D01*
X491333607Y-205463491D02*
X491301780Y-205426679D01*
X491301780Y-205426679D02*
X491270980Y-205389422D01*
X491270980Y-205389422D02*
X491241069Y-205351502D01*
X491241069Y-205351502D02*
X491211911Y-205312702D01*
X491211911Y-205312702D02*
X491183366Y-205272806D01*
X491183366Y-205272806D02*
X491155299Y-205231597D01*
X491155299Y-205231597D02*
X491127571Y-205188857D01*
X491127571Y-205188857D02*
X491100046Y-205144371D01*
X491100046Y-205144371D02*
X491072586Y-205097921D01*
X491072586Y-205097921D02*
X491045053Y-205049292D01*
X491045053Y-205049292D02*
X491017311Y-204998265D01*
X491017311Y-204998265D02*
X490989221Y-204944624D01*
X490989221Y-204944624D02*
X490960646Y-204888152D01*
X490960646Y-204888152D02*
X490901494Y-204765850D01*
X490901494Y-204765850D02*
X490869429Y-204695486D01*
X490869429Y-204695486D02*
X490830481Y-204606566D01*
X490830481Y-204606566D02*
X490746035Y-204407042D01*
X490746035Y-204407042D02*
X490676353Y-204235249D01*
X490676353Y-204235249D02*
X490655860Y-204180994D01*
X490655860Y-204180994D02*
X490650743Y-204165493D01*
X490650743Y-204165493D02*
X490649633Y-204159161D01*
X490649633Y-204159161D02*
X490650808Y-204157988D01*
X490650808Y-204157988D02*
X490653532Y-204155636D01*
X490653532Y-204155636D02*
X490663296Y-204147648D01*
X490663296Y-204147648D02*
X490697814Y-204120299D01*
X490697814Y-204120299D02*
X490747980Y-204081157D01*
X490747980Y-204081157D02*
X490808584Y-204034260D01*
X490808584Y-204034260D02*
X490966118Y-203915616D01*
X490966118Y-203915616D02*
X491118891Y-203806855D01*
X491118891Y-203806855D02*
X491267313Y-203707734D01*
X491267313Y-203707734D02*
X491411795Y-203618007D01*
X491411795Y-203618007D02*
X491552747Y-203537429D01*
X491552747Y-203537429D02*
X491622027Y-203500494D01*
X491622027Y-203500494D02*
X491690579Y-203465755D01*
X491690579Y-203465755D02*
X491758453Y-203433181D01*
X491758453Y-203433181D02*
X491825701Y-203402741D01*
X491825701Y-203402741D02*
X491892374Y-203374404D01*
X491892374Y-203374404D02*
X491958524Y-203348141D01*
X491958524Y-203348141D02*
X492075233Y-203305047D01*
X492075233Y-203305047D02*
X492215427Y-203256083D01*
X492215427Y-203256083D02*
X492376662Y-203202030D01*
X492376662Y-203202030D02*
X492556495Y-203143671D01*
X492556495Y-203143671D02*
X492962179Y-203017169D01*
X492962179Y-203017169D02*
X493412931Y-202882839D01*
X493412931Y-202882839D02*
X493824122Y-202763837D01*
X493824122Y-202763837D02*
X493960023Y-202727624D01*
X493960023Y-202727624D02*
X494016604Y-202714159D01*
X494016604Y-202714159D02*
X494067913Y-202703339D01*
X494067913Y-202703339D02*
X494115680Y-202694826D01*
X494115680Y-202694826D02*
X494161633Y-202688284D01*
X494161633Y-202688284D02*
X494207503Y-202683374D01*
X494207503Y-202683374D02*
X494255021Y-202679760D01*
X494255021Y-202679760D02*
X494361917Y-202675069D01*
X494361917Y-202675069D02*
X494496160Y-202671513D01*
X494496160Y-202671513D02*
X494671626Y-202669030D01*
X494671626Y-202669030D02*
X494868636Y-202668889D01*
X494868636Y-202668889D02*
X495031346Y-202670810D01*
X495031346Y-202670810D02*
X495082387Y-202672456D01*
X495082387Y-202672456D02*
X495103910Y-202674511D01*
X495103910Y-202674511D02*
X495110628Y-202696439D01*
X495110628Y-202696439D02*
X495125737Y-202754663D01*
X495125737Y-202754663D02*
X495173360Y-202948151D01*
X495173360Y-202948151D02*
X495231231Y-203191265D01*
X495231231Y-203191265D02*
X495283803Y-203420300D01*
X495283803Y-203420300D02*
X495351687Y-203740686D01*
X495351687Y-203740686D02*
X495407934Y-204037253D01*
X495407934Y-204037253D02*
X495429890Y-204166428D01*
X495429890Y-204166428D02*
X495446771Y-204277437D01*
X495446771Y-204277437D02*
X495457856Y-204366210D01*
X495457856Y-204366210D02*
X495462423Y-204428677D01*
X495462423Y-204428677D02*
X495462301Y-204434046D01*
X495462301Y-204434046D02*
X495461792Y-204440132D01*
X495461792Y-204440132D02*
X495460914Y-204446867D01*
X495460914Y-204446867D02*
X495459685Y-204454182D01*
X495459685Y-204454182D02*
X495458125Y-204462009D01*
X495458125Y-204462009D02*
X495456252Y-204470280D01*
X495456252Y-204470280D02*
X495454084Y-204478927D01*
X495454084Y-204478927D02*
X495451641Y-204487881D01*
X495451641Y-204487881D02*
X495448941Y-204497074D01*
X495448941Y-204497074D02*
X495446003Y-204506439D01*
X495446003Y-204506439D02*
X495442846Y-204515906D01*
X495442846Y-204515906D02*
X495439488Y-204525408D01*
X495439488Y-204525408D02*
X495435947Y-204534876D01*
X495435947Y-204534876D02*
X495432243Y-204544243D01*
X495432243Y-204544243D02*
X495428395Y-204553439D01*
X495428395Y-204553439D02*
X495424421Y-204562397D01*
X495424421Y-204562397D02*
X495414608Y-204584799D01*
X495414608Y-204584799D02*
X495401666Y-204615823D01*
X495401666Y-204615823D02*
X495368605Y-204698128D01*
X495368605Y-204698128D02*
X495329669Y-204798097D01*
X495329669Y-204798097D02*
X495289289Y-204904514D01*
X495289289Y-204904514D02*
X495245039Y-205020888D01*
X495245039Y-205020888D02*
X495204510Y-205123193D01*
X495204510Y-205123193D02*
X495166931Y-205213081D01*
X495166931Y-205213081D02*
X495131535Y-205292208D01*
X495131535Y-205292208D02*
X495097551Y-205362226D01*
X495097551Y-205362226D02*
X495064212Y-205424788D01*
X495064212Y-205424788D02*
X495030747Y-205481548D01*
X495030747Y-205481548D02*
X494996389Y-205534161D01*
X494996389Y-205534161D02*
X494949640Y-205596813D01*
X494949640Y-205596813D02*
X494896035Y-205658807D01*
X494896035Y-205658807D02*
X494836072Y-205719850D01*
X494836072Y-205719850D02*
X494770245Y-205779652D01*
X494770245Y-205779652D02*
X494699053Y-205837921D01*
X494699053Y-205837921D02*
X494622990Y-205894364D01*
X494622990Y-205894364D02*
X494542554Y-205948689D01*
X494542554Y-205948689D02*
X494458241Y-206000606D01*
X494458241Y-206000606D02*
X494370547Y-206049821D01*
X494370547Y-206049821D02*
X494279968Y-206096044D01*
X494279968Y-206096044D02*
X494187002Y-206138983D01*
X494187002Y-206138983D02*
X494092144Y-206178345D01*
X494092144Y-206178345D02*
X493995891Y-206213839D01*
X493995891Y-206213839D02*
X493898739Y-206245173D01*
X493898739Y-206245173D02*
X493801185Y-206272055D01*
X493801185Y-206272055D02*
X493703725Y-206294193D01*
X493703725Y-206294193D02*
X493703763Y-206294781D01*
X493703763Y-206294781D02*
X493703763Y-206294781D01*
G36*
X495031346Y-202670810D02*
G01*
X495082387Y-202672456D01*
X495103910Y-202674511D01*
X495110628Y-202696439D01*
X495125737Y-202754663D01*
X495173360Y-202948151D01*
X495231231Y-203191265D01*
X495283803Y-203420300D01*
X495351687Y-203740686D01*
X495407934Y-204037253D01*
X495429890Y-204166428D01*
X495446771Y-204277437D01*
X495457856Y-204366210D01*
X495462423Y-204428677D01*
X495462301Y-204434046D01*
X495461792Y-204440132D01*
X495460914Y-204446867D01*
X495459685Y-204454182D01*
X495458125Y-204462009D01*
X495456252Y-204470280D01*
X495454084Y-204478927D01*
X495451641Y-204487881D01*
X495448941Y-204497074D01*
X495446003Y-204506439D01*
X495442846Y-204515906D01*
X495439488Y-204525408D01*
X495435947Y-204534876D01*
X495432243Y-204544243D01*
X495428395Y-204553439D01*
X495424421Y-204562397D01*
X495414608Y-204584799D01*
X495401666Y-204615823D01*
X495368605Y-204698128D01*
X495329669Y-204798097D01*
X495289289Y-204904514D01*
X495245039Y-205020888D01*
X495204510Y-205123193D01*
X495166931Y-205213081D01*
X495131535Y-205292208D01*
X495097551Y-205362226D01*
X495064212Y-205424788D01*
X495030747Y-205481548D01*
X494996389Y-205534161D01*
X494949640Y-205596813D01*
X494896035Y-205658807D01*
X494836072Y-205719850D01*
X494770245Y-205779652D01*
X494699053Y-205837921D01*
X494622990Y-205894364D01*
X494542554Y-205948689D01*
X494458241Y-206000606D01*
X494370547Y-206049821D01*
X494279968Y-206096044D01*
X494187002Y-206138983D01*
X494092144Y-206178345D01*
X493995891Y-206213839D01*
X493898739Y-206245173D01*
X493801185Y-206272055D01*
X493703725Y-206294193D01*
X493703763Y-206294781D01*
X493639250Y-206307150D01*
X493575804Y-206317933D01*
X493513291Y-206327131D01*
X493451574Y-206334744D01*
X493390520Y-206340774D01*
X493329991Y-206345221D01*
X493269853Y-206348085D01*
X493209970Y-206349368D01*
X493150207Y-206349070D01*
X493090428Y-206347192D01*
X493030498Y-206343735D01*
X492970282Y-206338699D01*
X492909644Y-206332086D01*
X492848449Y-206323895D01*
X492786560Y-206314127D01*
X492723844Y-206302784D01*
X492625431Y-206282121D01*
X492530051Y-206258246D01*
X492437442Y-206231004D01*
X492347341Y-206200241D01*
X492259487Y-206165801D01*
X492173619Y-206127531D01*
X492089476Y-206085274D01*
X492006794Y-206038878D01*
X491925314Y-205988186D01*
X491844772Y-205933043D01*
X491764909Y-205873296D01*
X491685461Y-205808790D01*
X491606168Y-205739369D01*
X491526767Y-205664879D01*
X491446997Y-205585165D01*
X491366597Y-205500073D01*
X491333607Y-205463491D01*
X491301780Y-205426679D01*
X491270980Y-205389422D01*
X491241069Y-205351502D01*
X491211911Y-205312702D01*
X491183366Y-205272806D01*
X491155299Y-205231597D01*
X491127571Y-205188857D01*
X491100046Y-205144371D01*
X491072586Y-205097921D01*
X491045053Y-205049292D01*
X491017311Y-204998265D01*
X490989221Y-204944624D01*
X490960646Y-204888152D01*
X490901494Y-204765850D01*
X490869429Y-204695486D01*
X490830481Y-204606566D01*
X490746035Y-204407042D01*
X490676353Y-204235249D01*
X490655860Y-204180994D01*
X490650743Y-204165493D01*
X490649633Y-204159161D01*
X490650808Y-204157988D01*
X490653532Y-204155636D01*
X490663296Y-204147648D01*
X490697814Y-204120299D01*
X490747980Y-204081157D01*
X490808584Y-204034260D01*
X490966118Y-203915616D01*
X491118891Y-203806855D01*
X491267313Y-203707734D01*
X491411795Y-203618007D01*
X491552747Y-203537429D01*
X491622027Y-203500494D01*
X491690579Y-203465755D01*
X491758453Y-203433181D01*
X491825701Y-203402741D01*
X491892374Y-203374404D01*
X491958524Y-203348141D01*
X492075233Y-203305047D01*
X492215427Y-203256083D01*
X492376662Y-203202030D01*
X492556495Y-203143671D01*
X492962179Y-203017169D01*
X493412931Y-202882839D01*
X493824122Y-202763837D01*
X493960023Y-202727624D01*
X494016604Y-202714159D01*
X494067913Y-202703339D01*
X494115680Y-202694826D01*
X494161633Y-202688284D01*
X494207503Y-202683374D01*
X494255021Y-202679760D01*
X494361917Y-202675069D01*
X494496160Y-202671513D01*
X494671626Y-202669030D01*
X494868636Y-202668889D01*
X495031346Y-202670810D01*
G37*
X495031346Y-202670810D02*
X495082387Y-202672456D01*
X495103910Y-202674511D01*
X495110628Y-202696439D01*
X495125737Y-202754663D01*
X495173360Y-202948151D01*
X495231231Y-203191265D01*
X495283803Y-203420300D01*
X495351687Y-203740686D01*
X495407934Y-204037253D01*
X495429890Y-204166428D01*
X495446771Y-204277437D01*
X495457856Y-204366210D01*
X495462423Y-204428677D01*
X495462301Y-204434046D01*
X495461792Y-204440132D01*
X495460914Y-204446867D01*
X495459685Y-204454182D01*
X495458125Y-204462009D01*
X495456252Y-204470280D01*
X495454084Y-204478927D01*
X495451641Y-204487881D01*
X495448941Y-204497074D01*
X495446003Y-204506439D01*
X495442846Y-204515906D01*
X495439488Y-204525408D01*
X495435947Y-204534876D01*
X495432243Y-204544243D01*
X495428395Y-204553439D01*
X495424421Y-204562397D01*
X495414608Y-204584799D01*
X495401666Y-204615823D01*
X495368605Y-204698128D01*
X495329669Y-204798097D01*
X495289289Y-204904514D01*
X495245039Y-205020888D01*
X495204510Y-205123193D01*
X495166931Y-205213081D01*
X495131535Y-205292208D01*
X495097551Y-205362226D01*
X495064212Y-205424788D01*
X495030747Y-205481548D01*
X494996389Y-205534161D01*
X494949640Y-205596813D01*
X494896035Y-205658807D01*
X494836072Y-205719850D01*
X494770245Y-205779652D01*
X494699053Y-205837921D01*
X494622990Y-205894364D01*
X494542554Y-205948689D01*
X494458241Y-206000606D01*
X494370547Y-206049821D01*
X494279968Y-206096044D01*
X494187002Y-206138983D01*
X494092144Y-206178345D01*
X493995891Y-206213839D01*
X493898739Y-206245173D01*
X493801185Y-206272055D01*
X493703725Y-206294193D01*
X493703763Y-206294781D01*
X493639250Y-206307150D01*
X493575804Y-206317933D01*
X493513291Y-206327131D01*
X493451574Y-206334744D01*
X493390520Y-206340774D01*
X493329991Y-206345221D01*
X493269853Y-206348085D01*
X493209970Y-206349368D01*
X493150207Y-206349070D01*
X493090428Y-206347192D01*
X493030498Y-206343735D01*
X492970282Y-206338699D01*
X492909644Y-206332086D01*
X492848449Y-206323895D01*
X492786560Y-206314127D01*
X492723844Y-206302784D01*
X492625431Y-206282121D01*
X492530051Y-206258246D01*
X492437442Y-206231004D01*
X492347341Y-206200241D01*
X492259487Y-206165801D01*
X492173619Y-206127531D01*
X492089476Y-206085274D01*
X492006794Y-206038878D01*
X491925314Y-205988186D01*
X491844772Y-205933043D01*
X491764909Y-205873296D01*
X491685461Y-205808790D01*
X491606168Y-205739369D01*
X491526767Y-205664879D01*
X491446997Y-205585165D01*
X491366597Y-205500073D01*
X491333607Y-205463491D01*
X491301780Y-205426679D01*
X491270980Y-205389422D01*
X491241069Y-205351502D01*
X491211911Y-205312702D01*
X491183366Y-205272806D01*
X491155299Y-205231597D01*
X491127571Y-205188857D01*
X491100046Y-205144371D01*
X491072586Y-205097921D01*
X491045053Y-205049292D01*
X491017311Y-204998265D01*
X490989221Y-204944624D01*
X490960646Y-204888152D01*
X490901494Y-204765850D01*
X490869429Y-204695486D01*
X490830481Y-204606566D01*
X490746035Y-204407042D01*
X490676353Y-204235249D01*
X490655860Y-204180994D01*
X490650743Y-204165493D01*
X490649633Y-204159161D01*
X490650808Y-204157988D01*
X490653532Y-204155636D01*
X490663296Y-204147648D01*
X490697814Y-204120299D01*
X490747980Y-204081157D01*
X490808584Y-204034260D01*
X490966118Y-203915616D01*
X491118891Y-203806855D01*
X491267313Y-203707734D01*
X491411795Y-203618007D01*
X491552747Y-203537429D01*
X491622027Y-203500494D01*
X491690579Y-203465755D01*
X491758453Y-203433181D01*
X491825701Y-203402741D01*
X491892374Y-203374404D01*
X491958524Y-203348141D01*
X492075233Y-203305047D01*
X492215427Y-203256083D01*
X492376662Y-203202030D01*
X492556495Y-203143671D01*
X492962179Y-203017169D01*
X493412931Y-202882839D01*
X493824122Y-202763837D01*
X493960023Y-202727624D01*
X494016604Y-202714159D01*
X494067913Y-202703339D01*
X494115680Y-202694826D01*
X494161633Y-202688284D01*
X494207503Y-202683374D01*
X494255021Y-202679760D01*
X494361917Y-202675069D01*
X494496160Y-202671513D01*
X494671626Y-202669030D01*
X494868636Y-202668889D01*
X495031346Y-202670810D01*
D10*
X500428706Y-201131938D02*
X500405560Y-201091070D01*
X497337737Y-206159662D02*
X497335341Y-206130312D01*
X500544529Y-201449434D02*
X500520804Y-201367514D01*
X496529758Y-204665738D02*
X496517245Y-204657820D01*
X500725987Y-202311103D02*
X500715200Y-202230019D01*
X497379680Y-204444174D02*
X497450330Y-204486497D01*
X499738017Y-201018010D02*
X499663653Y-201032481D01*
D14*
X498991834Y-201452915D02*
X499319169Y-201350222D01*
X499319169Y-201350222D02*
X499422537Y-201319969D01*
X499422537Y-201319969D02*
X499499750Y-201300152D01*
X499499750Y-201300152D02*
X499561345Y-201288051D01*
X499561345Y-201288051D02*
X499617854Y-201280947D01*
X499617854Y-201280947D02*
X499757757Y-201270847D01*
X499757757Y-201270847D02*
X499816788Y-201267479D01*
X499816788Y-201267479D02*
X499878052Y-201265655D01*
X499878052Y-201265655D02*
X499939485Y-201265418D01*
X499939485Y-201265418D02*
X499999026Y-201266811D01*
X499999026Y-201266811D02*
X500054613Y-201269877D01*
X500054613Y-201269877D02*
X500104185Y-201274659D01*
X500104185Y-201274659D02*
X500126071Y-201277708D01*
X500126071Y-201277708D02*
X500145681Y-201281202D01*
X500145681Y-201281202D02*
X500162755Y-201285146D01*
X500162755Y-201285146D02*
X500177038Y-201289547D01*
X500177038Y-201289547D02*
X500192767Y-201296142D01*
X500192767Y-201296142D02*
X500207773Y-201304251D01*
X500207773Y-201304251D02*
X500222082Y-201313794D01*
X500222082Y-201313794D02*
X500235719Y-201324693D01*
X500235719Y-201324693D02*
X500248709Y-201336868D01*
X500248709Y-201336868D02*
X500261079Y-201350240D01*
X500261079Y-201350240D02*
X500272854Y-201364730D01*
X500272854Y-201364730D02*
X500284059Y-201380260D01*
X500284059Y-201380260D02*
X500294720Y-201396750D01*
X500294720Y-201396750D02*
X500304862Y-201414121D01*
X500304862Y-201414121D02*
X500323692Y-201451190D01*
X500323692Y-201451190D02*
X500340753Y-201490835D01*
X500340753Y-201490835D02*
X500356250Y-201532423D01*
X500356250Y-201532423D02*
X500370387Y-201575323D01*
X500370387Y-201575323D02*
X500383368Y-201618902D01*
X500383368Y-201618902D02*
X500406678Y-201705566D01*
X500406678Y-201705566D02*
X500427813Y-201787358D01*
X500427813Y-201787358D02*
X500438076Y-201824846D01*
X500438076Y-201824846D02*
X500448407Y-201859219D01*
X500448407Y-201859219D02*
X500486599Y-201978624D01*
X500486599Y-201978624D02*
X500505833Y-202043885D01*
X500505833Y-202043885D02*
X500514717Y-202077098D01*
X500514717Y-202077098D02*
X500522820Y-202110393D01*
X500522820Y-202110393D02*
X500529922Y-202143538D01*
X500529922Y-202143538D02*
X500535805Y-202176304D01*
X500535805Y-202176304D02*
X500540249Y-202208459D01*
X500540249Y-202208459D02*
X500543035Y-202239774D01*
X500543035Y-202239774D02*
X500543943Y-202270017D01*
X500543943Y-202270017D02*
X500542754Y-202298959D01*
X500542754Y-202298959D02*
X500539249Y-202326369D01*
X500539249Y-202326369D02*
X500536559Y-202339428D01*
X500536559Y-202339428D02*
X500533208Y-202352017D01*
X500533208Y-202352017D02*
X500531052Y-202357393D01*
X500531052Y-202357393D02*
X500528489Y-202360509D01*
X500528489Y-202360509D02*
X500525528Y-202361480D01*
X500525528Y-202361480D02*
X500522180Y-202360418D01*
X500522180Y-202360418D02*
X500518453Y-202357436D01*
X500518453Y-202357436D02*
X500514357Y-202352650D01*
X500514357Y-202352650D02*
X500505095Y-202338115D01*
X500505095Y-202338115D02*
X500494469Y-202317720D01*
X500494469Y-202317720D02*
X500482554Y-202292375D01*
X500482554Y-202292375D02*
X500455158Y-202230467D01*
X500455158Y-202230467D02*
X500423508Y-202159657D01*
X500423508Y-202159657D02*
X500406276Y-202123186D01*
X500406276Y-202123186D02*
X500388206Y-202087214D01*
X500388206Y-202087214D02*
X500369373Y-202052651D01*
X500369373Y-202052651D02*
X500349852Y-202020404D01*
X500349852Y-202020404D02*
X500329719Y-201991383D01*
X500329719Y-201991383D02*
X500319447Y-201978366D01*
X500319447Y-201978366D02*
X500309049Y-201966496D01*
X500309049Y-201966496D02*
X500217241Y-201867461D01*
X500217241Y-201867461D02*
X500165677Y-201814495D01*
X500165677Y-201814495D02*
X500138608Y-201788106D01*
X500138608Y-201788106D02*
X500110729Y-201762144D01*
X500110729Y-201762144D02*
X500082076Y-201736882D01*
X500082076Y-201736882D02*
X500052687Y-201712593D01*
X500052687Y-201712593D02*
X500022596Y-201689551D01*
X500022596Y-201689551D02*
X499991842Y-201668028D01*
X499991842Y-201668028D02*
X499960460Y-201648298D01*
X499960460Y-201648298D02*
X499928487Y-201630634D01*
X499928487Y-201630634D02*
X499912290Y-201622662D01*
X499912290Y-201622662D02*
X499895959Y-201615309D01*
X499895959Y-201615309D02*
X499879498Y-201608609D01*
X499879498Y-201608609D02*
X499862912Y-201602596D01*
X499862912Y-201602596D02*
X499829046Y-201592391D01*
X499829046Y-201592391D02*
X499794162Y-201584285D01*
X499794162Y-201584285D02*
X499758452Y-201578073D01*
X499758452Y-201578073D02*
X499722111Y-201573544D01*
X499722111Y-201573544D02*
X499685331Y-201570491D01*
X499685331Y-201570491D02*
X499648305Y-201568706D01*
X499648305Y-201568706D02*
X499611228Y-201567981D01*
X499611228Y-201567981D02*
X499574292Y-201568108D01*
X499574292Y-201568108D02*
X499501618Y-201570083D01*
X499501618Y-201570083D02*
X499431830Y-201572966D01*
X499431830Y-201572966D02*
X499366474Y-201575091D01*
X499366474Y-201575091D02*
X499335941Y-201575350D01*
X499335941Y-201575350D02*
X499307096Y-201574795D01*
X499307096Y-201574795D02*
X499241866Y-201573050D01*
X499241866Y-201573050D02*
X499169411Y-201572047D01*
X499169411Y-201572047D02*
X499012499Y-201570691D01*
X499012499Y-201570691D02*
X498932880Y-201569546D01*
X498932880Y-201569546D02*
X498855709Y-201567563D01*
X498855709Y-201567563D02*
X498783406Y-201564345D01*
X498783406Y-201564345D02*
X498718389Y-201559498D01*
X498718389Y-201559498D02*
X498711655Y-201558585D01*
X498711655Y-201558585D02*
X498706840Y-201557359D01*
X498706840Y-201557359D02*
X498703850Y-201555834D01*
X498703850Y-201555834D02*
X498702593Y-201554027D01*
X498702593Y-201554027D02*
X498702975Y-201551953D01*
X498702975Y-201551953D02*
X498704903Y-201549628D01*
X498704903Y-201549628D02*
X498708284Y-201547068D01*
X498708284Y-201547068D02*
X498713023Y-201544290D01*
X498713023Y-201544290D02*
X498726206Y-201538138D01*
X498726206Y-201538138D02*
X498743705Y-201531300D01*
X498743705Y-201531300D02*
X498788667Y-201516070D01*
X498788667Y-201516070D02*
X498897539Y-201482937D01*
X498897539Y-201482937D02*
X498949504Y-201467060D01*
X498949504Y-201467060D02*
X498991857Y-201452992D01*
X498991857Y-201452992D02*
X498991834Y-201452915D01*
X498991834Y-201452915D02*
X498991834Y-201452915D01*
G36*
X499999026Y-201266811D02*
G01*
X500054613Y-201269877D01*
X500104185Y-201274659D01*
X500126071Y-201277708D01*
X500145681Y-201281202D01*
X500162755Y-201285146D01*
X500177038Y-201289547D01*
X500192767Y-201296142D01*
X500207773Y-201304251D01*
X500222082Y-201313794D01*
X500235719Y-201324693D01*
X500248709Y-201336868D01*
X500261079Y-201350240D01*
X500272854Y-201364730D01*
X500284059Y-201380260D01*
X500294720Y-201396750D01*
X500304862Y-201414121D01*
X500323692Y-201451190D01*
X500340753Y-201490835D01*
X500356250Y-201532423D01*
X500370387Y-201575323D01*
X500383368Y-201618902D01*
X500406678Y-201705566D01*
X500427813Y-201787358D01*
X500438076Y-201824846D01*
X500448407Y-201859219D01*
X500486599Y-201978624D01*
X500505833Y-202043885D01*
X500514717Y-202077098D01*
X500522820Y-202110393D01*
X500529922Y-202143538D01*
X500535805Y-202176304D01*
X500540249Y-202208459D01*
X500543035Y-202239774D01*
X500543943Y-202270017D01*
X500542754Y-202298959D01*
X500539249Y-202326369D01*
X500536559Y-202339428D01*
X500533208Y-202352017D01*
X500531052Y-202357393D01*
X500528489Y-202360509D01*
X500525528Y-202361480D01*
X500522180Y-202360418D01*
X500518453Y-202357436D01*
X500514357Y-202352650D01*
X500505095Y-202338115D01*
X500494469Y-202317720D01*
X500482554Y-202292375D01*
X500455158Y-202230467D01*
X500423508Y-202159657D01*
X500406276Y-202123186D01*
X500388206Y-202087214D01*
X500369373Y-202052651D01*
X500349852Y-202020404D01*
X500329719Y-201991383D01*
X500319447Y-201978366D01*
X500309049Y-201966496D01*
X500217241Y-201867461D01*
X500165677Y-201814495D01*
X500138608Y-201788106D01*
X500110729Y-201762144D01*
X500082076Y-201736882D01*
X500052687Y-201712593D01*
X500022596Y-201689551D01*
X499991842Y-201668028D01*
X499960460Y-201648298D01*
X499928487Y-201630634D01*
X499912290Y-201622662D01*
X499895959Y-201615309D01*
X499879498Y-201608609D01*
X499862912Y-201602596D01*
X499829046Y-201592391D01*
X499794162Y-201584285D01*
X499758452Y-201578073D01*
X499722111Y-201573544D01*
X499685331Y-201570491D01*
X499648305Y-201568706D01*
X499611228Y-201567981D01*
X499574292Y-201568108D01*
X499501618Y-201570083D01*
X499431830Y-201572966D01*
X499366474Y-201575091D01*
X499335941Y-201575350D01*
X499307096Y-201574795D01*
X499241866Y-201573050D01*
X499169411Y-201572047D01*
X499012499Y-201570691D01*
X498932880Y-201569546D01*
X498855709Y-201567563D01*
X498783406Y-201564345D01*
X498718389Y-201559498D01*
X498711655Y-201558585D01*
X498706840Y-201557359D01*
X498703850Y-201555834D01*
X498702593Y-201554027D01*
X498702975Y-201551953D01*
X498704903Y-201549628D01*
X498708284Y-201547068D01*
X498713023Y-201544290D01*
X498726206Y-201538138D01*
X498743705Y-201531300D01*
X498788667Y-201516070D01*
X498897539Y-201482937D01*
X498949504Y-201467060D01*
X498991857Y-201452992D01*
X498991834Y-201452915D01*
X499319169Y-201350222D01*
X499422537Y-201319969D01*
X499499750Y-201300152D01*
X499561345Y-201288051D01*
X499617854Y-201280947D01*
X499757757Y-201270847D01*
X499816788Y-201267479D01*
X499878052Y-201265655D01*
X499939485Y-201265418D01*
X499999026Y-201266811D01*
G37*
X499999026Y-201266811D02*
X500054613Y-201269877D01*
X500104185Y-201274659D01*
X500126071Y-201277708D01*
X500145681Y-201281202D01*
X500162755Y-201285146D01*
X500177038Y-201289547D01*
X500192767Y-201296142D01*
X500207773Y-201304251D01*
X500222082Y-201313794D01*
X500235719Y-201324693D01*
X500248709Y-201336868D01*
X500261079Y-201350240D01*
X500272854Y-201364730D01*
X500284059Y-201380260D01*
X500294720Y-201396750D01*
X500304862Y-201414121D01*
X500323692Y-201451190D01*
X500340753Y-201490835D01*
X500356250Y-201532423D01*
X500370387Y-201575323D01*
X500383368Y-201618902D01*
X500406678Y-201705566D01*
X500427813Y-201787358D01*
X500438076Y-201824846D01*
X500448407Y-201859219D01*
X500486599Y-201978624D01*
X500505833Y-202043885D01*
X500514717Y-202077098D01*
X500522820Y-202110393D01*
X500529922Y-202143538D01*
X500535805Y-202176304D01*
X500540249Y-202208459D01*
X500543035Y-202239774D01*
X500543943Y-202270017D01*
X500542754Y-202298959D01*
X500539249Y-202326369D01*
X500536559Y-202339428D01*
X500533208Y-202352017D01*
X500531052Y-202357393D01*
X500528489Y-202360509D01*
X500525528Y-202361480D01*
X500522180Y-202360418D01*
X500518453Y-202357436D01*
X500514357Y-202352650D01*
X500505095Y-202338115D01*
X500494469Y-202317720D01*
X500482554Y-202292375D01*
X500455158Y-202230467D01*
X500423508Y-202159657D01*
X500406276Y-202123186D01*
X500388206Y-202087214D01*
X500369373Y-202052651D01*
X500349852Y-202020404D01*
X500329719Y-201991383D01*
X500319447Y-201978366D01*
X500309049Y-201966496D01*
X500217241Y-201867461D01*
X500165677Y-201814495D01*
X500138608Y-201788106D01*
X500110729Y-201762144D01*
X500082076Y-201736882D01*
X500052687Y-201712593D01*
X500022596Y-201689551D01*
X499991842Y-201668028D01*
X499960460Y-201648298D01*
X499928487Y-201630634D01*
X499912290Y-201622662D01*
X499895959Y-201615309D01*
X499879498Y-201608609D01*
X499862912Y-201602596D01*
X499829046Y-201592391D01*
X499794162Y-201584285D01*
X499758452Y-201578073D01*
X499722111Y-201573544D01*
X499685331Y-201570491D01*
X499648305Y-201568706D01*
X499611228Y-201567981D01*
X499574292Y-201568108D01*
X499501618Y-201570083D01*
X499431830Y-201572966D01*
X499366474Y-201575091D01*
X499335941Y-201575350D01*
X499307096Y-201574795D01*
X499241866Y-201573050D01*
X499169411Y-201572047D01*
X499012499Y-201570691D01*
X498932880Y-201569546D01*
X498855709Y-201567563D01*
X498783406Y-201564345D01*
X498718389Y-201559498D01*
X498711655Y-201558585D01*
X498706840Y-201557359D01*
X498703850Y-201555834D01*
X498702593Y-201554027D01*
X498702975Y-201551953D01*
X498704903Y-201549628D01*
X498708284Y-201547068D01*
X498713023Y-201544290D01*
X498726206Y-201538138D01*
X498743705Y-201531300D01*
X498788667Y-201516070D01*
X498897539Y-201482937D01*
X498949504Y-201467060D01*
X498991857Y-201452992D01*
X498991834Y-201452915D01*
X499319169Y-201350222D01*
X499422537Y-201319969D01*
X499499750Y-201300152D01*
X499561345Y-201288051D01*
X499617854Y-201280947D01*
X499757757Y-201270847D01*
X499816788Y-201267479D01*
X499878052Y-201265655D01*
X499939485Y-201265418D01*
X499999026Y-201266811D01*
D10*
X497255497Y-205771259D02*
X497237776Y-205693652D01*
X496046860Y-204878366D02*
X496022525Y-204912272D01*
X494600082Y-205983597D02*
X494676686Y-205930700D01*
X496954496Y-205156048D02*
X496945819Y-205143461D01*
X494693937Y-210116810D02*
X494693937Y-210116810D01*
X500654794Y-201902037D02*
X500621871Y-201756065D01*
X488758043Y-200050994D02*
X488614984Y-200266508D01*
X497181217Y-204290259D02*
X497245242Y-204345818D01*
X495844070Y-205499732D02*
X495843699Y-205564394D01*
X496711198Y-204837986D02*
X496691526Y-204814457D01*
X492064585Y-203267667D02*
X491893590Y-203331593D01*
X500433298Y-207415542D02*
X500416190Y-207322704D01*
X498999183Y-198742247D02*
X498859039Y-198608992D01*
X490021556Y-198688695D02*
X489814552Y-198870700D01*
X496175429Y-204741615D02*
X496149350Y-204764667D01*
X498109578Y-204658513D02*
X498165353Y-204660961D01*
X490728737Y-204507779D02*
X490813884Y-204706000D01*
X500739263Y-202529072D02*
X500738563Y-202462073D01*
X500416190Y-207322704D02*
X500403626Y-207229222D01*
X500271414Y-204053889D02*
X500337386Y-204008319D01*
X494611970Y-210002590D02*
X494655827Y-210068070D01*
X500558044Y-203797010D02*
X500580156Y-203766836D01*
X496791899Y-204947798D02*
X496765064Y-204912102D01*
X488330235Y-205921130D02*
X488452448Y-206218689D01*
X500128560Y-204137997D02*
X500201707Y-204097035D01*
X499313619Y-201618466D02*
X500140241Y-202245869D01*
X505127172Y-205723881D02*
X503186132Y-204063458D01*
X493463531Y-208590807D02*
X493524351Y-208627312D01*
X498857398Y-204588407D02*
X498954268Y-204569791D01*
X497758580Y-204604557D02*
X497758580Y-204604557D01*
X494889974Y-205753575D02*
X494938920Y-205703597D01*
X494506421Y-197030827D02*
X494208627Y-197060934D01*
X495519726Y-204445741D02*
X495519460Y-204432017D01*
X500107731Y-201631957D02*
X500098998Y-201614297D01*
X495852143Y-205711372D02*
X495859617Y-205788507D01*
X492971705Y-206401380D02*
X493055863Y-206407089D01*
X497311773Y-206372776D02*
X497321841Y-206330847D01*
X496553718Y-207029429D02*
X496608798Y-207025104D01*
X496364751Y-204631191D02*
X496344513Y-204638002D01*
X492865474Y-208471438D02*
X492921994Y-208455451D01*
X500594155Y-206463743D02*
X500660079Y-206398774D01*
X496864558Y-205040758D02*
X496825025Y-204990764D01*
X490662972Y-204344321D02*
X490728737Y-204507779D01*
X500198787Y-200909571D02*
X500163251Y-200817005D01*
X500110640Y-201564112D02*
X500121357Y-201558698D01*
X495856107Y-202459645D02*
X495691366Y-202507449D01*
X495843699Y-205564394D02*
X495846334Y-205631573D01*
X506857740Y-204063458D02*
X506857740Y-204063458D01*
X491918034Y-197582886D02*
X491653317Y-197686492D01*
X500257766Y-201482841D02*
X500270363Y-201463538D01*
X498859039Y-198608992D02*
X498712019Y-198480471D01*
X493829111Y-206322224D02*
X493919413Y-206296766D01*
X494145046Y-209260000D02*
X494228796Y-209381164D01*
X489245190Y-199439306D02*
X489073372Y-199637831D01*
X487814695Y-202836597D02*
X487815313Y-203163624D01*
X494097843Y-206236749D02*
X494185536Y-206202182D01*
X500228212Y-200993673D02*
X500198787Y-200909571D01*
X495433298Y-204706198D02*
X495444115Y-204682945D01*
X497245242Y-204345818D02*
X497311357Y-204397202D01*
X497039595Y-206860988D02*
X497056851Y-206844293D01*
X499830643Y-199974655D02*
X499759167Y-199823714D01*
X491386477Y-203590354D02*
X491295748Y-203646273D01*
X496073396Y-206655854D02*
X496130208Y-206818714D01*
X496729955Y-203723957D02*
X496729955Y-203723957D01*
X500687358Y-202063870D02*
X500654794Y-201902037D01*
X492475117Y-206309514D02*
X492556187Y-206331503D01*
X497538154Y-201599931D02*
X497384237Y-201656590D01*
X500121357Y-201558698D02*
X500148128Y-201549062D01*
X496864751Y-206969021D02*
X496864751Y-206969021D01*
X499665853Y-199636845D02*
X499665815Y-199636540D01*
X500201707Y-204097035D02*
X500271414Y-204053889D01*
X496276597Y-204670250D02*
X496252110Y-204685008D01*
X497203507Y-206643833D02*
X497226902Y-206598994D01*
X493401319Y-208558079D02*
X493401319Y-208558079D01*
X500195897Y-201531159D02*
X500212323Y-201522556D01*
X495066827Y-205538218D02*
X495103963Y-205478735D01*
X496965987Y-201874101D02*
X496897293Y-201919165D01*
X492747753Y-197325368D02*
X492465928Y-197402539D01*
X496140258Y-206843833D02*
X496151987Y-206867090D01*
X494821849Y-205815693D02*
X494889974Y-205753575D01*
X490449050Y-198347444D02*
X490236791Y-198509724D01*
X497159168Y-205445308D02*
X497144712Y-205415057D01*
X492731666Y-208519817D02*
X492802554Y-208492894D01*
X499942434Y-200987553D02*
X499877033Y-200995418D01*
X491046832Y-209196313D02*
X491100707Y-209188586D01*
X498316211Y-204656728D02*
X498363302Y-204652404D01*
X496580187Y-203442393D02*
X496630278Y-203545081D01*
X494938920Y-205703597D02*
X494984548Y-205650887D01*
X496504653Y-204650496D02*
X496492014Y-204643836D01*
X500399200Y-206951261D02*
X500410818Y-206861555D01*
X500686408Y-202840983D02*
X500663740Y-202728952D01*
X499665853Y-199636845D02*
X499665853Y-199636845D01*
X500162923Y-201707905D02*
X500139312Y-201678333D01*
X494984548Y-205650887D02*
X495027103Y-205595681D01*
X488219959Y-205603020D02*
X488330235Y-205921130D01*
X488386998Y-205827755D02*
X490605565Y-204192356D01*
X496273991Y-206982342D02*
X496296104Y-206992667D01*
X500228364Y-201511922D02*
X500243639Y-201498826D01*
X495411321Y-204759174D02*
X495411321Y-204759174D01*
X497985667Y-204646124D02*
X498049912Y-204653662D01*
X494055647Y-209139665D02*
X494145046Y-209260000D01*
X500163251Y-200817005D02*
X500163251Y-200817005D01*
X494192458Y-202653986D02*
X494102615Y-202663151D01*
X497015987Y-205246876D02*
X497006019Y-205233950D01*
X497758580Y-204604557D02*
X497840689Y-204621856D01*
X500470608Y-201224242D02*
X500450426Y-201176809D01*
X498065842Y-198015367D02*
X497715355Y-197813363D01*
X503186132Y-204063458D02*
X506857740Y-204063458D01*
X501222551Y-206167218D02*
X501266508Y-206142902D01*
X500303343Y-201894917D02*
X500235673Y-201800164D01*
X496885849Y-206961362D02*
X496906543Y-206952502D01*
X493583777Y-208667319D02*
X493641808Y-208710553D01*
X500300939Y-200996433D02*
X500243351Y-200987641D01*
X496201360Y-204720670D02*
X496175429Y-204741615D01*
X497197367Y-201741521D02*
X497114870Y-201785151D01*
X500564580Y-201528797D02*
X500544529Y-201449434D01*
X497384237Y-201656590D02*
X497384237Y-201656590D01*
X496333425Y-202276976D02*
X496243849Y-202319449D01*
X500394530Y-207042864D02*
X500399200Y-206951261D01*
D15*
X496683820Y-206878742D02*
X496655087Y-206883705D01*
X496655087Y-206883705D02*
X496627083Y-206887829D01*
X496627083Y-206887829D02*
X496599838Y-206891118D01*
X496599838Y-206891118D02*
X496573381Y-206893573D01*
X496573381Y-206893573D02*
X496547745Y-206895194D01*
X496547745Y-206895194D02*
X496522960Y-206895985D01*
X496522960Y-206895985D02*
X496499055Y-206895946D01*
X496499055Y-206895946D02*
X496476062Y-206895080D01*
X496476062Y-206895080D02*
X496454011Y-206893387D01*
X496454011Y-206893387D02*
X496432933Y-206890870D01*
X496432933Y-206890870D02*
X496412858Y-206887529D01*
X496412858Y-206887529D02*
X496393817Y-206883368D01*
X496393817Y-206883368D02*
X496375841Y-206878386D01*
X496375841Y-206878386D02*
X496358959Y-206872587D01*
X496358959Y-206872587D02*
X496343203Y-206865971D01*
X496343203Y-206865971D02*
X496328603Y-206858540D01*
X496328603Y-206858540D02*
X496323976Y-206855896D01*
X496323976Y-206855896D02*
X496319571Y-206853246D01*
X496319571Y-206853246D02*
X496315375Y-206850575D01*
X496315375Y-206850575D02*
X496311374Y-206847873D01*
X496311374Y-206847873D02*
X496307554Y-206845127D01*
X496307554Y-206845127D02*
X496303902Y-206842324D01*
X496303902Y-206842324D02*
X496300402Y-206839453D01*
X496300402Y-206839453D02*
X496297042Y-206836502D01*
X496297042Y-206836502D02*
X496293807Y-206833458D01*
X496293807Y-206833458D02*
X496290684Y-206830310D01*
X496290684Y-206830310D02*
X496287658Y-206827044D01*
X496287658Y-206827044D02*
X496284716Y-206823650D01*
X496284716Y-206823650D02*
X496281843Y-206820114D01*
X496281843Y-206820114D02*
X496279026Y-206816424D01*
X496279026Y-206816424D02*
X496276251Y-206812569D01*
X496276251Y-206812569D02*
X496273504Y-206808537D01*
X496273504Y-206808537D02*
X496271295Y-206804836D01*
X496271295Y-206804836D02*
X496268692Y-206799738D01*
X496268692Y-206799738D02*
X496265658Y-206793135D01*
X496265658Y-206793135D02*
X496262152Y-206784920D01*
X496262152Y-206784920D02*
X496253566Y-206763233D01*
X496253566Y-206763233D02*
X496242621Y-206733825D01*
X496242621Y-206733825D02*
X496229001Y-206695843D01*
X496229001Y-206695843D02*
X496212391Y-206648436D01*
X496212391Y-206648436D02*
X496192477Y-206590751D01*
X496192477Y-206590751D02*
X496168943Y-206521938D01*
X496168943Y-206521938D02*
X496155102Y-206479642D01*
X496155102Y-206479642D02*
X496138640Y-206426706D01*
X496138640Y-206426706D02*
X496102416Y-206304690D01*
X496102416Y-206304690D02*
X496069394Y-206187431D01*
X496069394Y-206187431D02*
X496056934Y-206140442D01*
X496056934Y-206140442D02*
X496048696Y-206106472D01*
X496048696Y-206106472D02*
X496034385Y-206038339D01*
X496034385Y-206038339D02*
X496021673Y-205971318D01*
X496021673Y-205971318D02*
X496010557Y-205905379D01*
X496010557Y-205905379D02*
X496001034Y-205840493D01*
X496001034Y-205840493D02*
X495993100Y-205776631D01*
X495993100Y-205776631D02*
X495986751Y-205713761D01*
X495986751Y-205713761D02*
X495981984Y-205651856D01*
X495981984Y-205651856D02*
X495978795Y-205590885D01*
X495978795Y-205590885D02*
X495977855Y-205553465D01*
X495977855Y-205553465D02*
X495978031Y-205516394D01*
X495978031Y-205516394D02*
X495979316Y-205479706D01*
X495979316Y-205479706D02*
X495981703Y-205443432D01*
X495981703Y-205443432D02*
X495985187Y-205407605D01*
X495985187Y-205407605D02*
X495989760Y-205372259D01*
X495989760Y-205372259D02*
X495995415Y-205337426D01*
X495995415Y-205337426D02*
X496002146Y-205303139D01*
X496002146Y-205303139D02*
X496009946Y-205269430D01*
X496009946Y-205269430D02*
X496018808Y-205236333D01*
X496018808Y-205236333D02*
X496028726Y-205203880D01*
X496028726Y-205203880D02*
X496039693Y-205172104D01*
X496039693Y-205172104D02*
X496051702Y-205141038D01*
X496051702Y-205141038D02*
X496064747Y-205110715D01*
X496064747Y-205110715D02*
X496078820Y-205081166D01*
X496078820Y-205081166D02*
X496093915Y-205052426D01*
X496093915Y-205052426D02*
X496108219Y-205027602D01*
X496108219Y-205027602D02*
X496123477Y-205003318D01*
X496123477Y-205003318D02*
X496139610Y-204979650D01*
X496139610Y-204979650D02*
X496156539Y-204956674D01*
X496156539Y-204956674D02*
X496174187Y-204934467D01*
X496174187Y-204934467D02*
X496192474Y-204913104D01*
X496192474Y-204913104D02*
X496211321Y-204892662D01*
X496211321Y-204892662D02*
X496230649Y-204873217D01*
X496230649Y-204873217D02*
X496250380Y-204854845D01*
X496250380Y-204854845D02*
X496270435Y-204837622D01*
X496270435Y-204837622D02*
X496290736Y-204821624D01*
X496290736Y-204821624D02*
X496311202Y-204806928D01*
X496311202Y-204806928D02*
X496331756Y-204793610D01*
X496331756Y-204793610D02*
X496352319Y-204781746D01*
X496352319Y-204781746D02*
X496372812Y-204771412D01*
X496372812Y-204771412D02*
X496393155Y-204762684D01*
X496393155Y-204762684D02*
X496414052Y-204754681D01*
X496414052Y-204754681D02*
X496441953Y-204770382D01*
X496441953Y-204770382D02*
X496448610Y-204774262D01*
X496448610Y-204774262D02*
X496455348Y-204778445D01*
X496455348Y-204778445D02*
X496462170Y-204782934D01*
X496462170Y-204782934D02*
X496469083Y-204787733D01*
X496469083Y-204787733D02*
X496476091Y-204792848D01*
X496476091Y-204792848D02*
X496483200Y-204798282D01*
X496483200Y-204798282D02*
X496490414Y-204804040D01*
X496490414Y-204804040D02*
X496497739Y-204810126D01*
X496497739Y-204810126D02*
X496505180Y-204816545D01*
X496505180Y-204816545D02*
X496512742Y-204823301D01*
X496512742Y-204823301D02*
X496520430Y-204830397D01*
X496520430Y-204830397D02*
X496528249Y-204837840D01*
X496528249Y-204837840D02*
X496536205Y-204845632D01*
X496536205Y-204845632D02*
X496544302Y-204853778D01*
X496544302Y-204853778D02*
X496560941Y-204871151D01*
X496560941Y-204871151D02*
X496573780Y-204884863D01*
X496573780Y-204884863D02*
X496584001Y-204895973D01*
X496584001Y-204895973D02*
X496588542Y-204901065D01*
X496588542Y-204901065D02*
X496592923Y-204906124D01*
X496592923Y-204906124D02*
X496597309Y-204911354D01*
X496597309Y-204911354D02*
X496601866Y-204916962D01*
X496601866Y-204916962D02*
X496606758Y-204923152D01*
X496606758Y-204923152D02*
X496612150Y-204930130D01*
X496612150Y-204930130D02*
X496625094Y-204947272D01*
X496625094Y-204947272D02*
X496664243Y-205000057D01*
X496664243Y-205000057D02*
X496687426Y-205030865D01*
X496687426Y-205030865D02*
X496715605Y-205067565D01*
X496715605Y-205067565D02*
X496745228Y-205105551D01*
X496745228Y-205105551D02*
X496772741Y-205140217D01*
X496772741Y-205140217D02*
X496799857Y-205174636D01*
X496799857Y-205174636D02*
X496824666Y-205207209D01*
X496824666Y-205207209D02*
X496835720Y-205222156D01*
X496835720Y-205222156D02*
X496845613Y-205235865D01*
X496845613Y-205235865D02*
X496854152Y-205248077D01*
X496854152Y-205248077D02*
X496861142Y-205258534D01*
X496861142Y-205258534D02*
X496873260Y-205277065D01*
X496873260Y-205277065D02*
X496884532Y-205293709D01*
X496884532Y-205293709D02*
X496895359Y-205308984D01*
X496895359Y-205308984D02*
X496906142Y-205323411D01*
X496906142Y-205323411D02*
X496917281Y-205337511D01*
X496917281Y-205337511D02*
X496929177Y-205351805D01*
X496929177Y-205351805D02*
X496942232Y-205366812D01*
X496942232Y-205366812D02*
X496956846Y-205383053D01*
X496956846Y-205383053D02*
X496963635Y-205390601D01*
X496963635Y-205390601D02*
X496970456Y-205398328D01*
X496970456Y-205398328D02*
X496977125Y-205406017D01*
X496977125Y-205406017D02*
X496983458Y-205413453D01*
X496983458Y-205413453D02*
X496989270Y-205420421D01*
X496989270Y-205420421D02*
X496994378Y-205426703D01*
X496994378Y-205426703D02*
X496998598Y-205432086D01*
X496998598Y-205432086D02*
X497001745Y-205436352D01*
X497001745Y-205436352D02*
X497009689Y-205448373D01*
X497009689Y-205448373D02*
X497017619Y-205461893D01*
X497017619Y-205461893D02*
X497025533Y-205476898D01*
X497025533Y-205476898D02*
X497033425Y-205493375D01*
X497033425Y-205493375D02*
X497041292Y-205511311D01*
X497041292Y-205511311D02*
X497049129Y-205530694D01*
X497049129Y-205530694D02*
X497056933Y-205551511D01*
X497056933Y-205551511D02*
X497064700Y-205573749D01*
X497064700Y-205573749D02*
X497072426Y-205597394D01*
X497072426Y-205597394D02*
X497080106Y-205622435D01*
X497080106Y-205622435D02*
X497087737Y-205648857D01*
X497087737Y-205648857D02*
X497095315Y-205676649D01*
X497095315Y-205676649D02*
X497102835Y-205705797D01*
X497102835Y-205705797D02*
X497110294Y-205736289D01*
X497110294Y-205736289D02*
X497125013Y-205801251D01*
X497125013Y-205801251D02*
X497135859Y-205850428D01*
X497135859Y-205850428D02*
X497148572Y-205905701D01*
X497148572Y-205905701D02*
X497163780Y-205969751D01*
X497163780Y-205969751D02*
X497182111Y-206045262D01*
X497182111Y-206045262D02*
X497187966Y-206069794D01*
X497187966Y-206069794D02*
X497192765Y-206091350D01*
X497192765Y-206091350D02*
X497196597Y-206110504D01*
X497196597Y-206110504D02*
X497199549Y-206127831D01*
X497199549Y-206127831D02*
X497201709Y-206143906D01*
X497201709Y-206143906D02*
X497203164Y-206159305D01*
X497203164Y-206159305D02*
X497204003Y-206174602D01*
X497204003Y-206174602D02*
X497204313Y-206190373D01*
X497204313Y-206190373D02*
X497203874Y-206209474D01*
X497203874Y-206209474D02*
X497202426Y-206229623D01*
X497202426Y-206229623D02*
X497199997Y-206250716D01*
X497199997Y-206250716D02*
X497196619Y-206272650D01*
X497196619Y-206272650D02*
X497192323Y-206295323D01*
X497192323Y-206295323D02*
X497187139Y-206318630D01*
X497187139Y-206318630D02*
X497181098Y-206342469D01*
X497181098Y-206342469D02*
X497174230Y-206366737D01*
X497174230Y-206366737D02*
X497166567Y-206391330D01*
X497166567Y-206391330D02*
X497158138Y-206416146D01*
X497158138Y-206416146D02*
X497148976Y-206441082D01*
X497148976Y-206441082D02*
X497139109Y-206466034D01*
X497139109Y-206466034D02*
X497128570Y-206490900D01*
X497128570Y-206490900D02*
X497117388Y-206515575D01*
X497117388Y-206515575D02*
X497105595Y-206539959D01*
X497105595Y-206539959D02*
X497093221Y-206563946D01*
X497093221Y-206563946D02*
X497081089Y-206586153D01*
X497081089Y-206586153D02*
X497068868Y-206607410D01*
X497068868Y-206607410D02*
X497056543Y-206627734D01*
X497056543Y-206627734D02*
X497044097Y-206647144D01*
X497044097Y-206647144D02*
X497031514Y-206665661D01*
X497031514Y-206665661D02*
X497018778Y-206683302D01*
X497018778Y-206683302D02*
X497005873Y-206700086D01*
X497005873Y-206700086D02*
X496992783Y-206716032D01*
X496992783Y-206716032D02*
X496979491Y-206731160D01*
X496979491Y-206731160D02*
X496965982Y-206745488D01*
X496965982Y-206745488D02*
X496952239Y-206759034D01*
X496952239Y-206759034D02*
X496938246Y-206771819D01*
X496938246Y-206771819D02*
X496923987Y-206783861D01*
X496923987Y-206783861D02*
X496909446Y-206795178D01*
X496909446Y-206795178D02*
X496894607Y-206805790D01*
X496894607Y-206805790D02*
X496879453Y-206815716D01*
X496879453Y-206815716D02*
X496875556Y-206818138D01*
X496875556Y-206818138D02*
X496871924Y-206820333D01*
X496871924Y-206820333D02*
X496868438Y-206822344D01*
X496868438Y-206822344D02*
X496864982Y-206824218D01*
X496864982Y-206824218D02*
X496861438Y-206825997D01*
X496861438Y-206825997D02*
X496857689Y-206827727D01*
X496857689Y-206827727D02*
X496853617Y-206829453D01*
X496853617Y-206829453D02*
X496849104Y-206831218D01*
X496849104Y-206831218D02*
X496844034Y-206833067D01*
X496844034Y-206833067D02*
X496838288Y-206835046D01*
X496838288Y-206835046D02*
X496831750Y-206837198D01*
X496831750Y-206837198D02*
X496824301Y-206839567D01*
X496824301Y-206839567D02*
X496806204Y-206845138D01*
X496806204Y-206845138D02*
X496783056Y-206852116D01*
X496783056Y-206852116D02*
X496752510Y-206861098D01*
X496752510Y-206861098D02*
X496723632Y-206869153D01*
X496723632Y-206869153D02*
X496699667Y-206875390D01*
X496699667Y-206875390D02*
X496690540Y-206877548D01*
X496690540Y-206877548D02*
X496683858Y-206878918D01*
X496683858Y-206878918D02*
X496683820Y-206878742D01*
X496683820Y-206878742D02*
X496683820Y-206878742D01*
G36*
X496441953Y-204770382D02*
G01*
X496448610Y-204774262D01*
X496455348Y-204778445D01*
X496462170Y-204782934D01*
X496469083Y-204787733D01*
X496476091Y-204792848D01*
X496483200Y-204798282D01*
X496490414Y-204804040D01*
X496497739Y-204810126D01*
X496505180Y-204816545D01*
X496512742Y-204823301D01*
X496520430Y-204830397D01*
X496528249Y-204837840D01*
X496536205Y-204845632D01*
X496544302Y-204853778D01*
X496560941Y-204871151D01*
X496573780Y-204884863D01*
X496584001Y-204895973D01*
X496588542Y-204901065D01*
X496592923Y-204906124D01*
X496597309Y-204911354D01*
X496601866Y-204916962D01*
X496606758Y-204923152D01*
X496612150Y-204930130D01*
X496625094Y-204947272D01*
X496664243Y-205000057D01*
X496687426Y-205030865D01*
X496715605Y-205067565D01*
X496745228Y-205105551D01*
X496772741Y-205140217D01*
X496799857Y-205174636D01*
X496824666Y-205207209D01*
X496835720Y-205222156D01*
X496845613Y-205235865D01*
X496854152Y-205248077D01*
X496861142Y-205258534D01*
X496873260Y-205277065D01*
X496884532Y-205293709D01*
X496895359Y-205308984D01*
X496906142Y-205323411D01*
X496917281Y-205337511D01*
X496929177Y-205351805D01*
X496942232Y-205366812D01*
X496956846Y-205383053D01*
X496963635Y-205390601D01*
X496970456Y-205398328D01*
X496977125Y-205406017D01*
X496983458Y-205413453D01*
X496989270Y-205420421D01*
X496994378Y-205426703D01*
X496998598Y-205432086D01*
X497001745Y-205436352D01*
X497009689Y-205448373D01*
X497017619Y-205461893D01*
X497025533Y-205476898D01*
X497033425Y-205493375D01*
X497041292Y-205511311D01*
X497049129Y-205530694D01*
X497056933Y-205551511D01*
X497064700Y-205573749D01*
X497072426Y-205597394D01*
X497080106Y-205622435D01*
X497087737Y-205648857D01*
X497095315Y-205676649D01*
X497102835Y-205705797D01*
X497110294Y-205736289D01*
X497125013Y-205801251D01*
X497135859Y-205850428D01*
X497148572Y-205905701D01*
X497163780Y-205969751D01*
X497182111Y-206045262D01*
X497187966Y-206069794D01*
X497192765Y-206091350D01*
X497196597Y-206110504D01*
X497199549Y-206127831D01*
X497201709Y-206143906D01*
X497203164Y-206159305D01*
X497204003Y-206174602D01*
X497204313Y-206190373D01*
X497203874Y-206209474D01*
X497202426Y-206229623D01*
X497199997Y-206250716D01*
X497196619Y-206272650D01*
X497192323Y-206295323D01*
X497187139Y-206318630D01*
X497181098Y-206342469D01*
X497174230Y-206366737D01*
X497166567Y-206391330D01*
X497158138Y-206416146D01*
X497148976Y-206441082D01*
X497139109Y-206466034D01*
X497128570Y-206490900D01*
X497117388Y-206515575D01*
X497105595Y-206539959D01*
X497093221Y-206563946D01*
X497081089Y-206586153D01*
X497068868Y-206607410D01*
X497056543Y-206627734D01*
X497044097Y-206647144D01*
X497031514Y-206665661D01*
X497018778Y-206683302D01*
X497005873Y-206700086D01*
X496992783Y-206716032D01*
X496979491Y-206731160D01*
X496965982Y-206745488D01*
X496952239Y-206759034D01*
X496938246Y-206771819D01*
X496923987Y-206783861D01*
X496909446Y-206795178D01*
X496894607Y-206805790D01*
X496879453Y-206815716D01*
X496875556Y-206818138D01*
X496871924Y-206820333D01*
X496868438Y-206822344D01*
X496864982Y-206824218D01*
X496861438Y-206825997D01*
X496857689Y-206827727D01*
X496853617Y-206829453D01*
X496849104Y-206831218D01*
X496844034Y-206833067D01*
X496838288Y-206835046D01*
X496831750Y-206837198D01*
X496824301Y-206839567D01*
X496806204Y-206845138D01*
X496783056Y-206852116D01*
X496752510Y-206861098D01*
X496723632Y-206869153D01*
X496699667Y-206875390D01*
X496690540Y-206877548D01*
X496683858Y-206878918D01*
X496683820Y-206878742D01*
X496655087Y-206883705D01*
X496627083Y-206887829D01*
X496599838Y-206891118D01*
X496573381Y-206893573D01*
X496547745Y-206895194D01*
X496522960Y-206895985D01*
X496499055Y-206895946D01*
X496476062Y-206895080D01*
X496454011Y-206893387D01*
X496432933Y-206890870D01*
X496412858Y-206887529D01*
X496393817Y-206883368D01*
X496375841Y-206878386D01*
X496358959Y-206872587D01*
X496343203Y-206865971D01*
X496328603Y-206858540D01*
X496323976Y-206855896D01*
X496319571Y-206853246D01*
X496315375Y-206850575D01*
X496311374Y-206847873D01*
X496307554Y-206845127D01*
X496303902Y-206842324D01*
X496300402Y-206839453D01*
X496297042Y-206836502D01*
X496293807Y-206833458D01*
X496290684Y-206830310D01*
X496287658Y-206827044D01*
X496284716Y-206823650D01*
X496281843Y-206820114D01*
X496279026Y-206816424D01*
X496276251Y-206812569D01*
X496273504Y-206808537D01*
X496271295Y-206804836D01*
X496268692Y-206799738D01*
X496265658Y-206793135D01*
X496262152Y-206784920D01*
X496253566Y-206763233D01*
X496242621Y-206733825D01*
X496229001Y-206695843D01*
X496212391Y-206648436D01*
X496192477Y-206590751D01*
X496168943Y-206521938D01*
X496155102Y-206479642D01*
X496138640Y-206426706D01*
X496102416Y-206304690D01*
X496069394Y-206187431D01*
X496056934Y-206140442D01*
X496048696Y-206106472D01*
X496034385Y-206038339D01*
X496021673Y-205971318D01*
X496010557Y-205905379D01*
X496001034Y-205840493D01*
X495993100Y-205776631D01*
X495986751Y-205713761D01*
X495981984Y-205651856D01*
X495978795Y-205590885D01*
X495977855Y-205553465D01*
X495978031Y-205516394D01*
X495979316Y-205479706D01*
X495981703Y-205443432D01*
X495985187Y-205407605D01*
X495989760Y-205372259D01*
X495995415Y-205337426D01*
X496002146Y-205303139D01*
X496009946Y-205269430D01*
X496018808Y-205236333D01*
X496028726Y-205203880D01*
X496039693Y-205172104D01*
X496051702Y-205141038D01*
X496064747Y-205110715D01*
X496078820Y-205081166D01*
X496093915Y-205052426D01*
X496108219Y-205027602D01*
X496123477Y-205003318D01*
X496139610Y-204979650D01*
X496156539Y-204956674D01*
X496174187Y-204934467D01*
X496192474Y-204913104D01*
X496211321Y-204892662D01*
X496230649Y-204873217D01*
X496250380Y-204854845D01*
X496270435Y-204837622D01*
X496290736Y-204821624D01*
X496311202Y-204806928D01*
X496331756Y-204793610D01*
X496352319Y-204781746D01*
X496372812Y-204771412D01*
X496393155Y-204762684D01*
X496414052Y-204754681D01*
X496441953Y-204770382D01*
G37*
X496441953Y-204770382D02*
X496448610Y-204774262D01*
X496455348Y-204778445D01*
X496462170Y-204782934D01*
X496469083Y-204787733D01*
X496476091Y-204792848D01*
X496483200Y-204798282D01*
X496490414Y-204804040D01*
X496497739Y-204810126D01*
X496505180Y-204816545D01*
X496512742Y-204823301D01*
X496520430Y-204830397D01*
X496528249Y-204837840D01*
X496536205Y-204845632D01*
X496544302Y-204853778D01*
X496560941Y-204871151D01*
X496573780Y-204884863D01*
X496584001Y-204895973D01*
X496588542Y-204901065D01*
X496592923Y-204906124D01*
X496597309Y-204911354D01*
X496601866Y-204916962D01*
X496606758Y-204923152D01*
X496612150Y-204930130D01*
X496625094Y-204947272D01*
X496664243Y-205000057D01*
X496687426Y-205030865D01*
X496715605Y-205067565D01*
X496745228Y-205105551D01*
X496772741Y-205140217D01*
X496799857Y-205174636D01*
X496824666Y-205207209D01*
X496835720Y-205222156D01*
X496845613Y-205235865D01*
X496854152Y-205248077D01*
X496861142Y-205258534D01*
X496873260Y-205277065D01*
X496884532Y-205293709D01*
X496895359Y-205308984D01*
X496906142Y-205323411D01*
X496917281Y-205337511D01*
X496929177Y-205351805D01*
X496942232Y-205366812D01*
X496956846Y-205383053D01*
X496963635Y-205390601D01*
X496970456Y-205398328D01*
X496977125Y-205406017D01*
X496983458Y-205413453D01*
X496989270Y-205420421D01*
X496994378Y-205426703D01*
X496998598Y-205432086D01*
X497001745Y-205436352D01*
X497009689Y-205448373D01*
X497017619Y-205461893D01*
X497025533Y-205476898D01*
X497033425Y-205493375D01*
X497041292Y-205511311D01*
X497049129Y-205530694D01*
X497056933Y-205551511D01*
X497064700Y-205573749D01*
X497072426Y-205597394D01*
X497080106Y-205622435D01*
X497087737Y-205648857D01*
X497095315Y-205676649D01*
X497102835Y-205705797D01*
X497110294Y-205736289D01*
X497125013Y-205801251D01*
X497135859Y-205850428D01*
X497148572Y-205905701D01*
X497163780Y-205969751D01*
X497182111Y-206045262D01*
X497187966Y-206069794D01*
X497192765Y-206091350D01*
X497196597Y-206110504D01*
X497199549Y-206127831D01*
X497201709Y-206143906D01*
X497203164Y-206159305D01*
X497204003Y-206174602D01*
X497204313Y-206190373D01*
X497203874Y-206209474D01*
X497202426Y-206229623D01*
X497199997Y-206250716D01*
X497196619Y-206272650D01*
X497192323Y-206295323D01*
X497187139Y-206318630D01*
X497181098Y-206342469D01*
X497174230Y-206366737D01*
X497166567Y-206391330D01*
X497158138Y-206416146D01*
X497148976Y-206441082D01*
X497139109Y-206466034D01*
X497128570Y-206490900D01*
X497117388Y-206515575D01*
X497105595Y-206539959D01*
X497093221Y-206563946D01*
X497081089Y-206586153D01*
X497068868Y-206607410D01*
X497056543Y-206627734D01*
X497044097Y-206647144D01*
X497031514Y-206665661D01*
X497018778Y-206683302D01*
X497005873Y-206700086D01*
X496992783Y-206716032D01*
X496979491Y-206731160D01*
X496965982Y-206745488D01*
X496952239Y-206759034D01*
X496938246Y-206771819D01*
X496923987Y-206783861D01*
X496909446Y-206795178D01*
X496894607Y-206805790D01*
X496879453Y-206815716D01*
X496875556Y-206818138D01*
X496871924Y-206820333D01*
X496868438Y-206822344D01*
X496864982Y-206824218D01*
X496861438Y-206825997D01*
X496857689Y-206827727D01*
X496853617Y-206829453D01*
X496849104Y-206831218D01*
X496844034Y-206833067D01*
X496838288Y-206835046D01*
X496831750Y-206837198D01*
X496824301Y-206839567D01*
X496806204Y-206845138D01*
X496783056Y-206852116D01*
X496752510Y-206861098D01*
X496723632Y-206869153D01*
X496699667Y-206875390D01*
X496690540Y-206877548D01*
X496683858Y-206878918D01*
X496683820Y-206878742D01*
X496655087Y-206883705D01*
X496627083Y-206887829D01*
X496599838Y-206891118D01*
X496573381Y-206893573D01*
X496547745Y-206895194D01*
X496522960Y-206895985D01*
X496499055Y-206895946D01*
X496476062Y-206895080D01*
X496454011Y-206893387D01*
X496432933Y-206890870D01*
X496412858Y-206887529D01*
X496393817Y-206883368D01*
X496375841Y-206878386D01*
X496358959Y-206872587D01*
X496343203Y-206865971D01*
X496328603Y-206858540D01*
X496323976Y-206855896D01*
X496319571Y-206853246D01*
X496315375Y-206850575D01*
X496311374Y-206847873D01*
X496307554Y-206845127D01*
X496303902Y-206842324D01*
X496300402Y-206839453D01*
X496297042Y-206836502D01*
X496293807Y-206833458D01*
X496290684Y-206830310D01*
X496287658Y-206827044D01*
X496284716Y-206823650D01*
X496281843Y-206820114D01*
X496279026Y-206816424D01*
X496276251Y-206812569D01*
X496273504Y-206808537D01*
X496271295Y-206804836D01*
X496268692Y-206799738D01*
X496265658Y-206793135D01*
X496262152Y-206784920D01*
X496253566Y-206763233D01*
X496242621Y-206733825D01*
X496229001Y-206695843D01*
X496212391Y-206648436D01*
X496192477Y-206590751D01*
X496168943Y-206521938D01*
X496155102Y-206479642D01*
X496138640Y-206426706D01*
X496102416Y-206304690D01*
X496069394Y-206187431D01*
X496056934Y-206140442D01*
X496048696Y-206106472D01*
X496034385Y-206038339D01*
X496021673Y-205971318D01*
X496010557Y-205905379D01*
X496001034Y-205840493D01*
X495993100Y-205776631D01*
X495986751Y-205713761D01*
X495981984Y-205651856D01*
X495978795Y-205590885D01*
X495977855Y-205553465D01*
X495978031Y-205516394D01*
X495979316Y-205479706D01*
X495981703Y-205443432D01*
X495985187Y-205407605D01*
X495989760Y-205372259D01*
X495995415Y-205337426D01*
X496002146Y-205303139D01*
X496009946Y-205269430D01*
X496018808Y-205236333D01*
X496028726Y-205203880D01*
X496039693Y-205172104D01*
X496051702Y-205141038D01*
X496064747Y-205110715D01*
X496078820Y-205081166D01*
X496093915Y-205052426D01*
X496108219Y-205027602D01*
X496123477Y-205003318D01*
X496139610Y-204979650D01*
X496156539Y-204956674D01*
X496174187Y-204934467D01*
X496192474Y-204913104D01*
X496211321Y-204892662D01*
X496230649Y-204873217D01*
X496250380Y-204854845D01*
X496270435Y-204837622D01*
X496290736Y-204821624D01*
X496311202Y-204806928D01*
X496331756Y-204793610D01*
X496352319Y-204781746D01*
X496372812Y-204771412D01*
X496393155Y-204762684D01*
X496414052Y-204754681D01*
X496441953Y-204770382D01*
D10*
X500692525Y-208117141D02*
X500629766Y-207993932D01*
X497094655Y-205335890D02*
X497075460Y-205313931D01*
X490897613Y-209198434D02*
X490945070Y-209201488D01*
X500695418Y-203527752D02*
X500705797Y-203489256D01*
X500724951Y-203184692D02*
X500716998Y-203068968D01*
X493323780Y-197195955D02*
X493033929Y-197256579D01*
X490886455Y-203931282D02*
X490794835Y-204003636D01*
X493947210Y-202688938D02*
X493770402Y-202734526D01*
X495444115Y-204682945D02*
X495454662Y-204661371D01*
X497003742Y-206891908D02*
X497021890Y-206876876D01*
X497075460Y-205313931D02*
X497075460Y-205313931D01*
X496319135Y-207001619D02*
X496342998Y-207009254D01*
X497338525Y-206190106D02*
X497337737Y-206159662D01*
X500564580Y-201528797D02*
X500564580Y-201528797D01*
X499125890Y-201155743D02*
X499125890Y-201155743D01*
X500738563Y-202462073D02*
X500733956Y-202388935D01*
X498787479Y-208969578D02*
X499591077Y-208704731D01*
X496300270Y-204657510D02*
X496276597Y-204670250D01*
X500098998Y-201614297D02*
X500094461Y-201599749D01*
X496146184Y-202360996D02*
X496011730Y-202410112D01*
X497392324Y-209391781D02*
X497713257Y-209302021D01*
X501295265Y-205478924D02*
X501238463Y-205280539D01*
X505127172Y-205723881D02*
X505127172Y-205723881D01*
X496818411Y-206983382D02*
X496864751Y-206969021D01*
X494102615Y-202663151D02*
X494020217Y-202674722D01*
X491697929Y-208982843D02*
X491936449Y-208870349D01*
X496146184Y-202360996D02*
X496146184Y-202360996D01*
X497329363Y-206292016D02*
X497334526Y-206255883D01*
X496180144Y-206908239D02*
X496196402Y-206926238D01*
X498712019Y-198480471D02*
X498558657Y-198356764D01*
X505244100Y-208179409D02*
X505127172Y-205723881D01*
X497384237Y-201656590D02*
X497286771Y-201698625D01*
X500736130Y-203035448D02*
X500736978Y-202844747D01*
X495483514Y-204603122D02*
X495491813Y-204584665D01*
X492720781Y-206367576D02*
X492804024Y-206381587D01*
X491206842Y-205418500D02*
X491237597Y-205457397D01*
X499574846Y-204382942D02*
X499724842Y-204322971D01*
X499809018Y-201005613D02*
X499738017Y-201018010D01*
X495868738Y-205863389D02*
X495879493Y-205936427D01*
X500600930Y-203735727D02*
X500620330Y-203703653D01*
D16*
X500550435Y-202104122D02*
X500519979Y-202063220D01*
X500519979Y-202063220D02*
X500487045Y-202021252D01*
X500487045Y-202021252D02*
X500451996Y-201978580D01*
X500451996Y-201978580D02*
X500415196Y-201935568D01*
X500415196Y-201935568D02*
X500377009Y-201892577D01*
X500377009Y-201892577D02*
X500337798Y-201849969D01*
X500337798Y-201849969D02*
X500297925Y-201808108D01*
X500297925Y-201808108D02*
X500257755Y-201767355D01*
X500257755Y-201767355D02*
X500217650Y-201728073D01*
X500217650Y-201728073D02*
X500177974Y-201690624D01*
X500177974Y-201690624D02*
X500139091Y-201655370D01*
X500139091Y-201655370D02*
X500101363Y-201622674D01*
X500101363Y-201622674D02*
X500065154Y-201592899D01*
X500065154Y-201592899D02*
X500030827Y-201566405D01*
X500030827Y-201566405D02*
X499998746Y-201543557D01*
X499998746Y-201543557D02*
X499969274Y-201524716D01*
X499969274Y-201524716D02*
X499954087Y-201515546D01*
X499954087Y-201515546D02*
X499940455Y-201506935D01*
X499940455Y-201506935D02*
X499928174Y-201498595D01*
X499928174Y-201498595D02*
X499917040Y-201490237D01*
X499917040Y-201490237D02*
X499911840Y-201485961D01*
X499911840Y-201485961D02*
X499906850Y-201481572D01*
X499906850Y-201481572D02*
X499902046Y-201477036D01*
X499902046Y-201477036D02*
X499897401Y-201472315D01*
X499897401Y-201472315D02*
X499892890Y-201467373D01*
X499892890Y-201467373D02*
X499888488Y-201462175D01*
X499888488Y-201462175D02*
X499884170Y-201456685D01*
X499884170Y-201456685D02*
X499879910Y-201450866D01*
X499879910Y-201450866D02*
X499875682Y-201444683D01*
X499875682Y-201444683D02*
X499871461Y-201438099D01*
X499871461Y-201438099D02*
X499867222Y-201431079D01*
X499867222Y-201431079D02*
X499862939Y-201423586D01*
X499862939Y-201423586D02*
X499854140Y-201407039D01*
X499854140Y-201407039D02*
X499844861Y-201388171D01*
X499844861Y-201388171D02*
X499834898Y-201366692D01*
X499834898Y-201366692D02*
X499824048Y-201342316D01*
X499824048Y-201342316D02*
X499798871Y-201283718D01*
X499798871Y-201283718D02*
X499741294Y-201146346D01*
X499741294Y-201146346D02*
X499722538Y-201100333D01*
X499722538Y-201100333D02*
X499714170Y-201078388D01*
X499714170Y-201078388D02*
X499713658Y-201075679D01*
X499713658Y-201075679D02*
X499713631Y-201073061D01*
X499713631Y-201073061D02*
X499714103Y-201070532D01*
X499714103Y-201070532D02*
X499715088Y-201068090D01*
X499715088Y-201068090D02*
X499716600Y-201065733D01*
X499716600Y-201065733D02*
X499718651Y-201063457D01*
X499718651Y-201063457D02*
X499721256Y-201061261D01*
X499721256Y-201061261D02*
X499724429Y-201059141D01*
X499724429Y-201059141D02*
X499728183Y-201057096D01*
X499728183Y-201057096D02*
X499732531Y-201055123D01*
X499732531Y-201055123D02*
X499737488Y-201053219D01*
X499737488Y-201053219D02*
X499743067Y-201051381D01*
X499743067Y-201051381D02*
X499749282Y-201049608D01*
X499749282Y-201049608D02*
X499756147Y-201047897D01*
X499756147Y-201047897D02*
X499763674Y-201046245D01*
X499763674Y-201046245D02*
X499771879Y-201044649D01*
X499771879Y-201044649D02*
X499780773Y-201043108D01*
X499780773Y-201043108D02*
X499790372Y-201041619D01*
X499790372Y-201041619D02*
X499811738Y-201038785D01*
X499811738Y-201038785D02*
X499836083Y-201036128D01*
X499836083Y-201036128D02*
X499863519Y-201033628D01*
X499863519Y-201033628D02*
X499894155Y-201031264D01*
X499894155Y-201031264D02*
X499928099Y-201029017D01*
X499928099Y-201029017D02*
X499965462Y-201026866D01*
X499965462Y-201026866D02*
X500006353Y-201024792D01*
X500006353Y-201024792D02*
X500051253Y-201022771D01*
X500051253Y-201022771D02*
X500090906Y-201021485D01*
X500090906Y-201021485D02*
X500125800Y-201021240D01*
X500125800Y-201021240D02*
X500156425Y-201022338D01*
X500156425Y-201022338D02*
X500170290Y-201023486D01*
X500170290Y-201023486D02*
X500183271Y-201025085D01*
X500183271Y-201025085D02*
X500195430Y-201027171D01*
X500195430Y-201027171D02*
X500206828Y-201029784D01*
X500206828Y-201029784D02*
X500217526Y-201032960D01*
X500217526Y-201032960D02*
X500227584Y-201036739D01*
X500227584Y-201036739D02*
X500237065Y-201041159D01*
X500237065Y-201041159D02*
X500246030Y-201046256D01*
X500246030Y-201046256D02*
X500254540Y-201052070D01*
X500254540Y-201052070D02*
X500262655Y-201058638D01*
X500262655Y-201058638D02*
X500270437Y-201065999D01*
X500270437Y-201065999D02*
X500277948Y-201074190D01*
X500277948Y-201074190D02*
X500285248Y-201083249D01*
X500285248Y-201083249D02*
X500292399Y-201093215D01*
X500292399Y-201093215D02*
X500299462Y-201104125D01*
X500299462Y-201104125D02*
X500306498Y-201116018D01*
X500306498Y-201116018D02*
X500320734Y-201142903D01*
X500320734Y-201142903D02*
X500335597Y-201174175D01*
X500335597Y-201174175D02*
X500369161Y-201251095D01*
X500369161Y-201251095D02*
X500396461Y-201328359D01*
X500396461Y-201328359D02*
X500432017Y-201446954D01*
X500432017Y-201446954D02*
X500471891Y-201591315D01*
X500471891Y-201591315D02*
X500512147Y-201745875D01*
X500512147Y-201745875D02*
X500548850Y-201895070D01*
X500548850Y-201895070D02*
X500578064Y-202023332D01*
X500578064Y-202023332D02*
X500595853Y-202115096D01*
X500595853Y-202115096D02*
X500599232Y-202142427D01*
X500599232Y-202142427D02*
X500598279Y-202154797D01*
X500598279Y-202154797D02*
X500597856Y-202155006D01*
X500597856Y-202155006D02*
X500597336Y-202155073D01*
X500597336Y-202155073D02*
X500596724Y-202155001D01*
X500596724Y-202155001D02*
X500596021Y-202154792D01*
X500596021Y-202154792D02*
X500595230Y-202154448D01*
X500595230Y-202154448D02*
X500594355Y-202153974D01*
X500594355Y-202153974D02*
X500593397Y-202153370D01*
X500593397Y-202153370D02*
X500592359Y-202152640D01*
X500592359Y-202152640D02*
X500590056Y-202150812D01*
X500590056Y-202150812D02*
X500587467Y-202148510D01*
X500587467Y-202148510D02*
X500584613Y-202145757D01*
X500584613Y-202145757D02*
X500581517Y-202142572D01*
X500581517Y-202142572D02*
X500578198Y-202138977D01*
X500578198Y-202138977D02*
X500574680Y-202134992D01*
X500574680Y-202134992D02*
X500570984Y-202130640D01*
X500570984Y-202130640D02*
X500567130Y-202125942D01*
X500567130Y-202125942D02*
X500563142Y-202120917D01*
X500563142Y-202120917D02*
X500559040Y-202115588D01*
X500559040Y-202115588D02*
X500554845Y-202109975D01*
X500554845Y-202109975D02*
X500550580Y-202104099D01*
X500550580Y-202104099D02*
X500550435Y-202104122D01*
X500550435Y-202104122D02*
X500550435Y-202104122D01*
G36*
X500156425Y-201022338D02*
G01*
X500170290Y-201023486D01*
X500183271Y-201025085D01*
X500195430Y-201027171D01*
X500206828Y-201029784D01*
X500217526Y-201032960D01*
X500227584Y-201036739D01*
X500237065Y-201041159D01*
X500246030Y-201046256D01*
X500254540Y-201052070D01*
X500262655Y-201058638D01*
X500270437Y-201065999D01*
X500277948Y-201074190D01*
X500285248Y-201083249D01*
X500292399Y-201093215D01*
X500299462Y-201104125D01*
X500306498Y-201116018D01*
X500320734Y-201142903D01*
X500335597Y-201174175D01*
X500369161Y-201251095D01*
X500396461Y-201328359D01*
X500432017Y-201446954D01*
X500471891Y-201591315D01*
X500512147Y-201745875D01*
X500548850Y-201895070D01*
X500578064Y-202023332D01*
X500595853Y-202115096D01*
X500599232Y-202142427D01*
X500598279Y-202154797D01*
X500597856Y-202155006D01*
X500597336Y-202155073D01*
X500596724Y-202155001D01*
X500596021Y-202154792D01*
X500595230Y-202154448D01*
X500594355Y-202153974D01*
X500593397Y-202153370D01*
X500592359Y-202152640D01*
X500590056Y-202150812D01*
X500587467Y-202148510D01*
X500584613Y-202145757D01*
X500581517Y-202142572D01*
X500578198Y-202138977D01*
X500574680Y-202134992D01*
X500570984Y-202130640D01*
X500567130Y-202125942D01*
X500563142Y-202120917D01*
X500559040Y-202115588D01*
X500554845Y-202109975D01*
X500550580Y-202104099D01*
X500550435Y-202104122D01*
X500519979Y-202063220D01*
X500487045Y-202021252D01*
X500451996Y-201978580D01*
X500415196Y-201935568D01*
X500377009Y-201892577D01*
X500337798Y-201849969D01*
X500297925Y-201808108D01*
X500257755Y-201767355D01*
X500217650Y-201728073D01*
X500177974Y-201690624D01*
X500139091Y-201655370D01*
X500101363Y-201622674D01*
X500065154Y-201592899D01*
X500030827Y-201566405D01*
X499998746Y-201543557D01*
X499969274Y-201524716D01*
X499954087Y-201515546D01*
X499940455Y-201506935D01*
X499928174Y-201498595D01*
X499917040Y-201490237D01*
X499911840Y-201485961D01*
X499906850Y-201481572D01*
X499902046Y-201477036D01*
X499897401Y-201472315D01*
X499892890Y-201467373D01*
X499888488Y-201462175D01*
X499884170Y-201456685D01*
X499879910Y-201450866D01*
X499875682Y-201444683D01*
X499871461Y-201438099D01*
X499867222Y-201431079D01*
X499862939Y-201423586D01*
X499854140Y-201407039D01*
X499844861Y-201388171D01*
X499834898Y-201366692D01*
X499824048Y-201342316D01*
X499798871Y-201283718D01*
X499741294Y-201146346D01*
X499722538Y-201100333D01*
X499714170Y-201078388D01*
X499713658Y-201075679D01*
X499713631Y-201073061D01*
X499714103Y-201070532D01*
X499715088Y-201068090D01*
X499716600Y-201065733D01*
X499718651Y-201063457D01*
X499721256Y-201061261D01*
X499724429Y-201059141D01*
X499728183Y-201057096D01*
X499732531Y-201055123D01*
X499737488Y-201053219D01*
X499743067Y-201051381D01*
X499749282Y-201049608D01*
X499756147Y-201047897D01*
X499763674Y-201046245D01*
X499771879Y-201044649D01*
X499780773Y-201043108D01*
X499790372Y-201041619D01*
X499811738Y-201038785D01*
X499836083Y-201036128D01*
X499863519Y-201033628D01*
X499894155Y-201031264D01*
X499928099Y-201029017D01*
X499965462Y-201026866D01*
X500006353Y-201024792D01*
X500051253Y-201022771D01*
X500090906Y-201021485D01*
X500125800Y-201021240D01*
X500156425Y-201022338D01*
G37*
X500156425Y-201022338D02*
X500170290Y-201023486D01*
X500183271Y-201025085D01*
X500195430Y-201027171D01*
X500206828Y-201029784D01*
X500217526Y-201032960D01*
X500227584Y-201036739D01*
X500237065Y-201041159D01*
X500246030Y-201046256D01*
X500254540Y-201052070D01*
X500262655Y-201058638D01*
X500270437Y-201065999D01*
X500277948Y-201074190D01*
X500285248Y-201083249D01*
X500292399Y-201093215D01*
X500299462Y-201104125D01*
X500306498Y-201116018D01*
X500320734Y-201142903D01*
X500335597Y-201174175D01*
X500369161Y-201251095D01*
X500396461Y-201328359D01*
X500432017Y-201446954D01*
X500471891Y-201591315D01*
X500512147Y-201745875D01*
X500548850Y-201895070D01*
X500578064Y-202023332D01*
X500595853Y-202115096D01*
X500599232Y-202142427D01*
X500598279Y-202154797D01*
X500597856Y-202155006D01*
X500597336Y-202155073D01*
X500596724Y-202155001D01*
X500596021Y-202154792D01*
X500595230Y-202154448D01*
X500594355Y-202153974D01*
X500593397Y-202153370D01*
X500592359Y-202152640D01*
X500590056Y-202150812D01*
X500587467Y-202148510D01*
X500584613Y-202145757D01*
X500581517Y-202142572D01*
X500578198Y-202138977D01*
X500574680Y-202134992D01*
X500570984Y-202130640D01*
X500567130Y-202125942D01*
X500563142Y-202120917D01*
X500559040Y-202115588D01*
X500554845Y-202109975D01*
X500550580Y-202104099D01*
X500550435Y-202104122D01*
X500519979Y-202063220D01*
X500487045Y-202021252D01*
X500451996Y-201978580D01*
X500415196Y-201935568D01*
X500377009Y-201892577D01*
X500337798Y-201849969D01*
X500297925Y-201808108D01*
X500257755Y-201767355D01*
X500217650Y-201728073D01*
X500177974Y-201690624D01*
X500139091Y-201655370D01*
X500101363Y-201622674D01*
X500065154Y-201592899D01*
X500030827Y-201566405D01*
X499998746Y-201543557D01*
X499969274Y-201524716D01*
X499954087Y-201515546D01*
X499940455Y-201506935D01*
X499928174Y-201498595D01*
X499917040Y-201490237D01*
X499911840Y-201485961D01*
X499906850Y-201481572D01*
X499902046Y-201477036D01*
X499897401Y-201472315D01*
X499892890Y-201467373D01*
X499888488Y-201462175D01*
X499884170Y-201456685D01*
X499879910Y-201450866D01*
X499875682Y-201444683D01*
X499871461Y-201438099D01*
X499867222Y-201431079D01*
X499862939Y-201423586D01*
X499854140Y-201407039D01*
X499844861Y-201388171D01*
X499834898Y-201366692D01*
X499824048Y-201342316D01*
X499798871Y-201283718D01*
X499741294Y-201146346D01*
X499722538Y-201100333D01*
X499714170Y-201078388D01*
X499713658Y-201075679D01*
X499713631Y-201073061D01*
X499714103Y-201070532D01*
X499715088Y-201068090D01*
X499716600Y-201065733D01*
X499718651Y-201063457D01*
X499721256Y-201061261D01*
X499724429Y-201059141D01*
X499728183Y-201057096D01*
X499732531Y-201055123D01*
X499737488Y-201053219D01*
X499743067Y-201051381D01*
X499749282Y-201049608D01*
X499756147Y-201047897D01*
X499763674Y-201046245D01*
X499771879Y-201044649D01*
X499780773Y-201043108D01*
X499790372Y-201041619D01*
X499811738Y-201038785D01*
X499836083Y-201036128D01*
X499863519Y-201033628D01*
X499894155Y-201031264D01*
X499928099Y-201029017D01*
X499965462Y-201026866D01*
X500006353Y-201024792D01*
X500051253Y-201022771D01*
X500090906Y-201021485D01*
X500125800Y-201021240D01*
X500156425Y-201022338D01*
D10*
X493524351Y-208627312D02*
X493583777Y-208667319D01*
X493331859Y-208524735D02*
X493401319Y-208558079D01*
X492337087Y-208682125D02*
X492337087Y-208682125D01*
X499143318Y-204524570D02*
X499234909Y-204498738D01*
X495859471Y-197135281D02*
X495497448Y-197070682D01*
X496165311Y-206888541D02*
X496180144Y-206908239D01*
X496608798Y-207025104D02*
X496663485Y-207017902D01*
X496985156Y-206906035D02*
X497003742Y-206891908D01*
X490794835Y-204003636D02*
X490794835Y-204003636D01*
X491100707Y-209188586D02*
X491213369Y-209164114D01*
X496418736Y-207024798D02*
X496445083Y-207027706D01*
X494379300Y-209617197D02*
X494507057Y-209830196D01*
X498733753Y-201254227D02*
X498231363Y-201390222D01*
X495202283Y-205290549D02*
X495231505Y-205225368D01*
X491295748Y-203646273D02*
X491130718Y-203754689D01*
X496622932Y-204741816D02*
X496601267Y-204721680D01*
X498660436Y-204615719D02*
X498660436Y-204615719D01*
X488614984Y-200266508D02*
X488481962Y-200488561D01*
X500927184Y-206244499D02*
X501041333Y-206208737D01*
X496935832Y-205129694D02*
X496924208Y-205114477D01*
X495691366Y-202507449D02*
X495529558Y-202551376D01*
X496441673Y-204625290D02*
X496429311Y-204623036D01*
X498068630Y-209195917D02*
X498787479Y-208969578D01*
X496071876Y-204846674D02*
X496046860Y-204878366D01*
X494750681Y-205874734D02*
X494821849Y-205815693D01*
X496680372Y-203639659D02*
X496729955Y-203723957D01*
X501350485Y-205744334D02*
X501336770Y-205660826D01*
X500476034Y-202192994D02*
X500423507Y-202091447D01*
X498456815Y-204641086D02*
X498554026Y-204628101D01*
X491575146Y-209036644D02*
X491697929Y-208982843D01*
X497311773Y-206372776D02*
X497311773Y-206372776D01*
X491026340Y-205136074D02*
X491085324Y-205237718D01*
X496243849Y-202319449D02*
X496146184Y-202360996D01*
X495138756Y-205417471D02*
X495171448Y-205354663D01*
X493770402Y-202734526D02*
X493523453Y-202804656D01*
X500620330Y-203703653D02*
X500638318Y-203670583D01*
X489814552Y-198870700D02*
X489616006Y-199056179D01*
X496605462Y-197337481D02*
X496230231Y-197224434D01*
X501017936Y-204626829D02*
X500941605Y-204402856D01*
X497129197Y-205386623D02*
X497112539Y-205360177D01*
X499759167Y-199823714D02*
X499665853Y-199636845D01*
X492395050Y-206284938D02*
X492475117Y-206309514D01*
X492887712Y-206392867D02*
X492971705Y-206401380D01*
X493401319Y-208558079D02*
X493463531Y-208590807D01*
X495422328Y-204731488D02*
X495433298Y-204706198D01*
X501346272Y-206016986D02*
X501357227Y-205959039D01*
X496906543Y-206952502D02*
X496926825Y-206942490D01*
X500520804Y-201367514D02*
X500505908Y-201321035D01*
X494676686Y-205930700D02*
X494750681Y-205874734D01*
X487815313Y-203163624D02*
X487831015Y-203504654D01*
X494356790Y-206123911D02*
X494439917Y-206080198D01*
X493307933Y-206407035D02*
X493391356Y-206401170D01*
X495977429Y-206358970D02*
X496022428Y-206503702D01*
X487831015Y-203504654D02*
X487861407Y-203855369D01*
X488452448Y-206218689D02*
X488586205Y-206491376D01*
X496322965Y-204646769D02*
X496300270Y-204657510D01*
X495846334Y-205631573D02*
X495846334Y-205631573D01*
X496926825Y-206942490D02*
X496946692Y-206931375D01*
X500638318Y-203670583D02*
X500654857Y-203636488D01*
X491395653Y-197799339D02*
X491145719Y-197921643D01*
X495454662Y-204661371D02*
X495474478Y-204621818D01*
X500281048Y-201440487D02*
X500289440Y-201413261D01*
X497006019Y-205233950D02*
X496997357Y-205222015D01*
X495517659Y-204402546D02*
X495517659Y-204402546D01*
X495474478Y-204621818D02*
X495483514Y-204603122D01*
X495519460Y-204432017D02*
X495518776Y-204417633D01*
X496864751Y-206969021D02*
X496885849Y-206961362D01*
X500715200Y-202230019D02*
X500687358Y-202063870D01*
X491595305Y-205818443D02*
X491654042Y-205868578D01*
X500429985Y-206774382D02*
X500457301Y-206690379D01*
X495103963Y-205478735D02*
X495138756Y-205417471D01*
X498544233Y-201504566D02*
X499313619Y-201618466D01*
X496213894Y-202511058D02*
X496272592Y-202678645D01*
X496781548Y-203804377D02*
X496834278Y-203882518D01*
X496718236Y-204846851D02*
X496718236Y-204846851D01*
X493960611Y-209022357D02*
X494055647Y-209139665D01*
X493474246Y-206392320D02*
X493556463Y-206380451D01*
X496471839Y-207029569D02*
X496498920Y-207030441D01*
X503186132Y-204063458D02*
X503186132Y-204063458D01*
X490994882Y-209200697D02*
X491046832Y-209196313D01*
X499877033Y-200995418D02*
X499809018Y-201005613D01*
X497119161Y-204230763D02*
X497181217Y-204290259D01*
X497121274Y-206770434D02*
X497150649Y-206729947D01*
X490945070Y-209201488D02*
X490994882Y-209200697D01*
X500140241Y-202245869D02*
X500140241Y-202245869D01*
X496729785Y-204863486D02*
X496718236Y-204846851D01*
X489385772Y-207531766D02*
X489761021Y-207966746D01*
X492238485Y-206228169D02*
X492316126Y-206257811D01*
X496130208Y-206818714D02*
X496130208Y-206818714D01*
X500870807Y-204182572D02*
X500809707Y-203970012D01*
X499125890Y-201155743D02*
X498733753Y-201254227D01*
X495935317Y-205070470D02*
X495916878Y-205115771D01*
X497185240Y-205510581D02*
X497172649Y-205477206D01*
X495152578Y-202645146D02*
X496162023Y-202356167D01*
X487907277Y-201982731D02*
X487907277Y-201982731D01*
X495519590Y-204458852D02*
X495519726Y-204445741D01*
X492250783Y-208719555D02*
X492337087Y-208682125D01*
X497027588Y-205261066D02*
X497015987Y-205246876D01*
X496022428Y-206503702D02*
X496073396Y-206655854D01*
X500212323Y-201522556D02*
X500228364Y-201511922D01*
X500762471Y-203769212D02*
X500745354Y-203674482D01*
X494521087Y-206033428D02*
X494600082Y-205983597D01*
X496252879Y-206970592D02*
X496273991Y-206982342D01*
X500714544Y-203449586D02*
X500721621Y-203408710D01*
X493859951Y-208910272D02*
X493960611Y-209022357D01*
X490671741Y-198195480D02*
X490449050Y-198347444D01*
X494287800Y-202646990D02*
X494192458Y-202653986D01*
X497321841Y-206330847D02*
X497329363Y-206292016D01*
X500733956Y-202388935D02*
X500725987Y-202311103D01*
X491654042Y-205868578D02*
X491714006Y-205917114D01*
X500726725Y-203498884D02*
X500726255Y-203419026D01*
D17*
X504510129Y-209141857D02*
X506161573Y-209102558D01*
D10*
X490914417Y-204921321D02*
X490969204Y-205029872D01*
X500726993Y-203366599D02*
X500730622Y-203323224D01*
X494439917Y-206080198D02*
X494521087Y-206033428D01*
X497272344Y-205849323D02*
X497255497Y-205771259D01*
X492465928Y-197402539D02*
X492189130Y-197488307D01*
X501170531Y-205069705D02*
X501017936Y-204626829D01*
X490794835Y-204003636D02*
X488386998Y-205827755D01*
X500403626Y-207229222D02*
X500396205Y-207135730D01*
X493698443Y-208756740D02*
X493753679Y-208805605D01*
X500139312Y-201678333D02*
X500121041Y-201653160D01*
X495885199Y-205213429D02*
X495872290Y-205265828D01*
X496542158Y-204674177D02*
X496529758Y-204665738D01*
X497523426Y-204523934D02*
X497599087Y-204556248D01*
X491085324Y-205237718D02*
X491145658Y-205332596D01*
X494271924Y-206164571D02*
X494356790Y-206123911D01*
X495511120Y-204527146D02*
X495515303Y-204506058D01*
X496966138Y-206919207D02*
X496985156Y-206906035D01*
X493523453Y-202804656D02*
X492913757Y-202989308D01*
X496445083Y-207027706D02*
X496471839Y-207029569D01*
X496479363Y-204637914D02*
X496466733Y-204632801D01*
X490771524Y-209163685D02*
X490810625Y-209179784D01*
X497713257Y-209302021D02*
X498068630Y-209195917D01*
X492973682Y-208444936D02*
X493022104Y-208439895D01*
X491936449Y-208870349D02*
X492154094Y-208764744D01*
X495491813Y-204584665D02*
X495499258Y-204566090D01*
X500283641Y-201199487D02*
X500270258Y-201138202D01*
X492337087Y-208682125D02*
X492731666Y-208519817D01*
X497089993Y-206808681D02*
X497121274Y-206770434D01*
X500728031Y-203301416D02*
X500724951Y-203184692D01*
X495879493Y-205936427D02*
X495891864Y-206008034D01*
X500721621Y-203408710D02*
X500726993Y-203366599D01*
X496149350Y-204764667D02*
X496123287Y-204789846D01*
X495262935Y-202619012D02*
X495152639Y-202645374D01*
X490146048Y-208425887D02*
X490383953Y-208719545D01*
X496011730Y-202410112D02*
X495856107Y-202459645D01*
X495152639Y-202645374D02*
X495015038Y-202640468D01*
X495152578Y-202645146D02*
X495152578Y-202645146D01*
X492316126Y-206257811D02*
X492395050Y-206284938D01*
X490236791Y-198509724D02*
X490236791Y-198509724D01*
X495976563Y-204986812D02*
X495955267Y-205027491D01*
X494866385Y-202637195D02*
X494685251Y-202635920D01*
X495999037Y-204948413D02*
X495976563Y-204986812D01*
X500704155Y-202954361D02*
X500686408Y-202840983D01*
X500826345Y-208298359D02*
X500826345Y-208298359D01*
X500381098Y-201055646D02*
X500368409Y-201040424D01*
X498558657Y-198356764D02*
X498399484Y-198237957D01*
X500523544Y-202296575D02*
X500476034Y-202192994D01*
X490674375Y-209085278D02*
X490674375Y-209085278D01*
X495853165Y-205377875D02*
X495847281Y-205437567D01*
X497197025Y-205545263D02*
X497185240Y-205510581D01*
X498217925Y-204661291D02*
X498267982Y-204659785D01*
X489160088Y-207268309D02*
X489385772Y-207531766D01*
X499234909Y-204498738D02*
X499410751Y-204442561D01*
X496924208Y-205114477D02*
X496910619Y-205097538D01*
X500270258Y-201138202D02*
X500251908Y-201069741D01*
X500094461Y-201599749D02*
X500093738Y-201587885D01*
X501361234Y-205893945D02*
X501358813Y-205822209D01*
X500749414Y-208212340D02*
X500692525Y-208117141D01*
X500795623Y-208274441D02*
X500749414Y-208212340D01*
X495905836Y-206078620D02*
X495921395Y-206148595D01*
X500730622Y-203323224D02*
X500732473Y-203278553D01*
X496980902Y-197473759D02*
X496605462Y-197337481D01*
X492189130Y-197488307D02*
X491918034Y-197582886D01*
X495411321Y-204759174D02*
X495422328Y-204731488D01*
X495497448Y-197070682D02*
X495148423Y-197031299D01*
X496342998Y-207009254D02*
X496367609Y-207015626D01*
X495517659Y-204402546D02*
X495505784Y-204293003D01*
X500093738Y-201587885D02*
X500096448Y-201578277D01*
X498399484Y-198237957D02*
X498065842Y-198015367D01*
X497311357Y-204397202D02*
X497379680Y-204444174D01*
X500941605Y-204402856D02*
X500870807Y-204182572D01*
X491268377Y-205493221D02*
X491268377Y-205493221D01*
X500126704Y-200979213D02*
X500066895Y-200979323D01*
X489073372Y-199637831D02*
X488910914Y-199841581D01*
X499591077Y-208704731D02*
X500826345Y-208298359D01*
X500493367Y-206610181D02*
X500538785Y-206534424D01*
X500355433Y-201027104D02*
X500342184Y-201015865D01*
X497226902Y-206598994D02*
X497248215Y-206553494D01*
X501169042Y-206181866D02*
X501169042Y-206181866D01*
X493163458Y-208457638D02*
X493214497Y-208474517D01*
X500456949Y-203908949D02*
X500509952Y-203854671D01*
X488886777Y-206944859D02*
X489160088Y-207268309D01*
X496383511Y-204626311D02*
X496364751Y-204631191D01*
X495259356Y-205159356D02*
X495311922Y-205025794D01*
X497075460Y-205313931D02*
X497056997Y-205294322D01*
X497331523Y-206101657D02*
X497326473Y-206073295D01*
X500179468Y-201538158D02*
X500195897Y-201531159D01*
D17*
X506161573Y-209102558D02*
X506161573Y-209102558D01*
D10*
X496466733Y-204632801D02*
X496454159Y-204628569D01*
X500314923Y-201000350D02*
X500300939Y-200996433D01*
X500538785Y-206534424D02*
X500594155Y-206463743D01*
X500300939Y-200996433D02*
X500300939Y-200996433D01*
X496392883Y-207020789D02*
X496418736Y-207024798D01*
X494185536Y-206202182D02*
X494271924Y-206164571D01*
X500102209Y-201570496D02*
X500110640Y-201564112D01*
X493270108Y-208496882D02*
X493331859Y-208524735D01*
X499578116Y-199476623D02*
X499480344Y-199320943D01*
X500086923Y-200622439D02*
X500027579Y-200465998D01*
X494009063Y-206268275D02*
X494097843Y-206236749D01*
X495440711Y-203898047D02*
X495381412Y-203607009D01*
X496945819Y-205143461D02*
X496935832Y-205129694D01*
X495505732Y-204547037D02*
X495511120Y-204527146D01*
X492154094Y-208764744D02*
X492250783Y-208719555D01*
X496130208Y-206818714D02*
X496140258Y-206843833D01*
X490969204Y-205029872D02*
X491026340Y-205136074D01*
X490674375Y-209085278D02*
X490703183Y-209116684D01*
X496897293Y-201919165D02*
X496765634Y-202009834D01*
X494507057Y-209830196D02*
X494611970Y-210002590D01*
X497916155Y-204635617D02*
X497985667Y-204646124D01*
X506857740Y-204063458D02*
X505127172Y-205723881D01*
X490852727Y-209191283D02*
X490897613Y-209198434D01*
X497178075Y-206687615D02*
X497203507Y-206643833D01*
X500297040Y-201302240D02*
X500292442Y-201254024D01*
X490236791Y-198509724D02*
X490021556Y-198688695D01*
X497237776Y-205693652D02*
X497218510Y-205617866D01*
X498554026Y-204628101D02*
X498660436Y-204615719D01*
X500148128Y-201549062D02*
X500179468Y-201538158D01*
D14*
X493534932Y-203080876D02*
X493862268Y-202978177D01*
X493862268Y-202978177D02*
X493965635Y-202947923D01*
X493965635Y-202947923D02*
X494042849Y-202928105D01*
X494042849Y-202928105D02*
X494104443Y-202916003D01*
X494104443Y-202916003D02*
X494160952Y-202908897D01*
X494160952Y-202908897D02*
X494300855Y-202898792D01*
X494300855Y-202898792D02*
X494359884Y-202895424D01*
X494359884Y-202895424D02*
X494421145Y-202893600D01*
X494421145Y-202893600D02*
X494482576Y-202893363D01*
X494482576Y-202893363D02*
X494542115Y-202894755D01*
X494542115Y-202894755D02*
X494597703Y-202897822D01*
X494597703Y-202897822D02*
X494647276Y-202902604D01*
X494647276Y-202902604D02*
X494669164Y-202905653D01*
X494669164Y-202905653D02*
X494688774Y-202909147D01*
X494688774Y-202909147D02*
X494705851Y-202913091D01*
X494705851Y-202913091D02*
X494720136Y-202917492D01*
X494720136Y-202917492D02*
X494735865Y-202924087D01*
X494735865Y-202924087D02*
X494750871Y-202932196D01*
X494750871Y-202932196D02*
X494765180Y-202941739D01*
X494765180Y-202941739D02*
X494778817Y-202952638D01*
X494778817Y-202952638D02*
X494791807Y-202964813D01*
X494791807Y-202964813D02*
X494804177Y-202978185D01*
X494804177Y-202978185D02*
X494815951Y-202992676D01*
X494815951Y-202992676D02*
X494827156Y-203008206D01*
X494827156Y-203008206D02*
X494837817Y-203024696D01*
X494837817Y-203024696D02*
X494847958Y-203042067D01*
X494847958Y-203042067D02*
X494866788Y-203079137D01*
X494866788Y-203079137D02*
X494883848Y-203118782D01*
X494883848Y-203118782D02*
X494899345Y-203160371D01*
X494899345Y-203160371D02*
X494913481Y-203203271D01*
X494913481Y-203203271D02*
X494926461Y-203246850D01*
X494926461Y-203246850D02*
X494949770Y-203333514D01*
X494949770Y-203333514D02*
X494970904Y-203415305D01*
X494970904Y-203415305D02*
X494981167Y-203452792D01*
X494981167Y-203452792D02*
X494991498Y-203487164D01*
X494991498Y-203487164D02*
X495029648Y-203606570D01*
X495029648Y-203606570D02*
X495048880Y-203671833D01*
X495048880Y-203671833D02*
X495057767Y-203705047D01*
X495057767Y-203705047D02*
X495065873Y-203738342D01*
X495065873Y-203738342D02*
X495072981Y-203771489D01*
X495072981Y-203771489D02*
X495078870Y-203804256D01*
X495078870Y-203804256D02*
X495083320Y-203836412D01*
X495083320Y-203836412D02*
X495086112Y-203867728D01*
X495086112Y-203867728D02*
X495087025Y-203897973D01*
X495087025Y-203897973D02*
X495085841Y-203926917D01*
X495085841Y-203926917D02*
X495082338Y-203954328D01*
X495082338Y-203954328D02*
X495079650Y-203967387D01*
X495079650Y-203967387D02*
X495076299Y-203979977D01*
X495076299Y-203979977D02*
X495074143Y-203985353D01*
X495074143Y-203985353D02*
X495071580Y-203988470D01*
X495071580Y-203988470D02*
X495068619Y-203989440D01*
X495068619Y-203989440D02*
X495065271Y-203988378D01*
X495065271Y-203988378D02*
X495061544Y-203985397D01*
X495061544Y-203985397D02*
X495057449Y-203980610D01*
X495057449Y-203980610D02*
X495048187Y-203966075D01*
X495048187Y-203966075D02*
X495037561Y-203945680D01*
X495037561Y-203945680D02*
X495025647Y-203920335D01*
X495025647Y-203920335D02*
X494998252Y-203858426D01*
X494998252Y-203858426D02*
X494966604Y-203787616D01*
X494966604Y-203787616D02*
X494949373Y-203751143D01*
X494949373Y-203751143D02*
X494931303Y-203715171D01*
X494931303Y-203715171D02*
X494912471Y-203680607D01*
X494912471Y-203680607D02*
X494892951Y-203648359D01*
X494892951Y-203648359D02*
X494872818Y-203619337D01*
X494872818Y-203619337D02*
X494862545Y-203606319D01*
X494862545Y-203606319D02*
X494852147Y-203594448D01*
X494852147Y-203594448D02*
X494760335Y-203495414D01*
X494760335Y-203495414D02*
X494708770Y-203442448D01*
X494708770Y-203442448D02*
X494681701Y-203416059D01*
X494681701Y-203416059D02*
X494653821Y-203390097D01*
X494653821Y-203390097D02*
X494625169Y-203364835D01*
X494625169Y-203364835D02*
X494595780Y-203340546D01*
X494595780Y-203340546D02*
X494565690Y-203317503D01*
X494565690Y-203317503D02*
X494534936Y-203295981D01*
X494534936Y-203295981D02*
X494503555Y-203276251D01*
X494503555Y-203276251D02*
X494471583Y-203258586D01*
X494471583Y-203258586D02*
X494455387Y-203250615D01*
X494455387Y-203250615D02*
X494439056Y-203243262D01*
X494439056Y-203243262D02*
X494422596Y-203236562D01*
X494422596Y-203236562D02*
X494406011Y-203230549D01*
X494406011Y-203230549D02*
X494372144Y-203220360D01*
X494372144Y-203220360D02*
X494337258Y-203212267D01*
X494337258Y-203212267D02*
X494301547Y-203206062D01*
X494301547Y-203206062D02*
X494265205Y-203201538D01*
X494265205Y-203201538D02*
X494228424Y-203198488D01*
X494228424Y-203198488D02*
X494191398Y-203196703D01*
X494191398Y-203196703D02*
X494154320Y-203195975D01*
X494154320Y-203195975D02*
X494117383Y-203196098D01*
X494117383Y-203196098D02*
X494044708Y-203198061D01*
X494044708Y-203198061D02*
X493974918Y-203200932D01*
X493974918Y-203200932D02*
X493909559Y-203203048D01*
X493909559Y-203203048D02*
X493879025Y-203203304D01*
X493879025Y-203203304D02*
X493850179Y-203202747D01*
X493850179Y-203202747D02*
X493784954Y-203201002D01*
X493784954Y-203201002D02*
X493712500Y-203200000D01*
X493712500Y-203200000D02*
X493555588Y-203198644D01*
X493555588Y-203198644D02*
X493475967Y-203197499D01*
X493475967Y-203197499D02*
X493398794Y-203195515D01*
X493398794Y-203195515D02*
X493326490Y-203192298D01*
X493326490Y-203192298D02*
X493261472Y-203187451D01*
X493261472Y-203187451D02*
X493254747Y-203186538D01*
X493254747Y-203186538D02*
X493249939Y-203185311D01*
X493249939Y-203185311D02*
X493246956Y-203183786D01*
X493246956Y-203183786D02*
X493245705Y-203181979D01*
X493245705Y-203181979D02*
X493246092Y-203179905D01*
X493246092Y-203179905D02*
X493248023Y-203177581D01*
X493248023Y-203177581D02*
X493251407Y-203175021D01*
X493251407Y-203175021D02*
X493256148Y-203172242D01*
X493256148Y-203172242D02*
X493269333Y-203166091D01*
X493269333Y-203166091D02*
X493286832Y-203159252D01*
X493286832Y-203159252D02*
X493331787Y-203144022D01*
X493331787Y-203144022D02*
X493440636Y-203110890D01*
X493440636Y-203110890D02*
X493492591Y-203095012D01*
X493492591Y-203095012D02*
X493534940Y-203080944D01*
X493534940Y-203080944D02*
X493534932Y-203080876D01*
X493534932Y-203080876D02*
X493534932Y-203080876D01*
G36*
X494542115Y-202894755D02*
G01*
X494597703Y-202897822D01*
X494647276Y-202902604D01*
X494669164Y-202905653D01*
X494688774Y-202909147D01*
X494705851Y-202913091D01*
X494720136Y-202917492D01*
X494735865Y-202924087D01*
X494750871Y-202932196D01*
X494765180Y-202941739D01*
X494778817Y-202952638D01*
X494791807Y-202964813D01*
X494804177Y-202978185D01*
X494815951Y-202992676D01*
X494827156Y-203008206D01*
X494837817Y-203024696D01*
X494847958Y-203042067D01*
X494866788Y-203079137D01*
X494883848Y-203118782D01*
X494899345Y-203160371D01*
X494913481Y-203203271D01*
X494926461Y-203246850D01*
X494949770Y-203333514D01*
X494970904Y-203415305D01*
X494981167Y-203452792D01*
X494991498Y-203487164D01*
X495029648Y-203606570D01*
X495048880Y-203671833D01*
X495057767Y-203705047D01*
X495065873Y-203738342D01*
X495072981Y-203771489D01*
X495078870Y-203804256D01*
X495083320Y-203836412D01*
X495086112Y-203867728D01*
X495087025Y-203897973D01*
X495085841Y-203926917D01*
X495082338Y-203954328D01*
X495079650Y-203967387D01*
X495076299Y-203979977D01*
X495074143Y-203985353D01*
X495071580Y-203988470D01*
X495068619Y-203989440D01*
X495065271Y-203988378D01*
X495061544Y-203985397D01*
X495057449Y-203980610D01*
X495048187Y-203966075D01*
X495037561Y-203945680D01*
X495025647Y-203920335D01*
X494998252Y-203858426D01*
X494966604Y-203787616D01*
X494949373Y-203751143D01*
X494931303Y-203715171D01*
X494912471Y-203680607D01*
X494892951Y-203648359D01*
X494872818Y-203619337D01*
X494862545Y-203606319D01*
X494852147Y-203594448D01*
X494760335Y-203495414D01*
X494708770Y-203442448D01*
X494681701Y-203416059D01*
X494653821Y-203390097D01*
X494625169Y-203364835D01*
X494595780Y-203340546D01*
X494565690Y-203317503D01*
X494534936Y-203295981D01*
X494503555Y-203276251D01*
X494471583Y-203258586D01*
X494455387Y-203250615D01*
X494439056Y-203243262D01*
X494422596Y-203236562D01*
X494406011Y-203230549D01*
X494372144Y-203220360D01*
X494337258Y-203212267D01*
X494301547Y-203206062D01*
X494265205Y-203201538D01*
X494228424Y-203198488D01*
X494191398Y-203196703D01*
X494154320Y-203195975D01*
X494117383Y-203196098D01*
X494044708Y-203198061D01*
X493974918Y-203200932D01*
X493909559Y-203203048D01*
X493879025Y-203203304D01*
X493850179Y-203202747D01*
X493784954Y-203201002D01*
X493712500Y-203200000D01*
X493555588Y-203198644D01*
X493475967Y-203197499D01*
X493398794Y-203195515D01*
X493326490Y-203192298D01*
X493261472Y-203187451D01*
X493254747Y-203186538D01*
X493249939Y-203185311D01*
X493246956Y-203183786D01*
X493245705Y-203181979D01*
X493246092Y-203179905D01*
X493248023Y-203177581D01*
X493251407Y-203175021D01*
X493256148Y-203172242D01*
X493269333Y-203166091D01*
X493286832Y-203159252D01*
X493331787Y-203144022D01*
X493440636Y-203110890D01*
X493492591Y-203095012D01*
X493534940Y-203080944D01*
X493534932Y-203080876D01*
X493862268Y-202978177D01*
X493965635Y-202947923D01*
X494042849Y-202928105D01*
X494104443Y-202916003D01*
X494160952Y-202908897D01*
X494300855Y-202898792D01*
X494359884Y-202895424D01*
X494421145Y-202893600D01*
X494482576Y-202893363D01*
X494542115Y-202894755D01*
G37*
X494542115Y-202894755D02*
X494597703Y-202897822D01*
X494647276Y-202902604D01*
X494669164Y-202905653D01*
X494688774Y-202909147D01*
X494705851Y-202913091D01*
X494720136Y-202917492D01*
X494735865Y-202924087D01*
X494750871Y-202932196D01*
X494765180Y-202941739D01*
X494778817Y-202952638D01*
X494791807Y-202964813D01*
X494804177Y-202978185D01*
X494815951Y-202992676D01*
X494827156Y-203008206D01*
X494837817Y-203024696D01*
X494847958Y-203042067D01*
X494866788Y-203079137D01*
X494883848Y-203118782D01*
X494899345Y-203160371D01*
X494913481Y-203203271D01*
X494926461Y-203246850D01*
X494949770Y-203333514D01*
X494970904Y-203415305D01*
X494981167Y-203452792D01*
X494991498Y-203487164D01*
X495029648Y-203606570D01*
X495048880Y-203671833D01*
X495057767Y-203705047D01*
X495065873Y-203738342D01*
X495072981Y-203771489D01*
X495078870Y-203804256D01*
X495083320Y-203836412D01*
X495086112Y-203867728D01*
X495087025Y-203897973D01*
X495085841Y-203926917D01*
X495082338Y-203954328D01*
X495079650Y-203967387D01*
X495076299Y-203979977D01*
X495074143Y-203985353D01*
X495071580Y-203988470D01*
X495068619Y-203989440D01*
X495065271Y-203988378D01*
X495061544Y-203985397D01*
X495057449Y-203980610D01*
X495048187Y-203966075D01*
X495037561Y-203945680D01*
X495025647Y-203920335D01*
X494998252Y-203858426D01*
X494966604Y-203787616D01*
X494949373Y-203751143D01*
X494931303Y-203715171D01*
X494912471Y-203680607D01*
X494892951Y-203648359D01*
X494872818Y-203619337D01*
X494862545Y-203606319D01*
X494852147Y-203594448D01*
X494760335Y-203495414D01*
X494708770Y-203442448D01*
X494681701Y-203416059D01*
X494653821Y-203390097D01*
X494625169Y-203364835D01*
X494595780Y-203340546D01*
X494565690Y-203317503D01*
X494534936Y-203295981D01*
X494503555Y-203276251D01*
X494471583Y-203258586D01*
X494455387Y-203250615D01*
X494439056Y-203243262D01*
X494422596Y-203236562D01*
X494406011Y-203230549D01*
X494372144Y-203220360D01*
X494337258Y-203212267D01*
X494301547Y-203206062D01*
X494265205Y-203201538D01*
X494228424Y-203198488D01*
X494191398Y-203196703D01*
X494154320Y-203195975D01*
X494117383Y-203196098D01*
X494044708Y-203198061D01*
X493974918Y-203200932D01*
X493909559Y-203203048D01*
X493879025Y-203203304D01*
X493850179Y-203202747D01*
X493784954Y-203201002D01*
X493712500Y-203200000D01*
X493555588Y-203198644D01*
X493475967Y-203197499D01*
X493398794Y-203195515D01*
X493326490Y-203192298D01*
X493261472Y-203187451D01*
X493254747Y-203186538D01*
X493249939Y-203185311D01*
X493246956Y-203183786D01*
X493245705Y-203181979D01*
X493246092Y-203179905D01*
X493248023Y-203177581D01*
X493251407Y-203175021D01*
X493256148Y-203172242D01*
X493269333Y-203166091D01*
X493286832Y-203159252D01*
X493331787Y-203144022D01*
X493440636Y-203110890D01*
X493492591Y-203095012D01*
X493534940Y-203080944D01*
X493534932Y-203080876D01*
X493862268Y-202978177D01*
X493965635Y-202947923D01*
X494042849Y-202928105D01*
X494104443Y-202916003D01*
X494160952Y-202908897D01*
X494300855Y-202898792D01*
X494359884Y-202895424D01*
X494421145Y-202893600D01*
X494482576Y-202893363D01*
X494542115Y-202894755D01*
D10*
X493911804Y-197098348D02*
X493616630Y-197143283D01*
X497112539Y-205360177D02*
X497094655Y-205335890D01*
X491481492Y-205714030D02*
X491537790Y-205766872D01*
X500534630Y-203826278D02*
X500558044Y-203797010D01*
X488359205Y-200717592D02*
X488246937Y-200954037D01*
X493947210Y-202688938D02*
X493947210Y-202688938D01*
X496601267Y-204721680D02*
X496578336Y-204701906D01*
X491901310Y-206051489D02*
X491966232Y-206091989D01*
X497172649Y-205477206D02*
X497159168Y-205445308D01*
X500423507Y-202091447D02*
X500365949Y-201992050D01*
X496151987Y-206867090D02*
X496165311Y-206888541D01*
X493556463Y-206380451D02*
X493556463Y-206380451D01*
X497038128Y-201829387D02*
X496965987Y-201874101D01*
X500410818Y-206861555D02*
X500429985Y-206774382D01*
D17*
X504510129Y-209141857D02*
X504510129Y-209141857D01*
D10*
X491268377Y-205493221D02*
X491319854Y-205549512D01*
X497150649Y-206729947D02*
X497178075Y-206687615D01*
X500825992Y-206288516D02*
X500927184Y-206244499D01*
X500454348Y-207507098D02*
X500433298Y-207415542D01*
X487829554Y-202527893D02*
X487814695Y-202836597D01*
X498049912Y-204653662D02*
X498109578Y-204658513D01*
X494693937Y-210116810D02*
X497392324Y-209391781D01*
X496415934Y-204622263D02*
X496400627Y-204623342D01*
X489761021Y-207966746D02*
X489943967Y-208182290D01*
X488481962Y-200488561D02*
X488359205Y-200717592D01*
X490383953Y-208719545D02*
X490674375Y-209085278D01*
X496232854Y-206957360D02*
X496252879Y-206970592D01*
X490904190Y-198053618D02*
X490671741Y-198195480D01*
X489426144Y-199245568D02*
X489245190Y-199439306D01*
X491837635Y-206008733D02*
X491901310Y-206051489D01*
X496252110Y-204685008D02*
X496226975Y-204701808D01*
X501266508Y-206142902D02*
X501301433Y-206109422D01*
X499973119Y-204214329D02*
X499973119Y-204214329D01*
X487860284Y-202241831D02*
X487829554Y-202527893D01*
X496630278Y-203545081D02*
X496680372Y-203639659D01*
X490810625Y-209179784D02*
X490852727Y-209191283D01*
X497840689Y-204621856D02*
X497916155Y-204635617D01*
X499973119Y-204214329D02*
X500052266Y-204177015D01*
X501336770Y-205660826D02*
X501295265Y-205478924D01*
X496997357Y-205222015D02*
X496989674Y-205210802D01*
X492913757Y-202989308D02*
X492307382Y-203184440D01*
X495955267Y-205027491D02*
X495935317Y-205070470D01*
X495916878Y-205115771D02*
X495900117Y-205163417D01*
X500629766Y-207993932D02*
X500565944Y-207847798D01*
X495505784Y-204293003D02*
X495488426Y-204170570D01*
X496910619Y-205097538D02*
X496864558Y-205040758D01*
X497334526Y-206255883D02*
X497337517Y-206222046D01*
X491966232Y-206091989D02*
X492032405Y-206130071D01*
X497056851Y-206844293D02*
X497073652Y-206826841D01*
X499480344Y-199320943D02*
X499373031Y-199169583D01*
X500509952Y-203854671D02*
X500534630Y-203826278D01*
X491537790Y-205766872D02*
X491595305Y-205818443D01*
X497392324Y-209391781D02*
X497392324Y-209391781D01*
X487907277Y-201982731D02*
X487860284Y-202241831D01*
X500328676Y-201006887D02*
X500314923Y-201000350D01*
X496982642Y-205200038D02*
X496969228Y-205178773D01*
X496454159Y-204628569D02*
X496441673Y-204625290D01*
X490605565Y-204192356D02*
X490605565Y-204192356D01*
X493045581Y-208439427D02*
X493068830Y-208440330D01*
X496969228Y-205178773D02*
X496954496Y-205156048D01*
X500565944Y-207847798D02*
X500505868Y-207683824D01*
X496272592Y-202678645D02*
X496347673Y-202883192D01*
X500745354Y-203674482D02*
X500733265Y-203584205D01*
X491145658Y-205332596D02*
X491206842Y-205418500D01*
X496196402Y-206926238D02*
X496214000Y-206942594D01*
X493616630Y-197143283D02*
X493323780Y-197195955D01*
X500297818Y-201344566D02*
X500297040Y-201302240D01*
X488910914Y-199841581D02*
X488758043Y-200050994D01*
X500663740Y-202728952D02*
X500636136Y-202618380D01*
X493641808Y-208710553D02*
X493698443Y-208756740D01*
X500368409Y-201040424D02*
X500355433Y-201027104D01*
X488036793Y-204922421D02*
X488122014Y-205268677D01*
X496226975Y-204701808D02*
X496201360Y-204720670D01*
X500809707Y-203970012D02*
X500762471Y-203769212D01*
X493647418Y-206364063D02*
X493738373Y-206344655D01*
X500235673Y-201800164D02*
X500162923Y-201707905D01*
X497021890Y-206876876D02*
X497039595Y-206860988D01*
X488122014Y-205268677D02*
X488219959Y-205603020D01*
X495891864Y-206008034D02*
X495905836Y-206078620D01*
X491481728Y-203534559D02*
X491386477Y-203590354D01*
X495938524Y-206218372D02*
X495977429Y-206358970D01*
X488586205Y-206491376D02*
X488731112Y-206734872D01*
X494655827Y-210068070D02*
X494693937Y-210116810D01*
X493068830Y-208440330D02*
X493115425Y-208446243D01*
X496578336Y-204701906D02*
X496554410Y-204683066D01*
X500243351Y-200987641D02*
X500185398Y-200981943D01*
X500342184Y-201015865D02*
X500328676Y-201006887D01*
X492804024Y-206381587D02*
X492887712Y-206392867D01*
X494306885Y-209500962D02*
X494379300Y-209617197D01*
X496492014Y-204643836D02*
X496479363Y-204637914D01*
X500027579Y-200465998D02*
X499933964Y-200218127D01*
X500489139Y-201272798D02*
X500470608Y-201224242D01*
X492238485Y-206228169D02*
X492238485Y-206228169D01*
X497144712Y-205415057D02*
X497129197Y-205386623D01*
X497272344Y-205849323D02*
X497272344Y-205849323D01*
X491893590Y-203331593D02*
X491893590Y-203331593D01*
X489943967Y-208182290D02*
X490146048Y-208425887D01*
X495317426Y-203319486D02*
X495202987Y-202843104D01*
X490813884Y-204706000D02*
X490862477Y-204812627D01*
X500162923Y-201707905D02*
X500162923Y-201707905D01*
X491787430Y-203377406D02*
X491682921Y-203427137D01*
X496482058Y-203221357D02*
X496530610Y-203333761D01*
X491331144Y-209129291D02*
X491452310Y-209086130D01*
X495872290Y-205265828D02*
X495861557Y-205320636D01*
X497280775Y-205886850D02*
X497272344Y-205849323D01*
D17*
X506161573Y-209102558D02*
X505244100Y-208179409D01*
D10*
X499131918Y-198880152D02*
X498999183Y-198742247D01*
X496429311Y-204623036D02*
X496429265Y-204623051D01*
X490862477Y-204812627D02*
X490914417Y-204921321D01*
X496296104Y-206992667D02*
X496319135Y-207001619D01*
X497599087Y-204556248D02*
X497677432Y-204583201D01*
X497248215Y-206553494D02*
X497267402Y-206507728D01*
X495518776Y-204417633D02*
X495517659Y-204402546D01*
X496517245Y-204657820D02*
X496504653Y-204650496D01*
X496691526Y-204814457D02*
X496677628Y-204798632D01*
X496663485Y-207017902D02*
X496717101Y-207008257D01*
X500826345Y-208298359D02*
X500813221Y-208291491D01*
X491145719Y-197921643D02*
X490904190Y-198053618D01*
X500732473Y-203278553D02*
X500736130Y-203035448D01*
D17*
X505244100Y-208179409D02*
X504510129Y-209141857D01*
D10*
X501327847Y-206067282D02*
X501346272Y-206016986D01*
X492307382Y-203184440D02*
X492064585Y-203267667D01*
X496565162Y-202145275D02*
X496492928Y-202189761D01*
X496943629Y-204031020D02*
X497000486Y-204100907D01*
X496643061Y-204761736D02*
X496622932Y-204741816D01*
X494816659Y-197017793D02*
X494506421Y-197030827D01*
X496429265Y-204623051D02*
X496415934Y-204622263D01*
X491130718Y-203754689D02*
X490992374Y-203852222D01*
X500163251Y-200817005D02*
X500086923Y-200622439D01*
X500732473Y-203278553D02*
X500732473Y-203278553D01*
X500726255Y-203419026D02*
X500728031Y-203301416D01*
X497740823Y-201534189D02*
X497538154Y-201599931D01*
X500270363Y-201463538D02*
X500281048Y-201440487D01*
X495488426Y-204170570D02*
X495440711Y-203898047D01*
X500243639Y-201498826D02*
X500257766Y-201482841D01*
X500505908Y-201321035D02*
X500489139Y-201272798D01*
X488246937Y-200954037D02*
X488145385Y-201198336D01*
X498660436Y-204615719D02*
X498759356Y-204603845D01*
X491372529Y-205605186D02*
X491426407Y-205660080D01*
X496633921Y-202100374D02*
X496565162Y-202145275D01*
X491714006Y-205917114D02*
X491775202Y-205963887D01*
X495847281Y-205437567D02*
X495844070Y-205499732D01*
X487975329Y-201712245D02*
X487907277Y-201982731D01*
X499886752Y-200102013D02*
X499830643Y-199974655D01*
X501041333Y-206208737D02*
X501169042Y-206181866D01*
D18*
X492419642Y-211824107D02*
X492919642Y-211824107D01*
X493133928Y-212609821D02*
X492419642Y-212609821D01*
X492419642Y-211109821D01*
X493133928Y-211109821D01*
X493776785Y-211609821D02*
X493776785Y-212609821D01*
X493776785Y-211752678D02*
X493848214Y-211681250D01*
X493991071Y-211609821D01*
X494205357Y-211609821D01*
X494348214Y-211681250D01*
X494419642Y-211824107D01*
X494419642Y-212609821D01*
X495133928Y-211609821D02*
X495133928Y-212895535D01*
X495062500Y-213038392D01*
X494919642Y-213109821D01*
X494848214Y-213109821D01*
X495133928Y-211109821D02*
X495062500Y-211181250D01*
X495133928Y-211252678D01*
X495205357Y-211181250D01*
X495133928Y-211109821D01*
X495133928Y-211252678D01*
X496062500Y-212609821D02*
X495919642Y-212538392D01*
X495848214Y-212466964D01*
X495776785Y-212324107D01*
X495776785Y-211895535D01*
X495848214Y-211752678D01*
X495919642Y-211681250D01*
X496062500Y-211609821D01*
X496276785Y-211609821D01*
X496419642Y-211681250D01*
X496491071Y-211752678D01*
X496562500Y-211895535D01*
X496562500Y-212324107D01*
X496491071Y-212466964D01*
X496419642Y-212538392D01*
X496276785Y-212609821D01*
X496062500Y-212609821D01*
X497062500Y-211609821D02*
X497419642Y-212609821D01*
X497776785Y-211609821D02*
X497419642Y-212609821D01*
X497276785Y-212966964D01*
X497205357Y-213038392D01*
X497062500Y-213109821D01*
X499348214Y-211609821D02*
X499705357Y-212609821D01*
X500062500Y-211609821D02*
X499705357Y-212609821D01*
X499562500Y-212966964D01*
X499491071Y-213038392D01*
X499348214Y-213109821D01*
X500848214Y-212609821D02*
X500705357Y-212538392D01*
X500633928Y-212466964D01*
X500562500Y-212324107D01*
X500562500Y-211895535D01*
X500633928Y-211752678D01*
X500705357Y-211681250D01*
X500848214Y-211609821D01*
X501062500Y-211609821D01*
X501205357Y-211681250D01*
X501276785Y-211752678D01*
X501348214Y-211895535D01*
X501348214Y-212324107D01*
X501276785Y-212466964D01*
X501205357Y-212538392D01*
X501062500Y-212609821D01*
X500848214Y-212609821D01*
X502633928Y-211609821D02*
X502633928Y-212609821D01*
X501991071Y-211609821D02*
X501991071Y-212395535D01*
X502062500Y-212538392D01*
X502205357Y-212609821D01*
X502419642Y-212609821D01*
X502562500Y-212538392D01*
X502633928Y-212466964D01*
X503348214Y-212609821D02*
X503348214Y-211609821D01*
X503348214Y-211895535D02*
X503419642Y-211752678D01*
X503491071Y-211681250D01*
X503633928Y-211609821D01*
X503776785Y-211609821D01*
X504205357Y-212538392D02*
X504348214Y-212609821D01*
X504633928Y-212609821D01*
X504776785Y-212538392D01*
X504848214Y-212395535D01*
X504848214Y-212324107D01*
X504776785Y-212181250D01*
X504633928Y-212109821D01*
X504419642Y-212109821D01*
X504276785Y-212038392D01*
X504205357Y-211895535D01*
X504205357Y-211824107D01*
X504276785Y-211681250D01*
X504419642Y-211609821D01*
X504633928Y-211609821D01*
X504776785Y-211681250D01*
X506062500Y-212538392D02*
X505919642Y-212609821D01*
X505633928Y-212609821D01*
X505491071Y-212538392D01*
X505419642Y-212395535D01*
X505419642Y-211824107D01*
X505491071Y-211681250D01*
X505633928Y-211609821D01*
X505919642Y-211609821D01*
X506062500Y-211681250D01*
X506133928Y-211824107D01*
X506133928Y-211966964D01*
X505419642Y-212109821D01*
X506991071Y-212609821D02*
X506848214Y-212538392D01*
X506776785Y-212395535D01*
X506776785Y-211109821D01*
X507348214Y-211609821D02*
X507919642Y-211609821D01*
X507562500Y-212609821D02*
X507562500Y-211324107D01*
X507633928Y-211181250D01*
X507776785Y-211109821D01*
X507919642Y-211109821D01*
X362173214Y-288666964D02*
X362101785Y-288738392D01*
X361887500Y-288809821D01*
X361744642Y-288809821D01*
X361530357Y-288738392D01*
X361387500Y-288595535D01*
X361316071Y-288452678D01*
X361244642Y-288166964D01*
X361244642Y-287952678D01*
X361316071Y-287666964D01*
X361387500Y-287524107D01*
X361530357Y-287381250D01*
X361744642Y-287309821D01*
X361887500Y-287309821D01*
X362101785Y-287381250D01*
X362173214Y-287452678D01*
X362816071Y-288809821D02*
X362816071Y-287809821D01*
X362816071Y-288095535D02*
X362887500Y-287952678D01*
X362958928Y-287881250D01*
X363101785Y-287809821D01*
X363244642Y-287809821D01*
X364316071Y-288738392D02*
X364173214Y-288809821D01*
X363887500Y-288809821D01*
X363744642Y-288738392D01*
X363673214Y-288595535D01*
X363673214Y-288024107D01*
X363744642Y-287881250D01*
X363887500Y-287809821D01*
X364173214Y-287809821D01*
X364316071Y-287881250D01*
X364387500Y-288024107D01*
X364387500Y-288166964D01*
X363673214Y-288309821D01*
X365673214Y-288809821D02*
X365673214Y-288024107D01*
X365601785Y-287881250D01*
X365458928Y-287809821D01*
X365173214Y-287809821D01*
X365030357Y-287881250D01*
X365673214Y-288738392D02*
X365530357Y-288809821D01*
X365173214Y-288809821D01*
X365030357Y-288738392D01*
X364958928Y-288595535D01*
X364958928Y-288452678D01*
X365030357Y-288309821D01*
X365173214Y-288238392D01*
X365530357Y-288238392D01*
X365673214Y-288166964D01*
X366173214Y-287809821D02*
X366744642Y-287809821D01*
X366387500Y-287309821D02*
X366387500Y-288595535D01*
X366458928Y-288738392D01*
X366601785Y-288809821D01*
X366744642Y-288809821D01*
X367816071Y-288738392D02*
X367673214Y-288809821D01*
X367387500Y-288809821D01*
X367244642Y-288738392D01*
X367173214Y-288595535D01*
X367173214Y-288024107D01*
X367244642Y-287881250D01*
X367387500Y-287809821D01*
X367673214Y-287809821D01*
X367816071Y-287881250D01*
X367887500Y-288024107D01*
X367887500Y-288166964D01*
X367173214Y-288309821D01*
X369173214Y-288809821D02*
X369173214Y-287309821D01*
X369173214Y-288738392D02*
X369030357Y-288809821D01*
X368744642Y-288809821D01*
X368601785Y-288738392D01*
X368530357Y-288666964D01*
X368458928Y-288524107D01*
X368458928Y-288095535D01*
X368530357Y-287952678D01*
X368601785Y-287881250D01*
X368744642Y-287809821D01*
X369030357Y-287809821D01*
X369173214Y-287881250D01*
X371030357Y-288809821D02*
X371030357Y-287309821D01*
X371030357Y-287881250D02*
X371173214Y-287809821D01*
X371458928Y-287809821D01*
X371601785Y-287881250D01*
X371673214Y-287952678D01*
X371744642Y-288095535D01*
X371744642Y-288524107D01*
X371673214Y-288666964D01*
X371601785Y-288738392D01*
X371458928Y-288809821D01*
X371173214Y-288809821D01*
X371030357Y-288738392D01*
X372244642Y-287809821D02*
X372601785Y-288809821D01*
X372958928Y-287809821D02*
X372601785Y-288809821D01*
X372458928Y-289166964D01*
X372387500Y-289238392D01*
X372244642Y-289309821D01*
X375316071Y-288809821D02*
X375316071Y-287309821D01*
X375316071Y-288738392D02*
X375173214Y-288809821D01*
X374887500Y-288809821D01*
X374744642Y-288738392D01*
X374673214Y-288666964D01*
X374601785Y-288524107D01*
X374601785Y-288095535D01*
X374673214Y-287952678D01*
X374744642Y-287881250D01*
X374887500Y-287809821D01*
X375173214Y-287809821D01*
X375316071Y-287881250D01*
X375887500Y-287809821D02*
X376244642Y-288809821D01*
X376601785Y-287809821D02*
X376244642Y-288809821D01*
X376101785Y-289166964D01*
X376030357Y-289238392D01*
X375887500Y-289309821D01*
X377387500Y-288809821D02*
X377244642Y-288738392D01*
X377173214Y-288595535D01*
X377173214Y-287309821D01*
X377958928Y-288809821D02*
X377958928Y-287309821D01*
X378101785Y-288238392D02*
X378530357Y-288809821D01*
X378530357Y-287809821D02*
X377958928Y-288381250D01*
M02*
