%TF.GenerationSoftware,KiCad,Pcbnew,(6.0.1)*%
%TF.CreationDate,2022-02-12T16:29:40-05:00*%
%TF.ProjectId,PCB,5043422e-6b69-4636-9164-5f7063625858,rev?*%
%TF.SameCoordinates,Original*%
%TF.FileFunction,Soldermask,Bot*%
%TF.FilePolarity,Negative*%
%FSLAX46Y46*%
G04 Gerber Fmt 4.6, Leading zero omitted, Abs format (unit mm)*
G04 Created by KiCad (PCBNEW (6.0.1)) date 2022-02-12 16:29:40*
%MOMM*%
%LPD*%
G01*
G04 APERTURE LIST*
G04 Aperture macros list*
%AMRoundRect*
0 Rectangle with rounded corners*
0 $1 Rounding radius*
0 $2 $3 $4 $5 $6 $7 $8 $9 X,Y pos of 4 corners*
0 Add a 4 corners polygon primitive as box body*
4,1,4,$2,$3,$4,$5,$6,$7,$8,$9,$2,$3,0*
0 Add four circle primitives for the rounded corners*
1,1,$1+$1,$2,$3*
1,1,$1+$1,$4,$5*
1,1,$1+$1,$6,$7*
1,1,$1+$1,$8,$9*
0 Add four rect primitives between the rounded corners*
20,1,$1+$1,$2,$3,$4,$5,0*
20,1,$1+$1,$4,$5,$6,$7,0*
20,1,$1+$1,$6,$7,$8,$9,0*
20,1,$1+$1,$8,$9,$2,$3,0*%
G04 Aperture macros list end*
%ADD10C,1.750000*%
%ADD11C,3.987800*%
%ADD12C,2.250000*%
%ADD13R,1.800000X1.100000*%
%ADD14RoundRect,0.250000X0.337500X0.475000X-0.337500X0.475000X-0.337500X-0.475000X0.337500X-0.475000X0*%
%ADD15R,1.200000X0.900000*%
%ADD16RoundRect,0.250000X-0.450000X0.262500X-0.450000X-0.262500X0.450000X-0.262500X0.450000X0.262500X0*%
%ADD17RoundRect,0.250000X-0.337500X-0.475000X0.337500X-0.475000X0.337500X0.475000X-0.337500X0.475000X0*%
%ADD18R,0.900000X1.200000*%
%ADD19RoundRect,0.250000X0.262500X0.450000X-0.262500X0.450000X-0.262500X-0.450000X0.262500X-0.450000X0*%
%ADD20RoundRect,0.250000X0.450000X-0.262500X0.450000X0.262500X-0.450000X0.262500X-0.450000X-0.262500X0*%
%ADD21R,0.550000X1.500000*%
%ADD22R,1.500000X0.550000*%
%ADD23R,1.800000X1.200000*%
%ADD24R,1.550000X0.600000*%
%ADD25R,1.200000X1.400000*%
%ADD26RoundRect,0.250000X-0.475000X0.337500X-0.475000X-0.337500X0.475000X-0.337500X0.475000X0.337500X0*%
%ADD27RoundRect,0.250000X0.475000X-0.337500X0.475000X0.337500X-0.475000X0.337500X-0.475000X-0.337500X0*%
G04 APERTURE END LIST*
D10*
%TO.C,K65*%
X351463750Y-262580751D03*
D11*
X356543750Y-262580751D03*
D10*
X361623750Y-262580751D03*
D12*
X352733750Y-260040751D03*
X359083750Y-257500751D03*
%TD*%
D10*
%TO.C,K11*%
X308601250Y-205430751D03*
D11*
X313681250Y-205430751D03*
D10*
X318761250Y-205430751D03*
D12*
X309871250Y-202890751D03*
X316221250Y-200350751D03*
%TD*%
D10*
%TO.C,K66*%
X380673750Y-262580751D03*
D11*
X375593750Y-262580751D03*
D10*
X370513750Y-262580751D03*
D12*
X371783750Y-260040751D03*
X378133750Y-257500751D03*
%TD*%
D11*
%TO.C,K22*%
X204143750Y-224480751D03*
D10*
X199063750Y-224480751D03*
X209223750Y-224480751D03*
D12*
X200333750Y-221940751D03*
X206683750Y-219400751D03*
%TD*%
D10*
%TO.C,K37*%
X108426250Y-243530751D03*
D11*
X113506250Y-243530751D03*
D10*
X118586250Y-243530751D03*
D12*
X109696250Y-240990751D03*
X116046250Y-238450751D03*
%TD*%
D10*
%TO.C,K83*%
X470376250Y-286393251D03*
X480536250Y-286393251D03*
D11*
X475456250Y-286393251D03*
D12*
X471646250Y-283853251D03*
X477996250Y-281313251D03*
%TD*%
D10*
%TO.C,K3*%
X146526250Y-205430751D03*
D11*
X151606250Y-205430751D03*
D10*
X156686250Y-205430751D03*
D12*
X147796250Y-202890751D03*
X154146250Y-200350751D03*
%TD*%
D10*
%TO.C,K43*%
X256848750Y-243530751D03*
X246688750Y-243530751D03*
D11*
X251768750Y-243530751D03*
D12*
X247958750Y-240990751D03*
X254308750Y-238450751D03*
%TD*%
D10*
%TO.C,K13*%
X346701250Y-205430751D03*
D11*
X351781250Y-205430751D03*
D10*
X356861250Y-205430751D03*
D12*
X347971250Y-202890751D03*
X354321250Y-200350751D03*
%TD*%
D10*
%TO.C,K46*%
X303838750Y-243530751D03*
X313998750Y-243530751D03*
D11*
X308918750Y-243530751D03*
D12*
X305108750Y-240990751D03*
X311458750Y-238450751D03*
%TD*%
D11*
%TO.C,K76*%
X225575000Y-281630751D03*
D10*
X230655000Y-281630751D03*
X220495000Y-281630751D03*
D12*
X221765000Y-279090751D03*
X228115000Y-276550751D03*
%TD*%
D11*
%TO.C,K12*%
X332731250Y-205430751D03*
D10*
X337811250Y-205430751D03*
X327651250Y-205430751D03*
D12*
X328921250Y-202890751D03*
X335271250Y-200350751D03*
%TD*%
D10*
%TO.C,K30*%
X356226250Y-224480751D03*
D11*
X361306250Y-224480751D03*
D10*
X366386250Y-224480751D03*
D12*
X357496250Y-221940751D03*
X363846250Y-219400751D03*
%TD*%
D11*
%TO.C,K15*%
X389881250Y-205430751D03*
D10*
X394961250Y-205430751D03*
X384801250Y-205430751D03*
D12*
X386071250Y-202890751D03*
X392421250Y-200350751D03*
%TD*%
D11*
%TO.C,K35*%
X461318750Y-224480751D03*
D10*
X456238750Y-224480751D03*
X466398750Y-224480751D03*
D12*
X457508750Y-221940751D03*
X463858750Y-219400751D03*
%TD*%
D10*
%TO.C,K48*%
X341938750Y-243530751D03*
X352098750Y-243530751D03*
D11*
X347018750Y-243530751D03*
D12*
X343208750Y-240990751D03*
X349558750Y-238450751D03*
%TD*%
D11*
%TO.C,K67*%
X394643750Y-262580751D03*
D10*
X399723750Y-262580751D03*
X389563750Y-262580751D03*
D12*
X390833750Y-260040751D03*
X397183750Y-257500751D03*
%TD*%
D10*
%TO.C,K69*%
X447198750Y-262731250D03*
D11*
X442118750Y-262731250D03*
D10*
X437038750Y-262731250D03*
D12*
X438308750Y-260191250D03*
X444658750Y-257651250D03*
%TD*%
D11*
%TO.C,K2*%
X132556250Y-205430751D03*
D10*
X127476250Y-205430751D03*
X137636250Y-205430751D03*
D12*
X128746250Y-202890751D03*
X135096250Y-200350751D03*
%TD*%
D10*
%TO.C,K63*%
X313363750Y-262580751D03*
D11*
X318443750Y-262580751D03*
D10*
X323523750Y-262580751D03*
D12*
X314633750Y-260040751D03*
X320983750Y-257500751D03*
%TD*%
D11*
%TO.C,K17*%
X427981250Y-205430751D03*
D10*
X422901250Y-205430751D03*
X433061250Y-205430751D03*
D12*
X424171250Y-202890751D03*
X430521250Y-200350751D03*
%TD*%
D11*
%TO.C,K36*%
X499268750Y-224631250D03*
D10*
X504348750Y-224631250D03*
X494188750Y-224631250D03*
D12*
X495458750Y-222091250D03*
X501808750Y-219551250D03*
%TD*%
D11*
%TO.C,K49*%
X366068750Y-243530751D03*
D10*
X360988750Y-243530751D03*
X371148750Y-243530751D03*
D12*
X362258750Y-240990751D03*
X368608750Y-238450751D03*
%TD*%
D13*
%TO.C,SW1*%
X281856250Y-289305751D03*
X275656250Y-293005751D03*
X281856250Y-293005751D03*
X275656250Y-289305751D03*
%TD*%
D11*
%TO.C,K40*%
X170656250Y-234005751D03*
D10*
X175736250Y-234005751D03*
X165576250Y-234005751D03*
D12*
X166846250Y-231465751D03*
X173196250Y-228925751D03*
%TD*%
D10*
%TO.C,K73*%
X156686250Y-281630751D03*
D11*
X151606250Y-281630751D03*
D10*
X146526250Y-281630751D03*
D12*
X147796250Y-279090751D03*
X154146250Y-276550751D03*
%TD*%
D10*
%TO.C,K51*%
X409248750Y-243530751D03*
D11*
X404168750Y-243530751D03*
D10*
X399088750Y-243530751D03*
D12*
X400358750Y-240990751D03*
X406708750Y-238450751D03*
%TD*%
D10*
%TO.C,K44*%
X275898750Y-243530751D03*
D11*
X270818750Y-243530751D03*
D10*
X265738750Y-243530751D03*
D12*
X267008750Y-240990751D03*
X273358750Y-238450751D03*
%TD*%
D10*
%TO.C,K47*%
X322888750Y-243530751D03*
X333048750Y-243530751D03*
D11*
X327968750Y-243530751D03*
D12*
X324158750Y-240990751D03*
X330508750Y-238450751D03*
%TD*%
D11*
%TO.C,K29*%
X342256250Y-224480751D03*
D10*
X347336250Y-224480751D03*
X337176250Y-224480751D03*
D12*
X338446250Y-221940751D03*
X344796250Y-219400751D03*
%TD*%
D10*
%TO.C,K59*%
X237163750Y-262580751D03*
X247323750Y-262580751D03*
D11*
X242243750Y-262580751D03*
D12*
X238433750Y-260040751D03*
X244783750Y-257500751D03*
%TD*%
D10*
%TO.C,K57*%
X156686250Y-262580751D03*
X146526250Y-262580751D03*
D11*
X151606250Y-262580751D03*
D12*
X147796250Y-260040751D03*
X154146250Y-257500751D03*
%TD*%
D10*
%TO.C,K55*%
X118586250Y-262580751D03*
D11*
X113506250Y-262580751D03*
D10*
X108426250Y-262580751D03*
D12*
X109696250Y-260040751D03*
X116046250Y-257500751D03*
%TD*%
D10*
%TO.C,K31*%
X385436250Y-224480751D03*
D11*
X380356250Y-224480751D03*
D10*
X375276250Y-224480751D03*
D12*
X376546250Y-221940751D03*
X382896250Y-219400751D03*
%TD*%
D10*
%TO.C,K82*%
X461486250Y-286543750D03*
X451326250Y-286543750D03*
D11*
X456406250Y-286543750D03*
D12*
X452596250Y-284003750D03*
X458946250Y-281463750D03*
%TD*%
D10*
%TO.C,K81*%
X422901250Y-281630751D03*
X433061250Y-281630751D03*
D11*
X427981250Y-281630751D03*
D12*
X424171250Y-279090751D03*
X430521250Y-276550751D03*
%TD*%
D10*
%TO.C,K20*%
X137636250Y-224631250D03*
X127476250Y-224631250D03*
D11*
X132556250Y-224631250D03*
D12*
X128746250Y-222091250D03*
X135096250Y-219551250D03*
%TD*%
D11*
%TO.C,K6*%
X218431250Y-205430751D03*
D10*
X213351250Y-205430751D03*
X223511250Y-205430751D03*
D12*
X214621250Y-202890751D03*
X220971250Y-200350751D03*
%TD*%
D10*
%TO.C,K32*%
X394326250Y-224480751D03*
D11*
X399406250Y-224480751D03*
D10*
X404486250Y-224480751D03*
D12*
X395596250Y-221940751D03*
X401946250Y-219400751D03*
%TD*%
D11*
%TO.C,K54*%
X499268750Y-243681250D03*
D10*
X494188750Y-243681250D03*
X504348750Y-243681250D03*
D12*
X495458750Y-241141250D03*
X501808750Y-238601250D03*
%TD*%
D11*
%TO.C,K26*%
X285106250Y-224480751D03*
D10*
X280026250Y-224480751D03*
X290186250Y-224480751D03*
D12*
X281296250Y-221940751D03*
X287646250Y-219400751D03*
%TD*%
D10*
%TO.C,K80*%
X414011250Y-281630751D03*
X403851250Y-281630751D03*
D11*
X408931250Y-281630751D03*
D12*
X405121250Y-279090751D03*
X411471250Y-276550751D03*
%TD*%
D11*
%TO.C,K16*%
X408931250Y-205430751D03*
D10*
X414011250Y-205430751D03*
X403851250Y-205430751D03*
D12*
X405121250Y-202890751D03*
X411471250Y-200350751D03*
%TD*%
D10*
%TO.C,K41*%
X211605000Y-243530751D03*
X201445000Y-243530751D03*
D11*
X206525000Y-243530751D03*
D12*
X202715000Y-240990751D03*
X209065000Y-238450751D03*
%TD*%
D10*
%TO.C,K4*%
X175736250Y-205430751D03*
X165576250Y-205430751D03*
D11*
X170656250Y-205430751D03*
D12*
X166846250Y-202890751D03*
X173196250Y-200350751D03*
%TD*%
D11*
%TO.C,K52*%
X423218750Y-243530751D03*
D10*
X418138750Y-243530751D03*
X428298750Y-243530751D03*
D12*
X419408750Y-240990751D03*
X425758750Y-238450751D03*
%TD*%
D10*
%TO.C,K77*%
X244307500Y-281630751D03*
X254467500Y-281630751D03*
D11*
X249387500Y-281630751D03*
D12*
X245577500Y-279090751D03*
X251927500Y-276550751D03*
%TD*%
D10*
%TO.C,K75*%
X206842500Y-281630751D03*
D11*
X201762500Y-281630751D03*
D10*
X196682500Y-281630751D03*
D12*
X197952500Y-279090751D03*
X204302500Y-276550751D03*
%TD*%
D10*
%TO.C,K28*%
X328286250Y-224480751D03*
D11*
X323206250Y-224480751D03*
D10*
X318126250Y-224480751D03*
D12*
X319396250Y-221940751D03*
X325746250Y-219400751D03*
%TD*%
D10*
%TO.C,K50*%
X380038750Y-243530751D03*
X390198750Y-243530751D03*
D11*
X385118750Y-243530751D03*
D12*
X381308750Y-240990751D03*
X387658750Y-238450751D03*
%TD*%
D10*
%TO.C,K5*%
X194301250Y-205430751D03*
D11*
X199381250Y-205430751D03*
D10*
X204461250Y-205430751D03*
D12*
X195571250Y-202890751D03*
X201921250Y-200350751D03*
%TD*%
D10*
%TO.C,K33*%
X423536250Y-224480751D03*
X413376250Y-224480751D03*
D11*
X418456250Y-224480751D03*
D12*
X414646250Y-221940751D03*
X420996250Y-219400751D03*
%TD*%
D10*
%TO.C,K62*%
X294313750Y-262580751D03*
X304473750Y-262580751D03*
D11*
X299393750Y-262580751D03*
D12*
X295583750Y-260040751D03*
X301933750Y-257500751D03*
%TD*%
D10*
%TO.C,K74*%
X175736250Y-272105751D03*
X165576250Y-272105751D03*
D11*
X170656250Y-272105751D03*
D12*
X166846250Y-269565751D03*
X173196250Y-267025751D03*
%TD*%
D10*
%TO.C,K84*%
X489426250Y-286543750D03*
D11*
X494506250Y-286543750D03*
D10*
X499586250Y-286543750D03*
D12*
X490696250Y-284003750D03*
X497046250Y-281463750D03*
%TD*%
D10*
%TO.C,K34*%
X432426250Y-224480751D03*
D11*
X437506250Y-224480751D03*
D10*
X442586250Y-224480751D03*
D12*
X433696250Y-221940751D03*
X440046250Y-219400751D03*
%TD*%
D10*
%TO.C,K61*%
X275263750Y-262580751D03*
D11*
X280343750Y-262580751D03*
D10*
X285423750Y-262580751D03*
D12*
X276533750Y-260040751D03*
X282883750Y-257500751D03*
%TD*%
D10*
%TO.C,K14*%
X365751250Y-205430751D03*
D11*
X370831250Y-205430751D03*
D10*
X375911250Y-205430751D03*
D12*
X367021250Y-202890751D03*
X373371250Y-200350751D03*
%TD*%
D11*
%TO.C,K10*%
X294631250Y-205430751D03*
D10*
X289551250Y-205430751D03*
X299711250Y-205430751D03*
D12*
X290821250Y-202890751D03*
X297171250Y-200350751D03*
%TD*%
D10*
%TO.C,K1*%
X118586250Y-205430751D03*
X108426250Y-205430751D03*
D11*
X113506250Y-205430751D03*
D12*
X109696250Y-202890751D03*
X116046250Y-200350751D03*
%TD*%
D10*
%TO.C,K79*%
X384801250Y-281630751D03*
D11*
X389881250Y-281630751D03*
D10*
X394961250Y-281630751D03*
D12*
X386071250Y-279090751D03*
X392421250Y-276550751D03*
%TD*%
D11*
%TO.C,K23*%
X227956250Y-224480751D03*
D10*
X222876250Y-224480751D03*
X233036250Y-224480751D03*
D12*
X224146250Y-221940751D03*
X230496250Y-219400751D03*
%TD*%
D10*
%TO.C,K8*%
X251451250Y-205430751D03*
X261611250Y-205430751D03*
D11*
X256531250Y-205430751D03*
D12*
X252721250Y-202890751D03*
X259071250Y-200350751D03*
%TD*%
D10*
%TO.C,K71*%
X494188750Y-262731250D03*
X504348750Y-262731250D03*
D11*
X499268750Y-262731250D03*
D12*
X495458750Y-260191250D03*
X501808750Y-257651250D03*
%TD*%
D10*
%TO.C,K70*%
X480536250Y-267493750D03*
D11*
X475456250Y-267493750D03*
D10*
X470376250Y-267493750D03*
D12*
X471646250Y-264953750D03*
X477996250Y-262413750D03*
%TD*%
D10*
%TO.C,K18*%
X451476250Y-205430751D03*
D11*
X456556250Y-205430751D03*
D10*
X461636250Y-205430751D03*
D12*
X452746250Y-202890751D03*
X459096250Y-200350751D03*
%TD*%
D10*
%TO.C,K78*%
X325746250Y-281789501D03*
X315586250Y-281789501D03*
D11*
X320666250Y-281789501D03*
D12*
X316856250Y-279249501D03*
X323206250Y-276709501D03*
%TD*%
D11*
%TO.C,K25*%
X266056250Y-224480751D03*
D10*
X271136250Y-224480751D03*
X260976250Y-224480751D03*
D12*
X262246250Y-221940751D03*
X268596250Y-219400751D03*
%TD*%
D11*
%TO.C,K53*%
X454175000Y-243530751D03*
D10*
X449095000Y-243530751D03*
X459255000Y-243530751D03*
D12*
X450365000Y-240990751D03*
X456715000Y-238450751D03*
%TD*%
D10*
%TO.C,K72*%
X117951250Y-281630751D03*
X128111250Y-281630751D03*
D11*
X123031250Y-281630751D03*
D12*
X119221250Y-279090751D03*
X125571250Y-276550751D03*
%TD*%
D10*
%TO.C,K7*%
X242561250Y-205430751D03*
D11*
X237481250Y-205430751D03*
D10*
X232401250Y-205430751D03*
D12*
X233671250Y-202890751D03*
X240021250Y-200350751D03*
%TD*%
D11*
%TO.C,K24*%
X247006250Y-224480751D03*
D10*
X252086250Y-224480751D03*
X241926250Y-224480751D03*
D12*
X243196250Y-221940751D03*
X249546250Y-219400751D03*
%TD*%
D10*
%TO.C,K21*%
X146526250Y-224480751D03*
X156686250Y-224480751D03*
D11*
X151606250Y-224480751D03*
D12*
X147796250Y-221940751D03*
X154146250Y-219400751D03*
%TD*%
D10*
%TO.C,K38*%
X127476250Y-243530751D03*
D11*
X132556250Y-243530751D03*
D10*
X137636250Y-243530751D03*
D12*
X128746250Y-240990751D03*
X135096250Y-238450751D03*
%TD*%
D10*
%TO.C,K58*%
X216367500Y-262580751D03*
D11*
X211287500Y-262580751D03*
D10*
X206207500Y-262580751D03*
D12*
X207477500Y-260040751D03*
X213827500Y-257500751D03*
%TD*%
D10*
%TO.C,K68*%
X408613750Y-262580751D03*
D11*
X413693750Y-262580751D03*
D10*
X418773750Y-262580751D03*
D12*
X409883750Y-260040751D03*
X416233750Y-257500751D03*
%TD*%
D10*
%TO.C,K42*%
X237798750Y-243530751D03*
D11*
X232718750Y-243530751D03*
D10*
X227638750Y-243530751D03*
D12*
X228908750Y-240990751D03*
X235258750Y-238450751D03*
%TD*%
D10*
%TO.C,K45*%
X284788750Y-243530751D03*
D11*
X289868750Y-243530751D03*
D10*
X294948750Y-243530751D03*
D12*
X286058750Y-240990751D03*
X292408750Y-238450751D03*
%TD*%
D11*
%TO.C,K9*%
X275581250Y-205430751D03*
D10*
X280661250Y-205430751D03*
X270501250Y-205430751D03*
D12*
X271771250Y-202890751D03*
X278121250Y-200350751D03*
%TD*%
D11*
%TO.C,K39*%
X151606250Y-243530751D03*
D10*
X146526250Y-243530751D03*
X156686250Y-243530751D03*
D12*
X147796250Y-240990751D03*
X154146250Y-238450751D03*
%TD*%
D10*
%TO.C,K56*%
X137636250Y-262580751D03*
D11*
X132556250Y-262580751D03*
D10*
X127476250Y-262580751D03*
D12*
X128746250Y-260040751D03*
X135096250Y-257500751D03*
%TD*%
D11*
%TO.C,K27*%
X304156250Y-224480751D03*
D10*
X309236250Y-224480751D03*
X299076250Y-224480751D03*
D12*
X300346250Y-221940751D03*
X306696250Y-219400751D03*
%TD*%
D10*
%TO.C,K60*%
X266373750Y-262580751D03*
X256213750Y-262580751D03*
D11*
X261293750Y-262580751D03*
D12*
X257483750Y-260040751D03*
X263833750Y-257500751D03*
%TD*%
D10*
%TO.C,K19*%
X108426250Y-224480751D03*
X118586250Y-224480751D03*
D11*
X113506250Y-224480751D03*
D12*
X109696250Y-221940751D03*
X116046250Y-219400751D03*
%TD*%
D11*
%TO.C,K64*%
X337493750Y-262580751D03*
D10*
X332413750Y-262580751D03*
X342573750Y-262580751D03*
D12*
X333683750Y-260040751D03*
X340033750Y-257500751D03*
%TD*%
D14*
%TO.C,C1*%
X304518750Y-270399501D03*
X302443750Y-270399501D03*
%TD*%
D15*
%TO.C,D45*%
X310506250Y-259468251D03*
X310506250Y-256168251D03*
%TD*%
%TO.C,D40*%
X297806250Y-249943251D03*
X297806250Y-246643251D03*
%TD*%
%TO.C,D29*%
X245418750Y-211843251D03*
X245418750Y-208543251D03*
%TD*%
%TO.C,D61*%
X407343750Y-230893251D03*
X407343750Y-227593251D03*
%TD*%
%TO.C,D41*%
X307331250Y-259468251D03*
X307331250Y-256168251D03*
%TD*%
%TO.C,D43*%
X331143750Y-230893251D03*
X331143750Y-227593251D03*
%TD*%
D16*
%TO.C,R3*%
X285415625Y-289752626D03*
X285415625Y-291577626D03*
%TD*%
D15*
%TO.C,D25*%
X254943750Y-230893251D03*
X254943750Y-227593251D03*
%TD*%
%TO.C,D56*%
X388293750Y-230893251D03*
X388293750Y-227593251D03*
%TD*%
%TO.C,D22*%
X218431250Y-268993251D03*
X218431250Y-265693251D03*
%TD*%
D14*
%TO.C,C3*%
X279643750Y-284687001D03*
X277568750Y-284687001D03*
%TD*%
D15*
%TO.C,D55*%
X359718750Y-211843251D03*
X359718750Y-208543251D03*
%TD*%
%TO.C,D74*%
X464343750Y-292956250D03*
X464343750Y-289656250D03*
%TD*%
D17*
%TO.C,C5*%
X295300000Y-291155751D03*
X297375000Y-291155751D03*
%TD*%
D15*
%TO.C,D18*%
X177006250Y-240418251D03*
X177006250Y-237118251D03*
%TD*%
%TO.C,D67*%
X412106250Y-249943251D03*
X412106250Y-246643251D03*
%TD*%
%TO.C,D72*%
X431156250Y-249943251D03*
X431156250Y-246643251D03*
%TD*%
D18*
%TO.C,D84*%
X488093750Y-278138251D03*
X491393750Y-278138251D03*
%TD*%
D15*
%TO.C,D78*%
X483393750Y-273755751D03*
X483393750Y-270455751D03*
%TD*%
%TO.C,D76*%
X469256250Y-230893251D03*
X469256250Y-227593251D03*
%TD*%
%TO.C,D62*%
X393056250Y-249943251D03*
X393056250Y-246643251D03*
%TD*%
%TO.C,D39*%
X296218750Y-230893251D03*
X296218750Y-227593251D03*
%TD*%
%TO.C,D24*%
X226368750Y-211843251D03*
X226368750Y-208543251D03*
%TD*%
%TO.C,D80*%
X464493750Y-211843251D03*
X464493750Y-208543251D03*
%TD*%
%TO.C,D69*%
X435918750Y-288043251D03*
X435918750Y-284743251D03*
%TD*%
%TO.C,D17*%
X212081250Y-230893251D03*
X212081250Y-227593251D03*
%TD*%
%TO.C,D75*%
X435918750Y-211843251D03*
X435918750Y-208543251D03*
%TD*%
D19*
%TO.C,R2*%
X316593750Y-294330751D03*
X314768750Y-294330751D03*
%TD*%
D15*
%TO.C,D71*%
X445443750Y-230893251D03*
X445443750Y-227593251D03*
%TD*%
%TO.C,D36*%
X278756250Y-249943251D03*
X278756250Y-246643251D03*
%TD*%
%TO.C,D54*%
X364481250Y-268993251D03*
X364481250Y-265693251D03*
%TD*%
%TO.C,D70*%
X416868750Y-211843251D03*
X416868750Y-208543251D03*
%TD*%
%TO.C,D65*%
X397818750Y-211843251D03*
X397818750Y-208543251D03*
%TD*%
%TO.C,D52*%
X369243750Y-230893251D03*
X369243750Y-227593251D03*
%TD*%
%TO.C,D30*%
X273993750Y-230893251D03*
X273993750Y-227593251D03*
%TD*%
%TO.C,D37*%
X288281250Y-259468251D03*
X288281250Y-256168251D03*
%TD*%
%TO.C,D8*%
X140493750Y-249943251D03*
X140493750Y-246643251D03*
%TD*%
D20*
%TO.C,R4*%
X299393750Y-271430751D03*
X299393750Y-269605751D03*
%TD*%
D15*
%TO.C,D79*%
X483393750Y-292956250D03*
X483393750Y-289656250D03*
%TD*%
%TO.C,D12*%
X159543750Y-230893251D03*
X159543750Y-227593251D03*
%TD*%
%TO.C,D58*%
X383531250Y-268993251D03*
X383531250Y-265693251D03*
%TD*%
%TO.C,D82*%
X491331250Y-250093750D03*
X491331250Y-246793750D03*
%TD*%
%TO.C,D47*%
X350193750Y-230893251D03*
X350193750Y-227593251D03*
%TD*%
%TO.C,D50*%
X331302500Y-273313251D03*
X331302500Y-276613251D03*
%TD*%
%TO.C,D49*%
X345431250Y-268993251D03*
X345431250Y-265693251D03*
%TD*%
%TO.C,D42*%
X302568750Y-211843251D03*
X302568750Y-208543251D03*
%TD*%
%TO.C,D83*%
X491331250Y-269143750D03*
X491331250Y-265843750D03*
%TD*%
%TO.C,D73*%
X450056250Y-268993251D03*
X450056250Y-265693251D03*
%TD*%
%TO.C,D57*%
X374006250Y-249943251D03*
X374006250Y-246643251D03*
%TD*%
%TO.C,D33*%
X257325000Y-288043251D03*
X257325000Y-284743251D03*
%TD*%
D21*
%TO.C,U1*%
X299400000Y-284805751D03*
X298600000Y-284805751D03*
X297800000Y-284805751D03*
X297000000Y-284805751D03*
X296200000Y-284805751D03*
X295400000Y-284805751D03*
X294600000Y-284805751D03*
X293800000Y-284805751D03*
X293000000Y-284805751D03*
X292200000Y-284805751D03*
X291400000Y-284805751D03*
D22*
X289700000Y-283105751D03*
X289700000Y-282305751D03*
X289700000Y-281505751D03*
X289700000Y-280705751D03*
X289700000Y-279905751D03*
X289700000Y-279105751D03*
X289700000Y-278305751D03*
X289700000Y-277505751D03*
X289700000Y-276705751D03*
X289700000Y-275905751D03*
X289700000Y-275105751D03*
D21*
X291400000Y-273405751D03*
X292200000Y-273405751D03*
X293000000Y-273405751D03*
X293800000Y-273405751D03*
X294600000Y-273405751D03*
X295400000Y-273405751D03*
X296200000Y-273405751D03*
X297000000Y-273405751D03*
X297800000Y-273405751D03*
X298600000Y-273405751D03*
X299400000Y-273405751D03*
D22*
X301100000Y-275105751D03*
X301100000Y-275905751D03*
X301100000Y-276705751D03*
X301100000Y-277505751D03*
X301100000Y-278305751D03*
X301100000Y-279105751D03*
X301100000Y-279905751D03*
X301100000Y-280705751D03*
X301100000Y-281505751D03*
X301100000Y-282305751D03*
X301100000Y-283105751D03*
%TD*%
D15*
%TO.C,D68*%
X421631250Y-268993251D03*
X421631250Y-265693251D03*
%TD*%
%TO.C,D15*%
X173981250Y-278518251D03*
X173981250Y-275218251D03*
%TD*%
%TO.C,D2*%
X121443750Y-230893251D03*
X121443750Y-227593251D03*
%TD*%
%TO.C,D51*%
X340668750Y-211843251D03*
X340668750Y-208543251D03*
%TD*%
D23*
%TO.C,J1*%
X334481250Y-288355751D03*
X334481250Y-293955751D03*
D24*
X330606250Y-289655751D03*
X330606250Y-290655751D03*
X330606250Y-291655751D03*
X330606250Y-292655751D03*
%TD*%
D15*
%TO.C,D64*%
X416868750Y-288043251D03*
X416868750Y-284743251D03*
%TD*%
%TO.C,D20*%
X235893750Y-230893251D03*
X235893750Y-227593251D03*
%TD*%
%TO.C,D31*%
X259706250Y-249943251D03*
X259706250Y-246643251D03*
%TD*%
%TO.C,D26*%
X240656250Y-249943251D03*
X240656250Y-246643251D03*
%TD*%
%TO.C,D3*%
X121443750Y-249943251D03*
X121443750Y-246643251D03*
%TD*%
D25*
%TO.C,Y1*%
X277756250Y-282124501D03*
X277756250Y-279924501D03*
X279456250Y-279924501D03*
X279456250Y-282124501D03*
%TD*%
D15*
%TO.C,D81*%
X491331250Y-230250000D03*
X491331250Y-226950000D03*
%TD*%
%TO.C,D38*%
X283518750Y-211843251D03*
X283518750Y-208543251D03*
%TD*%
D26*
%TO.C,C4*%
X287671875Y-289383876D03*
X287671875Y-291458876D03*
%TD*%
D15*
%TO.C,D11*%
X159543750Y-211993750D03*
X159543750Y-208693750D03*
%TD*%
%TO.C,D46*%
X305743750Y-211843251D03*
X305743750Y-208543251D03*
%TD*%
%TO.C,D10*%
X159543750Y-288193750D03*
X159543750Y-284893750D03*
%TD*%
%TO.C,D23*%
X209700000Y-288043251D03*
X209700000Y-284743251D03*
%TD*%
%TO.C,D9*%
X140493750Y-268993251D03*
X140493750Y-265693251D03*
%TD*%
%TO.C,D32*%
X269231250Y-268993251D03*
X269231250Y-265693251D03*
%TD*%
D19*
%TO.C,R1*%
X316975000Y-291949501D03*
X315150000Y-291949501D03*
%TD*%
D15*
%TO.C,D16*%
X178593750Y-211843251D03*
X178593750Y-208543251D03*
%TD*%
%TO.C,D66*%
X426393750Y-230893251D03*
X426393750Y-227593251D03*
%TD*%
%TO.C,D48*%
X335906250Y-249943251D03*
X335906250Y-246643251D03*
%TD*%
%TO.C,D60*%
X378768750Y-211843251D03*
X378768750Y-208543251D03*
%TD*%
%TO.C,D7*%
X140493750Y-230893251D03*
X140493750Y-227593251D03*
%TD*%
%TO.C,D35*%
X293043750Y-230893251D03*
X293043750Y-227593251D03*
%TD*%
%TO.C,D5*%
X130968750Y-288193750D03*
X130968750Y-284893750D03*
%TD*%
%TO.C,D59*%
X397818750Y-288043251D03*
X397818750Y-284743251D03*
%TD*%
%TO.C,D77*%
X462112500Y-249943251D03*
X462112500Y-246643251D03*
%TD*%
%TO.C,D14*%
X159543750Y-268993251D03*
X159543750Y-265693251D03*
%TD*%
%TO.C,D1*%
X121443750Y-211993750D03*
X121443750Y-208693750D03*
%TD*%
%TO.C,D34*%
X264468750Y-211843251D03*
X264468750Y-208543251D03*
%TD*%
D17*
%TO.C,C2*%
X277568750Y-277543251D03*
X279643750Y-277543251D03*
%TD*%
D15*
%TO.C,D27*%
X250181250Y-268993251D03*
X250181250Y-265693251D03*
%TD*%
%TO.C,D28*%
X233512500Y-288043251D03*
X233512500Y-284743251D03*
%TD*%
%TO.C,D44*%
X300981250Y-249943251D03*
X300981250Y-246643251D03*
%TD*%
%TO.C,D19*%
X207318750Y-211843251D03*
X207318750Y-208543251D03*
%TD*%
%TO.C,D53*%
X354956250Y-249943251D03*
X354956250Y-246643251D03*
%TD*%
%TO.C,D63*%
X402581250Y-268993251D03*
X402581250Y-265693251D03*
%TD*%
%TO.C,D6*%
X140493750Y-211993750D03*
X140493750Y-208693750D03*
%TD*%
D27*
%TO.C,C7*%
X306656250Y-283343251D03*
X306656250Y-281268251D03*
%TD*%
D26*
%TO.C,C6*%
X306656250Y-273330751D03*
X306656250Y-275405751D03*
%TD*%
D15*
%TO.C,D4*%
X121443750Y-269143750D03*
X121443750Y-265843750D03*
%TD*%
%TO.C,D21*%
X214462500Y-249943251D03*
X214462500Y-246643251D03*
%TD*%
%TO.C,D13*%
X159543750Y-249943251D03*
X159543750Y-246643251D03*
%TD*%
M02*
