M48
; DRILL file {KiCad (6.0.1)} date Sat Feb 12 16:29:36 2022
; FORMAT={-:-/ absolute / metric / decimal}
; #@! TF.CreationDate,2022-02-12T16:29:36-05:00
; #@! TF.GenerationSoftware,Kicad,Pcbnew,(6.0.1)
; #@! TF.FileFunction,Plated,1,2,PTH
FMAT,2
METRIC
; #@! TA.AperFunction,Plated,PTH,ViaDrill
T1C0.400
; #@! TA.AperFunction,Plated,PTH,ComponentDrill
T2C1.470
%
G90
G05
T1
X272.478Y-266.771
X272.512Y-265.3
X284.907Y-275.971
X285.795Y-276.432
X286.694Y-276.868
X287.372Y-283.897
X287.488Y-277.657
X287.488Y-287.981
X288.281Y-278.381
X289.075Y-289.568
X291.306Y-289.719
X292.1Y-288.925
X292.924Y-288.131
X293.044Y-272.106
X293.044Y-291.156
X293.8Y-287.337
X293.837Y-271.312
X294.631Y-269.725
X295.425Y-270.518
X296.219Y-271.312
X297.012Y-270.518
X297.012Y-294.331
X297.806Y-269.725
X300.831Y-287.337
X301.474Y-288.138
X302.398Y-288.848
X302.727Y-272.582
X303.212Y-289.719
X305.109Y-281.43
X306.656Y-270.4
X307.331Y-292.743
X308.238Y-275.757
X309.037Y-273.575
X309.037Y-283.1
X309.712Y-230.037
X309.837Y-280.837
X310.506Y-280.043
X311.3Y-279.25
X312.007Y-278.543
X312.738Y-277.812
X313.531Y-277.019
X313.687Y-227.656
X315.269Y-214.956
X319.174Y-212.511
X319.238Y-294.331
X320.825Y-215.75
X321.619Y-264.962
X321.619Y-266.55
X321.787Y-214.33
X375.534Y-274.157
X376.546Y-274.17
X376.919Y-272.589
X377.689Y-274.153
X377.917Y-272.532
X378.709Y-274.157
X379.059Y-272.589
X379.721Y-274.17
X380.207Y-272.466
X381.191Y-272.648
X488.493Y-274.706
X489.628Y-273.844
X490.537Y-273.05
X491.374Y-275.62
X492.125Y-273.844
X492.125Y-274.843
T2
X109.696Y-202.891
X109.696Y-221.941
X109.696Y-240.991
X109.696Y-260.041
X116.046Y-200.351
X116.046Y-219.401
X116.046Y-238.451
X116.046Y-257.501
X119.221Y-279.091
X125.571Y-276.551
X128.746Y-202.891
X128.746Y-222.091
X128.746Y-240.991
X128.746Y-260.041
X135.096Y-200.351
X135.096Y-219.551
X135.096Y-238.451
X135.096Y-257.501
X147.796Y-202.891
X147.796Y-221.941
X147.796Y-240.991
X147.796Y-260.041
X147.796Y-279.091
X154.146Y-200.351
X154.146Y-219.401
X154.146Y-238.451
X154.146Y-257.501
X154.146Y-276.551
X166.846Y-202.891
X166.846Y-231.466
X166.846Y-269.566
X173.196Y-200.351
X173.196Y-228.926
X173.196Y-267.026
X195.571Y-202.891
X197.952Y-279.091
X200.334Y-221.941
X201.921Y-200.351
X202.715Y-240.991
X204.302Y-276.551
X206.684Y-219.401
X207.477Y-260.041
X209.065Y-238.451
X213.827Y-257.501
X214.621Y-202.891
X220.971Y-200.351
X221.765Y-279.091
X224.146Y-221.941
X228.115Y-276.551
X228.909Y-240.991
X230.496Y-219.401
X233.671Y-202.891
X235.259Y-238.451
X238.434Y-260.041
X240.021Y-200.351
X243.196Y-221.941
X244.784Y-257.501
X245.577Y-279.091
X247.959Y-240.991
X249.546Y-219.401
X251.927Y-276.551
X252.721Y-202.891
X254.309Y-238.451
X257.484Y-260.041
X259.071Y-200.351
X262.246Y-221.941
X263.834Y-257.501
X267.009Y-240.991
X268.596Y-219.401
X271.771Y-202.891
X273.359Y-238.451
X276.534Y-260.041
X278.121Y-200.351
X281.296Y-221.941
X282.884Y-257.501
X286.059Y-240.991
X287.646Y-219.401
X290.821Y-202.891
X292.409Y-238.451
X295.584Y-260.041
X297.171Y-200.351
X300.346Y-221.941
X301.934Y-257.501
X305.109Y-240.991
X306.696Y-219.401
X309.871Y-202.891
X311.459Y-238.451
X314.634Y-260.041
X316.221Y-200.351
X316.856Y-279.25
X319.396Y-221.941
X320.984Y-257.501
X323.206Y-276.71
X324.159Y-240.991
X325.746Y-219.401
X328.921Y-202.891
X330.509Y-238.451
X333.684Y-260.041
X335.271Y-200.351
X338.446Y-221.941
X340.034Y-257.501
X343.209Y-240.991
X344.796Y-219.401
X347.971Y-202.891
X349.559Y-238.451
X352.734Y-260.041
X354.321Y-200.351
X357.496Y-221.941
X359.084Y-257.501
X362.259Y-240.991
X363.846Y-219.401
X367.021Y-202.891
X368.609Y-238.451
X371.784Y-260.041
X373.371Y-200.351
X376.546Y-221.941
X378.134Y-257.501
X381.309Y-240.991
X382.896Y-219.401
X386.071Y-202.891
X386.071Y-279.091
X387.659Y-238.451
X390.834Y-260.041
X392.421Y-200.351
X392.421Y-276.551
X395.596Y-221.941
X397.184Y-257.501
X400.359Y-240.991
X401.946Y-219.401
X405.121Y-202.891
X405.121Y-279.091
X406.709Y-238.451
X409.884Y-260.041
X411.471Y-200.351
X411.471Y-276.551
X414.646Y-221.941
X416.234Y-257.501
X419.409Y-240.991
X420.996Y-219.401
X424.171Y-202.891
X424.171Y-279.091
X425.759Y-238.451
X430.521Y-200.351
X430.521Y-276.551
X433.696Y-221.941
X438.309Y-260.191
X440.046Y-219.401
X444.659Y-257.651
X450.365Y-240.991
X452.596Y-284.004
X452.746Y-202.891
X456.715Y-238.451
X457.509Y-221.941
X458.946Y-281.464
X459.096Y-200.351
X463.859Y-219.401
X471.646Y-264.954
X471.646Y-283.853
X477.996Y-262.414
X477.996Y-281.313
X490.696Y-284.004
X495.459Y-222.091
X495.459Y-241.141
X495.459Y-260.191
X497.046Y-281.464
X501.809Y-219.551
X501.809Y-238.601
X501.809Y-257.651
T0
M30
