%TF.GenerationSoftware,KiCad,Pcbnew,(6.0.1)*%
%TF.CreationDate,2022-02-12T16:29:40-05:00*%
%TF.ProjectId,PCB,5043422e-6b69-4636-9164-5f7063625858,rev?*%
%TF.SameCoordinates,Original*%
%TF.FileFunction,Copper,L1,Top*%
%TF.FilePolarity,Positive*%
%FSLAX46Y46*%
G04 Gerber Fmt 4.6, Leading zero omitted, Abs format (unit mm)*
G04 Created by KiCad (PCBNEW (6.0.1)) date 2022-02-12 16:29:40*
%MOMM*%
%LPD*%
G01*
G04 APERTURE LIST*
%TA.AperFunction,ComponentPad*%
%ADD10C,2.250000*%
%TD*%
%TA.AperFunction,ViaPad*%
%ADD11C,0.800000*%
%TD*%
%TA.AperFunction,Conductor*%
%ADD12C,0.400000*%
%TD*%
%TA.AperFunction,Conductor*%
%ADD13C,0.250000*%
%TD*%
G04 APERTURE END LIST*
D10*
%TO.P,K65,1*%
%TO.N,Net-(D54-Pad2)*%
X352733750Y-260040751D03*
%TO.P,K65,2*%
%TO.N,col11*%
X359083750Y-257500751D03*
%TD*%
%TO.P,K11,1*%
%TO.N,Net-(D46-Pad2)*%
X309871250Y-202890751D03*
%TO.P,K11,2*%
%TO.N,col10*%
X316221250Y-200350751D03*
%TD*%
%TO.P,K66,1*%
%TO.N,Net-(D58-Pad2)*%
X371783750Y-260040751D03*
%TO.P,K66,2*%
%TO.N,col12*%
X378133750Y-257500751D03*
%TD*%
%TO.P,K22,1*%
%TO.N,Net-(D17-Pad2)*%
X200333750Y-221940751D03*
%TO.P,K22,2*%
%TO.N,col3*%
X206683750Y-219400751D03*
%TD*%
%TO.P,K37,1*%
%TO.N,Net-(D3-Pad2)*%
X109696250Y-240990751D03*
%TO.P,K37,2*%
%TO.N,col0*%
X116046250Y-238450751D03*
%TD*%
%TO.P,K83,1*%
%TO.N,Net-(D79-Pad2)*%
X471646250Y-283853251D03*
%TO.P,K83,2*%
%TO.N,col16*%
X477996250Y-281313251D03*
%TD*%
%TO.P,K3,1*%
%TO.N,Net-(D11-Pad2)*%
X147796250Y-202890751D03*
%TO.P,K3,2*%
%TO.N,col2*%
X154146250Y-200350751D03*
%TD*%
%TO.P,K43,1*%
%TO.N,Net-(D31-Pad2)*%
X247958750Y-240990751D03*
%TO.P,K43,2*%
%TO.N,col6*%
X254308750Y-238450751D03*
%TD*%
%TO.P,K13,1*%
%TO.N,Net-(D55-Pad2)*%
X347971250Y-202890751D03*
%TO.P,K13,2*%
%TO.N,col12*%
X354321250Y-200350751D03*
%TD*%
%TO.P,K46,1*%
%TO.N,Net-(D44-Pad2)*%
X305108750Y-240990751D03*
%TO.P,K46,2*%
%TO.N,col9*%
X311458750Y-238450751D03*
%TD*%
%TO.P,K76,1*%
%TO.N,Net-(D28-Pad2)*%
X221765000Y-279090751D03*
%TO.P,K76,2*%
%TO.N,col5*%
X228115000Y-276550751D03*
%TD*%
%TO.P,K12,1*%
%TO.N,Net-(D51-Pad2)*%
X328921250Y-202890751D03*
%TO.P,K12,2*%
%TO.N,col11*%
X335271250Y-200350751D03*
%TD*%
%TO.P,K30,1*%
%TO.N,Net-(D52-Pad2)*%
X357496250Y-221940751D03*
%TO.P,K30,2*%
%TO.N,col11*%
X363846250Y-219400751D03*
%TD*%
%TO.P,K15,1*%
%TO.N,Net-(D65-Pad2)*%
X386071250Y-202890751D03*
%TO.P,K15,2*%
%TO.N,col14*%
X392421250Y-200350751D03*
%TD*%
%TO.P,K35,1*%
%TO.N,Net-(D76-Pad2)*%
X457508750Y-221940751D03*
%TO.P,K35,2*%
%TO.N,col16*%
X463858750Y-219400751D03*
%TD*%
%TO.P,K48,1*%
%TO.N,Net-(D53-Pad2)*%
X343208750Y-240990751D03*
%TO.P,K48,2*%
%TO.N,col11*%
X349558750Y-238450751D03*
%TD*%
%TO.P,K67,1*%
%TO.N,Net-(D63-Pad2)*%
X390833750Y-260040751D03*
%TO.P,K67,2*%
%TO.N,col13*%
X397183750Y-257500751D03*
%TD*%
%TO.P,K69,1*%
%TO.N,Net-(D73-Pad2)*%
X438308750Y-260191250D03*
%TO.P,K69,2*%
%TO.N,col15*%
X444658750Y-257651250D03*
%TD*%
%TO.P,K2,1*%
%TO.N,Net-(D6-Pad2)*%
X128746250Y-202890751D03*
%TO.P,K2,2*%
%TO.N,col1*%
X135096250Y-200350751D03*
%TD*%
%TO.P,K63,1*%
%TO.N,Net-(D45-Pad2)*%
X314633750Y-260040751D03*
%TO.P,K63,2*%
%TO.N,col9*%
X320983750Y-257500751D03*
%TD*%
%TO.P,K17,1*%
%TO.N,Net-(D75-Pad2)*%
X424171250Y-202890751D03*
%TO.P,K17,2*%
%TO.N,col16*%
X430521250Y-200350751D03*
%TD*%
%TO.P,K36,1*%
%TO.N,Net-(D81-Pad2)*%
X495458750Y-222091250D03*
%TO.P,K36,2*%
%TO.N,col17*%
X501808750Y-219551250D03*
%TD*%
%TO.P,K49,1*%
%TO.N,Net-(D57-Pad2)*%
X362258750Y-240990751D03*
%TO.P,K49,2*%
%TO.N,col12*%
X368608750Y-238450751D03*
%TD*%
%TO.P,K40,1*%
%TO.N,Net-(D18-Pad2)*%
X166846250Y-231465751D03*
%TO.P,K40,2*%
%TO.N,col3*%
X173196250Y-228925751D03*
%TD*%
%TO.P,K73,1*%
%TO.N,Net-(D10-Pad2)*%
X147796250Y-279090751D03*
%TO.P,K73,2*%
%TO.N,col1*%
X154146250Y-276550751D03*
%TD*%
%TO.P,K51,1*%
%TO.N,Net-(D67-Pad2)*%
X400358750Y-240990751D03*
%TO.P,K51,2*%
%TO.N,col14*%
X406708750Y-238450751D03*
%TD*%
%TO.P,K44,1*%
%TO.N,Net-(D36-Pad2)*%
X267008750Y-240990751D03*
%TO.P,K44,2*%
%TO.N,col7*%
X273358750Y-238450751D03*
%TD*%
%TO.P,K47,1*%
%TO.N,Net-(D48-Pad2)*%
X324158750Y-240990751D03*
%TO.P,K47,2*%
%TO.N,col10*%
X330508750Y-238450751D03*
%TD*%
%TO.P,K29,1*%
%TO.N,Net-(D47-Pad2)*%
X338446250Y-221940751D03*
%TO.P,K29,2*%
%TO.N,col10*%
X344796250Y-219400751D03*
%TD*%
%TO.P,K59,1*%
%TO.N,Net-(D27-Pad2)*%
X238433750Y-260040751D03*
%TO.P,K59,2*%
%TO.N,col5*%
X244783750Y-257500751D03*
%TD*%
%TO.P,K57,1*%
%TO.N,Net-(D14-Pad2)*%
X147796250Y-260040751D03*
%TO.P,K57,2*%
%TO.N,col2*%
X154146250Y-257500751D03*
%TD*%
%TO.P,K55,1*%
%TO.N,Net-(D4-Pad2)*%
X109696250Y-260040751D03*
%TO.P,K55,2*%
%TO.N,col0*%
X116046250Y-257500751D03*
%TD*%
%TO.P,K31,1*%
%TO.N,Net-(D56-Pad2)*%
X376546250Y-221940751D03*
%TO.P,K31,2*%
%TO.N,col12*%
X382896250Y-219400751D03*
%TD*%
%TO.P,K82,1*%
%TO.N,Net-(D74-Pad2)*%
X452596250Y-284003750D03*
%TO.P,K82,2*%
%TO.N,col15*%
X458946250Y-281463750D03*
%TD*%
%TO.P,K81,1*%
%TO.N,Net-(D69-Pad2)*%
X424171250Y-279090751D03*
%TO.P,K81,2*%
%TO.N,col14*%
X430521250Y-276550751D03*
%TD*%
%TO.P,K20,1*%
%TO.N,Net-(D7-Pad2)*%
X128746250Y-222091250D03*
%TO.P,K20,2*%
%TO.N,col1*%
X135096250Y-219551250D03*
%TD*%
%TO.P,K6,1*%
%TO.N,Net-(D24-Pad2)*%
X214621250Y-202890751D03*
%TO.P,K6,2*%
%TO.N,col5*%
X220971250Y-200350751D03*
%TD*%
%TO.P,K32,1*%
%TO.N,Net-(D61-Pad2)*%
X395596250Y-221940751D03*
%TO.P,K32,2*%
%TO.N,col13*%
X401946250Y-219400751D03*
%TD*%
%TO.P,K54,1*%
%TO.N,Net-(D82-Pad2)*%
X495458750Y-241141250D03*
%TO.P,K54,2*%
%TO.N,col17*%
X501808750Y-238601250D03*
%TD*%
%TO.P,K26,1*%
%TO.N,Net-(D35-Pad2)*%
X281296250Y-221940751D03*
%TO.P,K26,2*%
%TO.N,col7*%
X287646250Y-219400751D03*
%TD*%
%TO.P,K80,1*%
%TO.N,Net-(D64-Pad2)*%
X405121250Y-279090751D03*
%TO.P,K80,2*%
%TO.N,col13*%
X411471250Y-276550751D03*
%TD*%
%TO.P,K16,1*%
%TO.N,Net-(D70-Pad2)*%
X405121250Y-202890751D03*
%TO.P,K16,2*%
%TO.N,col15*%
X411471250Y-200350751D03*
%TD*%
%TO.P,K41,1*%
%TO.N,Net-(D21-Pad2)*%
X202715000Y-240990751D03*
%TO.P,K41,2*%
%TO.N,col4*%
X209065000Y-238450751D03*
%TD*%
%TO.P,K4,1*%
%TO.N,Net-(D16-Pad2)*%
X166846250Y-202890751D03*
%TO.P,K4,2*%
%TO.N,col3*%
X173196250Y-200350751D03*
%TD*%
%TO.P,K52,1*%
%TO.N,Net-(D72-Pad2)*%
X419408750Y-240990751D03*
%TO.P,K52,2*%
%TO.N,col15*%
X425758750Y-238450751D03*
%TD*%
%TO.P,K77,1*%
%TO.N,Net-(D33-Pad2)*%
X245577500Y-279090751D03*
%TO.P,K77,2*%
%TO.N,col6*%
X251927500Y-276550751D03*
%TD*%
%TO.P,K75,1*%
%TO.N,Net-(D23-Pad2)*%
X197952500Y-279090751D03*
%TO.P,K75,2*%
%TO.N,col4*%
X204302500Y-276550751D03*
%TD*%
%TO.P,K28,1*%
%TO.N,Net-(D43-Pad2)*%
X319396250Y-221940751D03*
%TO.P,K28,2*%
%TO.N,col9*%
X325746250Y-219400751D03*
%TD*%
%TO.P,K50,1*%
%TO.N,Net-(D62-Pad2)*%
X381308750Y-240990751D03*
%TO.P,K50,2*%
%TO.N,col13*%
X387658750Y-238450751D03*
%TD*%
%TO.P,K5,1*%
%TO.N,Net-(D19-Pad2)*%
X195571250Y-202890751D03*
%TO.P,K5,2*%
%TO.N,col4*%
X201921250Y-200350751D03*
%TD*%
%TO.P,K33,1*%
%TO.N,Net-(D66-Pad2)*%
X414646250Y-221940751D03*
%TO.P,K33,2*%
%TO.N,col14*%
X420996250Y-219400751D03*
%TD*%
%TO.P,K62,1*%
%TO.N,Net-(D41-Pad2)*%
X295583750Y-260040751D03*
%TO.P,K62,2*%
%TO.N,col8*%
X301933750Y-257500751D03*
%TD*%
%TO.P,K74,1*%
%TO.N,Net-(D15-Pad2)*%
X166846250Y-269565751D03*
%TO.P,K74,2*%
%TO.N,col2*%
X173196250Y-267025751D03*
%TD*%
%TO.P,K84,1*%
%TO.N,Net-(D84-Pad2)*%
X490696250Y-284003750D03*
%TO.P,K84,2*%
%TO.N,col17*%
X497046250Y-281463750D03*
%TD*%
%TO.P,K34,1*%
%TO.N,Net-(D71-Pad2)*%
X433696250Y-221940751D03*
%TO.P,K34,2*%
%TO.N,col15*%
X440046250Y-219400751D03*
%TD*%
%TO.P,K61,1*%
%TO.N,Net-(D37-Pad2)*%
X276533750Y-260040751D03*
%TO.P,K61,2*%
%TO.N,col7*%
X282883750Y-257500751D03*
%TD*%
%TO.P,K14,1*%
%TO.N,Net-(D60-Pad2)*%
X367021250Y-202890751D03*
%TO.P,K14,2*%
%TO.N,col13*%
X373371250Y-200350751D03*
%TD*%
%TO.P,K10,1*%
%TO.N,Net-(D42-Pad2)*%
X290821250Y-202890751D03*
%TO.P,K10,2*%
%TO.N,col9*%
X297171250Y-200350751D03*
%TD*%
%TO.P,K1,1*%
%TO.N,Net-(D1-Pad2)*%
X109696250Y-202890751D03*
%TO.P,K1,2*%
%TO.N,col0*%
X116046250Y-200350751D03*
%TD*%
%TO.P,K79,1*%
%TO.N,Net-(D59-Pad2)*%
X386071250Y-279090751D03*
%TO.P,K79,2*%
%TO.N,col12*%
X392421250Y-276550751D03*
%TD*%
%TO.P,K23,1*%
%TO.N,Net-(D20-Pad2)*%
X224146250Y-221940751D03*
%TO.P,K23,2*%
%TO.N,col4*%
X230496250Y-219400751D03*
%TD*%
%TO.P,K8,1*%
%TO.N,Net-(D34-Pad2)*%
X252721250Y-202890751D03*
%TO.P,K8,2*%
%TO.N,col7*%
X259071250Y-200350751D03*
%TD*%
%TO.P,K71,1*%
%TO.N,Net-(D83-Pad2)*%
X495458750Y-260191250D03*
%TO.P,K71,2*%
%TO.N,col17*%
X501808750Y-257651250D03*
%TD*%
%TO.P,K70,1*%
%TO.N,Net-(D78-Pad2)*%
X471646250Y-264953750D03*
%TO.P,K70,2*%
%TO.N,col16*%
X477996250Y-262413750D03*
%TD*%
%TO.P,K18,1*%
%TO.N,Net-(D80-Pad2)*%
X452746250Y-202890751D03*
%TO.P,K18,2*%
%TO.N,col17*%
X459096250Y-200350751D03*
%TD*%
%TO.P,K78,1*%
%TO.N,Net-(D50-Pad2)*%
X316856250Y-279249501D03*
%TO.P,K78,2*%
%TO.N,col10*%
X323206250Y-276709501D03*
%TD*%
%TO.P,K25,1*%
%TO.N,Net-(D30-Pad2)*%
X262246250Y-221940751D03*
%TO.P,K25,2*%
%TO.N,col6*%
X268596250Y-219400751D03*
%TD*%
%TO.P,K53,1*%
%TO.N,Net-(D77-Pad2)*%
X450365000Y-240990751D03*
%TO.P,K53,2*%
%TO.N,col16*%
X456715000Y-238450751D03*
%TD*%
%TO.P,K72,1*%
%TO.N,Net-(D5-Pad2)*%
X119221250Y-279090751D03*
%TO.P,K72,2*%
%TO.N,col0*%
X125571250Y-276550751D03*
%TD*%
%TO.P,K7,1*%
%TO.N,Net-(D29-Pad2)*%
X233671250Y-202890751D03*
%TO.P,K7,2*%
%TO.N,col6*%
X240021250Y-200350751D03*
%TD*%
%TO.P,K24,1*%
%TO.N,Net-(D25-Pad2)*%
X243196250Y-221940751D03*
%TO.P,K24,2*%
%TO.N,col5*%
X249546250Y-219400751D03*
%TD*%
%TO.P,K21,1*%
%TO.N,Net-(D12-Pad2)*%
X147796250Y-221940751D03*
%TO.P,K21,2*%
%TO.N,col2*%
X154146250Y-219400751D03*
%TD*%
%TO.P,K38,1*%
%TO.N,Net-(D8-Pad2)*%
X128746250Y-240990751D03*
%TO.P,K38,2*%
%TO.N,col1*%
X135096250Y-238450751D03*
%TD*%
%TO.P,K58,1*%
%TO.N,Net-(D22-Pad2)*%
X207477500Y-260040751D03*
%TO.P,K58,2*%
%TO.N,col4*%
X213827500Y-257500751D03*
%TD*%
%TO.P,K68,1*%
%TO.N,Net-(D68-Pad2)*%
X409883750Y-260040751D03*
%TO.P,K68,2*%
%TO.N,col14*%
X416233750Y-257500751D03*
%TD*%
%TO.P,K42,1*%
%TO.N,Net-(D26-Pad2)*%
X228908750Y-240990751D03*
%TO.P,K42,2*%
%TO.N,col5*%
X235258750Y-238450751D03*
%TD*%
%TO.P,K45,1*%
%TO.N,Net-(D40-Pad2)*%
X286058750Y-240990751D03*
%TO.P,K45,2*%
%TO.N,col8*%
X292408750Y-238450751D03*
%TD*%
%TO.P,K9,1*%
%TO.N,Net-(D38-Pad2)*%
X271771250Y-202890751D03*
%TO.P,K9,2*%
%TO.N,col8*%
X278121250Y-200350751D03*
%TD*%
%TO.P,K39,1*%
%TO.N,Net-(D13-Pad2)*%
X147796250Y-240990751D03*
%TO.P,K39,2*%
%TO.N,col2*%
X154146250Y-238450751D03*
%TD*%
%TO.P,K56,1*%
%TO.N,Net-(D9-Pad2)*%
X128746250Y-260040751D03*
%TO.P,K56,2*%
%TO.N,col1*%
X135096250Y-257500751D03*
%TD*%
%TO.P,K27,1*%
%TO.N,Net-(D39-Pad2)*%
X300346250Y-221940751D03*
%TO.P,K27,2*%
%TO.N,col8*%
X306696250Y-219400751D03*
%TD*%
%TO.P,K60,1*%
%TO.N,Net-(D32-Pad2)*%
X257483750Y-260040751D03*
%TO.P,K60,2*%
%TO.N,col6*%
X263833750Y-257500751D03*
%TD*%
%TO.P,K19,1*%
%TO.N,Net-(D2-Pad2)*%
X109696250Y-221940751D03*
%TO.P,K19,2*%
%TO.N,col0*%
X116046250Y-219400751D03*
%TD*%
%TO.P,K64,1*%
%TO.N,Net-(D49-Pad2)*%
X333683750Y-260040751D03*
%TO.P,K64,2*%
%TO.N,col10*%
X340033750Y-257500751D03*
%TD*%
D11*
%TO.N,+5V*%
X289075000Y-289568251D03*
X309037500Y-283099501D03*
X293043750Y-291155751D03*
X287487500Y-287980751D03*
X307331250Y-292743251D03*
X287372076Y-283896577D03*
X309037500Y-273574501D03*
X306656250Y-270399501D03*
%TO.N,row3*%
X380206901Y-272465881D03*
X292100000Y-288925000D03*
X378709199Y-274156953D03*
X302398457Y-288848171D03*
%TO.N,row4*%
X321618750Y-266549501D03*
X272477675Y-266771425D03*
X379721250Y-274169501D03*
X272511866Y-265300481D03*
X321618750Y-264962001D03*
X381191179Y-272648433D03*
X303212500Y-289718750D03*
X291306250Y-289718750D03*
%TO.N,GND*%
X319237500Y-294330751D03*
X297012500Y-294330751D03*
X308238000Y-275757001D03*
X305108750Y-281430251D03*
X302727500Y-272582001D03*
%TO.N,col0*%
X288281250Y-278381251D03*
%TO.N,col1*%
X287487500Y-277656751D03*
%TO.N,col2*%
X286693750Y-276868251D03*
%TO.N,col3*%
X285794682Y-276431579D03*
%TO.N,col4*%
X284907429Y-275971376D03*
%TO.N,col5*%
X293043750Y-272105751D03*
%TO.N,col6*%
X293837500Y-271312001D03*
%TO.N,col7*%
X294631250Y-269724501D03*
%TO.N,col8*%
X295425000Y-270518251D03*
%TO.N,col9*%
X296218750Y-271312001D03*
X315268750Y-214955751D03*
X313687000Y-227655751D03*
X309712500Y-230037001D03*
X320825000Y-215749501D03*
%TO.N,col10*%
X319174042Y-212511043D03*
X321787207Y-214330458D03*
X297012500Y-270518251D03*
%TO.N,col11*%
X297806250Y-269724501D03*
%TO.N,col12*%
X313531250Y-277018750D03*
%TO.N,col13*%
X312737500Y-277812500D03*
%TO.N,col14*%
X312007029Y-278543020D03*
%TO.N,col15*%
X311300000Y-279249501D03*
%TO.N,col16*%
X310506250Y-280043251D03*
%TO.N,row0*%
X488492759Y-274705860D03*
X376919160Y-272588751D03*
X375534199Y-274156953D03*
X491373727Y-275619621D03*
%TO.N,row1*%
X376546250Y-274169501D03*
X293800500Y-287337500D03*
X489628326Y-273843750D03*
X492125000Y-274843253D03*
X300831250Y-287337500D03*
X377917075Y-272532475D03*
%TO.N,row2*%
X377688569Y-274152984D03*
X292924500Y-288131250D03*
X492125000Y-273843750D03*
X379059432Y-272588751D03*
X490537500Y-273050000D03*
X301474443Y-288138352D03*
%TO.N,col17*%
X309837000Y-280837001D03*
%TD*%
D12*
%TO.N,+5V*%
X287372076Y-283896577D02*
X287487500Y-284012001D01*
X292250000Y-291949501D02*
X293043750Y-292743251D01*
X306656250Y-270399501D02*
X309037500Y-272780751D01*
X292250000Y-291949501D02*
X291456250Y-291155751D01*
X287487500Y-284012001D02*
X287487500Y-287980751D01*
X308918750Y-291155751D02*
X307331250Y-292743251D01*
X291456250Y-291155751D02*
X289868750Y-289568251D01*
X293043750Y-292743251D02*
X307331250Y-292743251D01*
X309037500Y-272780751D02*
X309037500Y-273574501D01*
X309037500Y-272780751D02*
X309037500Y-282305751D01*
X309037500Y-282305751D02*
X309037500Y-283099501D01*
X308918750Y-282424501D02*
X309037500Y-282305751D01*
X289868750Y-289568251D02*
X289075000Y-289568251D01*
X308918750Y-291155751D02*
X308918750Y-282424501D01*
X293043750Y-291155751D02*
X292250000Y-291949501D01*
D13*
%TO.N,row3*%
X301651647Y-289594981D02*
X292769981Y-289594981D01*
X292769981Y-289594981D02*
X292100000Y-288925000D01*
X380206901Y-272465881D02*
X380206901Y-272659251D01*
X302398457Y-288848171D02*
X301651647Y-289594981D01*
X380206901Y-272659251D02*
X378709199Y-274156953D01*
%TO.N,row4*%
X291306250Y-289718750D02*
X291632001Y-290044501D01*
X321618750Y-264962001D02*
X321618750Y-266549501D01*
X381191179Y-272648433D02*
X381191179Y-272699572D01*
X272511866Y-266737234D02*
X272477675Y-266771425D01*
X381191179Y-272699572D02*
X379721250Y-274169501D01*
X272511866Y-265300481D02*
X272511866Y-266737234D01*
X302886749Y-290044501D02*
X303212500Y-289718750D01*
X291632001Y-290044501D02*
X302886749Y-290044501D01*
D12*
%TO.N,GND*%
X303521250Y-273375751D02*
X305902500Y-275757001D01*
X302727500Y-272582001D02*
X303521250Y-273375751D01*
X305902500Y-275757001D02*
X308238000Y-275757001D01*
X303521250Y-273375751D02*
X303521250Y-279842751D01*
X303521250Y-279842751D02*
X305108750Y-281430251D01*
X319237500Y-294330751D02*
X297012500Y-294330751D01*
D13*
%TO.N,col0*%
X265611980Y-278106271D02*
X286543750Y-278106271D01*
X116046250Y-200350751D02*
X116046250Y-219400751D01*
X116046250Y-257500751D02*
X116046250Y-267025751D01*
X263675000Y-280043251D02*
X265611980Y-278106271D01*
X258912500Y-294330751D02*
X263675000Y-289568251D01*
X116046250Y-238450751D02*
X116046250Y-257500751D01*
X286818730Y-278381251D02*
X288281250Y-278381251D01*
X125571250Y-284797500D02*
X135104501Y-294330751D01*
X116046250Y-219400751D02*
X116046250Y-238450751D01*
X263675000Y-289568251D02*
X263675000Y-280043251D01*
X125571250Y-276550751D02*
X125571250Y-284797500D01*
X135104501Y-294330751D02*
X258912500Y-294330751D01*
X286543750Y-278106271D02*
X286818730Y-278381251D01*
X116046250Y-267025751D02*
X125571250Y-276550751D01*
%TO.N,col1*%
X135096250Y-219551250D02*
X135096250Y-238450751D01*
X263225480Y-279857054D02*
X264944641Y-278137892D01*
X263225480Y-280837001D02*
X263225480Y-279857054D01*
X135096250Y-200350751D02*
X135096250Y-219551250D01*
X258912500Y-293537001D02*
X262881250Y-289568251D01*
X262881250Y-289568251D02*
X263225480Y-289224021D01*
X258568270Y-293881231D02*
X258912500Y-293537001D01*
X170012500Y-293881231D02*
X258568270Y-293881231D01*
X160143769Y-293881231D02*
X170012500Y-293881231D01*
X263225480Y-289224021D02*
X263225480Y-280837001D01*
X265425782Y-277656751D02*
X287487500Y-277656751D01*
X135096250Y-257500751D02*
X154146250Y-276550751D01*
X154146250Y-287883712D02*
X160143769Y-293881231D01*
X135096250Y-238450751D02*
X135096250Y-257500751D01*
X154146250Y-276550751D02*
X154146250Y-287883712D01*
X264944641Y-278137892D02*
X265425782Y-277656751D01*
%TO.N,col2*%
X262775960Y-279670856D02*
X265023657Y-277423158D01*
X262563391Y-289250392D02*
X262775960Y-289037823D01*
X173196250Y-267025751D02*
X173196250Y-271621250D01*
X154146250Y-200350751D02*
X154146250Y-219400751D01*
X215256250Y-293431711D02*
X258382072Y-293431711D01*
X183100461Y-293431711D02*
X184687961Y-293431711D01*
X155900751Y-257500751D02*
X165425751Y-267025751D01*
X184300000Y-293431711D02*
X215256250Y-293431711D01*
X165425751Y-267025751D02*
X173196250Y-267025751D01*
X258382072Y-293431711D02*
X259388391Y-292425392D01*
X154146250Y-257500751D02*
X155900751Y-257500751D01*
X173196250Y-271621250D02*
X180975000Y-279400000D01*
X180975000Y-279400000D02*
X180975000Y-291306250D01*
X265023657Y-277423158D02*
X265239585Y-277207231D01*
X262775960Y-289037823D02*
X262775960Y-280043251D01*
X154146250Y-219400751D02*
X154146250Y-238450751D01*
X265239585Y-277207231D02*
X270818750Y-277207231D01*
X262775960Y-280043251D02*
X262775960Y-279670856D01*
X259388391Y-292425392D02*
X262563391Y-289250392D01*
X286354770Y-277207231D02*
X286693750Y-276868251D01*
X270818750Y-277207231D02*
X286354770Y-277207231D01*
X180975000Y-291306250D02*
X183100461Y-293431711D01*
X154146250Y-238450751D02*
X154146250Y-257500751D01*
%TO.N,col3*%
X173196250Y-200350751D02*
X173196250Y-204963251D01*
X173196250Y-238283750D02*
X173196250Y-228925751D01*
X187633750Y-219400751D02*
X206683750Y-219400751D01*
X265053388Y-276757711D02*
X265425783Y-276757712D01*
X203048204Y-228925751D02*
X173196250Y-228925751D01*
X206683750Y-219400751D02*
X206683750Y-225290205D01*
X285468549Y-276757712D02*
X285794682Y-276431579D01*
X258195874Y-292982191D02*
X262326440Y-288851625D01*
X206683750Y-225290205D02*
X203048204Y-228925751D01*
X262326440Y-279484659D02*
X265053388Y-276757711D01*
X189856500Y-254944000D02*
X173196250Y-238283750D01*
X189856500Y-289568500D02*
X193270190Y-292982191D01*
X265425783Y-276757712D02*
X285468549Y-276757712D01*
X193270190Y-292982191D02*
X258195874Y-292982191D01*
X189856500Y-289568500D02*
X189856500Y-254944000D01*
X262326440Y-288851625D02*
X262326440Y-279484659D01*
X173196250Y-204963251D02*
X187633750Y-219400751D01*
%TO.N,col4*%
X264867192Y-276308191D02*
X266056250Y-276308192D01*
X201921250Y-200350751D02*
X220971250Y-219400751D01*
X258355798Y-292186549D02*
X261530798Y-289011549D01*
X208695670Y-292532671D02*
X258009676Y-292532671D01*
X230496250Y-225290205D02*
X217335704Y-238450751D01*
X220971250Y-219400751D02*
X230496250Y-219400751D01*
X209065000Y-238450751D02*
X213827500Y-243213251D01*
X230496250Y-219400751D02*
X230496250Y-225290205D01*
X284570613Y-276308192D02*
X284907429Y-275971376D01*
X217335704Y-238450751D02*
X209065000Y-238450751D01*
X258009676Y-292532671D02*
X258355798Y-292186549D01*
X266056250Y-276308192D02*
X284570613Y-276308192D01*
X261876920Y-284805751D02*
X261876920Y-279298462D01*
X205731250Y-289568251D02*
X208695670Y-292532671D01*
X213827500Y-243213251D02*
X213827500Y-257500751D01*
X204302500Y-276550751D02*
X204302500Y-288139501D01*
X213827500Y-267025751D02*
X204302500Y-276550751D01*
X261876920Y-279298462D02*
X264867192Y-276308191D01*
X261530798Y-289011549D02*
X261876920Y-288665427D01*
X204302500Y-288139501D02*
X205731250Y-289568251D01*
X213827500Y-257500751D02*
X213827500Y-267025751D01*
X261876920Y-288665427D02*
X261876920Y-284805751D01*
%TO.N,col5*%
X228115000Y-276550751D02*
X228115000Y-288139501D01*
X292699520Y-271761521D02*
X293043750Y-272105751D01*
X228115000Y-288139501D02*
X232058650Y-292083151D01*
X244783750Y-247975751D02*
X244783750Y-257500751D01*
X245418750Y-214955751D02*
X245418750Y-215273251D01*
X236687500Y-272105751D02*
X230337500Y-272105751D01*
X245418750Y-215273251D02*
X249546250Y-219400751D01*
X249546250Y-219400751D02*
X249546250Y-225290205D01*
X244783750Y-264009501D02*
X236687500Y-272105751D01*
X261427400Y-279112266D02*
X264680995Y-275858671D01*
X264680995Y-275858671D02*
X266056250Y-275858672D01*
X287831730Y-271761521D02*
X292699520Y-271761521D01*
X283734579Y-275858672D02*
X287831730Y-271761521D01*
X257823478Y-292083151D02*
X261427400Y-288479229D01*
X232058650Y-292083151D02*
X257823478Y-292083151D01*
X235258750Y-238450751D02*
X244783750Y-247975751D01*
X244783750Y-257500751D02*
X244783750Y-264009501D01*
X266056250Y-275858672D02*
X283734579Y-275858672D01*
X238275000Y-214955751D02*
X245418750Y-214955751D01*
X261427400Y-288479229D02*
X261427400Y-279112266D01*
X249546250Y-225290205D02*
X236385704Y-238450751D01*
X220971250Y-200350751D02*
X223670000Y-200350751D01*
X227956250Y-274487001D02*
X228115000Y-274645751D01*
X236385704Y-238450751D02*
X235258750Y-238450751D01*
X228115000Y-274645751D02*
X228115000Y-276550751D01*
X223670000Y-200350751D02*
X238275000Y-214955751D01*
X230337500Y-272105751D02*
X227956250Y-274487001D01*
%TO.N,col6*%
X260977880Y-288293031D02*
X260977880Y-278926068D01*
X257637280Y-291633631D02*
X260977880Y-288293031D01*
X268596250Y-225754241D02*
X255899740Y-238450751D01*
X268596250Y-219400751D02*
X268596250Y-225754241D01*
X254627880Y-291633631D02*
X257637280Y-291633631D01*
X287645532Y-271312001D02*
X293837500Y-271312001D01*
X255737500Y-216543251D02*
X266056250Y-216543251D01*
X263833750Y-257500751D02*
X263833750Y-264644501D01*
X260977880Y-278926068D02*
X261767849Y-278136100D01*
X254308750Y-238450751D02*
X254308750Y-247975751D01*
X248276250Y-208605751D02*
X248276250Y-209082001D01*
X261767849Y-278136100D02*
X264494798Y-275409151D01*
X283548381Y-275409152D02*
X287645532Y-271312001D01*
X266056250Y-216860751D02*
X268596250Y-219400751D01*
X254308750Y-247975751D02*
X263833750Y-257500751D01*
X263833750Y-264644501D02*
X251927500Y-276550751D01*
X240021250Y-200350751D02*
X248276250Y-208605751D01*
X266056250Y-216543251D02*
X266056250Y-216860751D01*
X248276250Y-209082001D02*
X255737500Y-216543251D01*
X264494798Y-275409151D02*
X283548381Y-275409152D01*
X251927500Y-276550751D02*
X251927500Y-288933251D01*
X255899740Y-238450751D02*
X254308750Y-238450751D01*
X251927500Y-288933251D02*
X254627880Y-291633631D01*
%TO.N,col7*%
X287646250Y-219400751D02*
X287646250Y-225290205D01*
X294631250Y-269248251D02*
X294631250Y-269724501D01*
X282883750Y-252282842D02*
X282883750Y-257500751D01*
X273358750Y-238450751D02*
X273358750Y-242757842D01*
X278121250Y-219400751D02*
X287646250Y-219400751D01*
X273358750Y-242757842D02*
X282883750Y-252282842D01*
X287646250Y-225290205D02*
X274485704Y-238450751D01*
X259071250Y-200350751D02*
X278121250Y-219400751D01*
X282883750Y-257500751D02*
X294631250Y-269248251D01*
X274485704Y-238450751D02*
X273358750Y-238450751D01*
%TO.N,col8*%
X297133751Y-268100950D02*
X296870429Y-268364273D01*
X292408750Y-247975751D02*
X301933750Y-257500751D01*
X293535704Y-238450751D02*
X292408750Y-238450751D01*
X301933750Y-257500751D02*
X301933750Y-263689847D01*
X303362500Y-214162001D02*
X307331250Y-218130751D01*
X306696250Y-219400751D02*
X306696250Y-225290205D01*
X307331250Y-218765751D02*
X306696250Y-219400751D01*
X278121250Y-200350751D02*
X291932500Y-214162001D01*
X295425000Y-269809702D02*
X295425000Y-270518251D01*
X296870429Y-268364273D02*
X295425000Y-269809702D01*
X306696250Y-225290205D02*
X293535704Y-238450751D01*
X292408750Y-238450751D02*
X292408750Y-247975751D01*
X301933750Y-263689847D02*
X297522647Y-268100950D01*
X307331250Y-218130751D02*
X307331250Y-218765751D01*
X297522647Y-268100950D02*
X297133751Y-268100950D01*
X291932500Y-214162001D02*
X303362500Y-214162001D01*
%TO.N,col9*%
X311776250Y-214955751D02*
X315268750Y-214955751D01*
X320825000Y-215749501D02*
X322095000Y-215749501D01*
X309712500Y-236704501D02*
X311458750Y-238450751D01*
X309712500Y-230037001D02*
X309712500Y-236704501D01*
X320983750Y-264572387D02*
X320825000Y-264731137D01*
X320983750Y-257500751D02*
X320983750Y-264572387D01*
X313687000Y-225600082D02*
X313687000Y-227655751D01*
X319886331Y-219400751D02*
X313687000Y-225600082D01*
X297708845Y-268550470D02*
X297319949Y-268550470D01*
X297319949Y-268550470D02*
X296218750Y-269651669D01*
X296218750Y-269651669D02*
X296218750Y-271312001D01*
X320136540Y-267237961D02*
X299021354Y-267237961D01*
X311458750Y-247975751D02*
X320983750Y-257500751D01*
X320825000Y-264731137D02*
X320825000Y-266549501D01*
X322095000Y-215749501D02*
X325746250Y-219400751D01*
X299021354Y-267237961D02*
X297708845Y-268550470D01*
X320825000Y-266549501D02*
X320136540Y-267237961D01*
X311458750Y-238450751D02*
X311458750Y-247975751D01*
X297171250Y-200350751D02*
X311776250Y-214955751D01*
X325746250Y-219400751D02*
X319886331Y-219400751D01*
%TO.N,col10*%
X332255000Y-238450751D02*
X330508750Y-238450751D01*
X305929947Y-267687481D02*
X299207552Y-267687481D01*
X323206250Y-276709501D02*
X314951968Y-276709501D01*
X297012500Y-269493637D02*
X297012500Y-270518251D01*
X330508750Y-247975751D02*
X340033750Y-257500751D01*
X344796250Y-219400751D02*
X344796250Y-225909501D01*
X314951968Y-276709501D02*
X305929947Y-267687481D01*
X333663271Y-266252480D02*
X323206250Y-276709501D01*
X297506147Y-268999990D02*
X297012500Y-269493637D01*
X339725957Y-214330458D02*
X344796250Y-219400751D01*
X330508750Y-238450751D02*
X330508750Y-247975751D01*
X338442760Y-257500751D02*
X333663271Y-262280240D01*
X297895043Y-268999990D02*
X297506147Y-268999990D01*
X321787207Y-214330458D02*
X339725957Y-214330458D01*
X344796250Y-225909501D02*
X332255000Y-238450751D01*
X333663271Y-262280240D02*
X333663271Y-266252480D01*
X340033750Y-257500751D02*
X338442760Y-257500751D01*
X316221250Y-209558251D02*
X319174042Y-212511043D01*
X299207552Y-267687481D02*
X297895043Y-268999990D01*
X316221250Y-200350751D02*
X316221250Y-209558251D01*
%TO.N,col11*%
X314475000Y-277662250D02*
X314475000Y-276868251D01*
X349558750Y-238450751D02*
X349558750Y-247975751D01*
X358937829Y-229071672D02*
X349558750Y-238450751D01*
X299393750Y-268137001D02*
X297806250Y-269724501D01*
X350509620Y-283696131D02*
X329232817Y-283696131D01*
X335271250Y-200350751D02*
X350670000Y-215749501D01*
X305743750Y-268137001D02*
X299393750Y-268137001D01*
X314475000Y-276868251D02*
X305743750Y-268137001D01*
X315592188Y-288458631D02*
X314130770Y-286997213D01*
X314130770Y-278006480D02*
X314475000Y-277662250D01*
X358937829Y-222718182D02*
X358937829Y-229071672D01*
X329232817Y-283696131D02*
X324470317Y-288458631D01*
X350670000Y-215749501D02*
X360195000Y-215749501D01*
X363846250Y-219400751D02*
X362255260Y-219400751D01*
X359083750Y-257500751D02*
X359083750Y-275122001D01*
X359083750Y-275122001D02*
X350509620Y-283696131D01*
X314130770Y-286997213D02*
X314130770Y-278006480D01*
X362255260Y-219400751D02*
X358937829Y-222718182D01*
X349558750Y-247975751D02*
X359083750Y-257500751D01*
X360195000Y-215749501D02*
X363846250Y-219400751D01*
X324470317Y-288458631D02*
X315592188Y-288458631D01*
%TO.N,col12*%
X354321250Y-200350751D02*
X373371250Y-219400751D01*
X389881250Y-292743251D02*
X392421250Y-290203251D01*
X378133750Y-257500751D02*
X378133750Y-262263251D01*
X378133750Y-262263251D02*
X392421250Y-276550751D01*
X381305260Y-219400751D02*
X377181250Y-223524761D01*
X358928590Y-292743251D02*
X389881250Y-292743251D01*
X368608750Y-238450751D02*
X368608750Y-242757842D01*
X313681250Y-277168750D02*
X313681250Y-287183411D01*
X377181250Y-223524761D02*
X377181250Y-229878251D01*
X368608750Y-242757842D02*
X378133750Y-252282842D01*
X377181250Y-229878251D02*
X368608750Y-238450751D01*
X324656511Y-288908151D02*
X329419015Y-284145651D01*
X392421250Y-290203251D02*
X392421250Y-276550751D01*
X373371250Y-219400751D02*
X382896250Y-219400751D01*
X382896250Y-219400751D02*
X381305260Y-219400751D01*
X313681250Y-287183411D02*
X315405990Y-288908151D01*
X350330990Y-284145651D02*
X358928590Y-292743251D01*
X329419015Y-284145651D02*
X350330990Y-284145651D01*
X313531250Y-277018750D02*
X313681250Y-277168750D01*
X378133750Y-252282842D02*
X378133750Y-257500751D01*
X315405990Y-288908151D02*
X324656511Y-288908151D01*
%TO.N,col13*%
X388785704Y-238450751D02*
X387658750Y-238450751D01*
X373371250Y-200350751D02*
X392421250Y-219400751D01*
X397183750Y-262263251D02*
X411471250Y-276550751D01*
X350144792Y-284595171D02*
X358876042Y-293326421D01*
X401946250Y-219400751D02*
X401946250Y-225290205D01*
X397183750Y-247975751D02*
X397183750Y-257500751D01*
X387658750Y-238450751D02*
X397183750Y-247975751D01*
X312737500Y-277812500D02*
X313231730Y-278306730D01*
X409141830Y-293326421D02*
X411471250Y-290997001D01*
X324842712Y-289357671D02*
X329605212Y-284595171D01*
X329605212Y-284595171D02*
X350144792Y-284595171D01*
X315219792Y-289357671D02*
X324842712Y-289357671D01*
X392421250Y-219400751D02*
X401946250Y-219400751D01*
X313231730Y-287369609D02*
X315219792Y-289357671D01*
X397183750Y-257500751D02*
X397183750Y-262263251D01*
X411471250Y-290997001D02*
X411471250Y-276550751D01*
X401946250Y-225290205D02*
X388785704Y-238450751D01*
X358876042Y-293326421D02*
X409141830Y-293326421D01*
X313231730Y-278306730D02*
X313231730Y-287369609D01*
%TO.N,col14*%
X406708750Y-247975751D02*
X416233750Y-257500751D01*
X416233750Y-262263251D02*
X430521250Y-276550751D01*
X416233750Y-257500751D02*
X416233750Y-262263251D01*
X325028909Y-289807191D02*
X329791409Y-285044691D01*
X420996250Y-225290205D02*
X407835704Y-238450751D01*
X411471250Y-219400751D02*
X420996250Y-219400751D01*
X312007029Y-278931916D02*
X312782210Y-279707097D01*
X358689844Y-293775941D02*
X427742310Y-293775941D01*
X420996250Y-219400751D02*
X420996250Y-225290205D01*
X406708750Y-238450751D02*
X406708750Y-247975751D01*
X312782210Y-287555807D02*
X315033594Y-289807191D01*
X427742310Y-293775941D02*
X430521250Y-290997001D01*
X312007029Y-278543020D02*
X312007029Y-278931916D01*
X430521250Y-290997001D02*
X430521250Y-276550751D01*
X329791409Y-285044691D02*
X349958594Y-285044691D01*
X392421250Y-200350751D02*
X411471250Y-219400751D01*
X315033594Y-289807191D02*
X325028909Y-289807191D01*
X312782210Y-279707097D02*
X312782210Y-287555807D01*
X349958594Y-285044691D02*
X358689844Y-293775941D01*
X407835704Y-238450751D02*
X406708750Y-238450751D01*
%TO.N,col15*%
X430521250Y-219400751D02*
X440046250Y-219400751D01*
X329977606Y-285494211D02*
X349772396Y-285494211D01*
X411471250Y-200350751D02*
X430521250Y-219400751D01*
X444658750Y-267176250D02*
X458946250Y-281463750D01*
X325215106Y-290256711D02*
X329977606Y-285494211D01*
X426885704Y-238450751D02*
X425758750Y-238450751D01*
X456944211Y-294225461D02*
X458946250Y-292223422D01*
X311300000Y-279249501D02*
X312332690Y-280282191D01*
X425758750Y-238450751D02*
X428140000Y-238450751D01*
X428140000Y-241132500D02*
X444658750Y-257651250D01*
X428140000Y-238450751D02*
X428140000Y-241132500D01*
X312332690Y-287742005D02*
X314847396Y-290256711D01*
X349772396Y-285494211D02*
X358503646Y-294225461D01*
X312332690Y-280282191D02*
X312332690Y-287742005D01*
X440046250Y-219400751D02*
X440046250Y-225290205D01*
X444658750Y-257651250D02*
X444658750Y-267176250D01*
X458946250Y-292223422D02*
X458946250Y-281463750D01*
X358503646Y-294225461D02*
X456944211Y-294225461D01*
X440046250Y-225290205D02*
X426885704Y-238450751D01*
X314847396Y-290256711D02*
X325215106Y-290256711D01*
%TO.N,col16*%
X311883170Y-281420171D02*
X311883170Y-287928203D01*
X349586198Y-285943731D02*
X358317448Y-294674981D01*
X459096250Y-238450751D02*
X477996250Y-257350751D01*
X325401303Y-290706231D02*
X330163803Y-285943731D01*
X311883170Y-287928203D02*
X314661198Y-290706231D01*
X477996250Y-257350751D02*
X477996250Y-262413750D01*
X310506250Y-280043251D02*
X311883170Y-281420171D01*
X430521250Y-200350751D02*
X449571250Y-219400751D01*
X449571250Y-219400751D02*
X463858750Y-219400751D01*
X456715000Y-238450751D02*
X459096250Y-238450751D01*
X358317448Y-294674981D02*
X473268731Y-294674981D01*
X477996250Y-289947462D02*
X477996250Y-281313251D01*
X463858750Y-231307001D02*
X456715000Y-238450751D01*
X473268731Y-294674981D02*
X477996250Y-289947462D01*
X463858750Y-219400751D02*
X463858750Y-231307001D01*
X477996250Y-262413750D02*
X477996250Y-281313251D01*
X330163803Y-285943731D02*
X349586198Y-285943731D01*
X314661198Y-290706231D02*
X325401303Y-290706231D01*
%TO.N,row0*%
X376919160Y-272771992D02*
X375534199Y-274156953D01*
X489406520Y-275619621D02*
X491373727Y-275619621D01*
X488492759Y-274705860D02*
X489406520Y-275619621D01*
X376919160Y-272588751D02*
X376919160Y-272771992D01*
%TO.N,row1*%
X489628326Y-273843750D02*
X490627829Y-274843253D01*
X300749932Y-287418818D02*
X300831250Y-287337500D01*
X300424591Y-288695941D02*
X300749932Y-288370600D01*
X293800500Y-288371532D02*
X294124909Y-288695941D01*
X490627829Y-274843253D02*
X492125000Y-274843253D01*
X377917075Y-272532475D02*
X377917075Y-272798676D01*
X294124909Y-288695941D02*
X300424591Y-288695941D01*
X377917075Y-272798676D02*
X376546250Y-274169501D01*
X293800500Y-287337500D02*
X293800500Y-288371532D01*
X300749932Y-288370600D02*
X300749932Y-287418818D01*
%TO.N,row2*%
X491331250Y-273843750D02*
X490537500Y-273050000D01*
X292924500Y-288131250D02*
X292924500Y-288955750D01*
X379059432Y-272588751D02*
X379059432Y-272689296D01*
X292924500Y-288955750D02*
X293114211Y-289145461D01*
X379059432Y-272689296D02*
X377688569Y-274060159D01*
X293114211Y-289145461D02*
X300610789Y-289145461D01*
X492125000Y-273843750D02*
X491331250Y-273843750D01*
X300610789Y-289145461D02*
X301474443Y-288281807D01*
X301474443Y-288281807D02*
X301474443Y-288138352D01*
X377688569Y-274060159D02*
X377688569Y-274152984D01*
%TO.N,col17*%
X498157500Y-219551250D02*
X501808750Y-219551250D01*
X501808750Y-276701250D02*
X497046250Y-281463750D01*
X501808750Y-238601250D02*
X501808750Y-257651250D01*
X478957001Y-200350751D02*
X498157500Y-219551250D01*
X311433650Y-288114400D02*
X314475000Y-291155751D01*
X309837000Y-280837001D02*
X311433650Y-282433651D01*
X349400000Y-286393251D02*
X358131250Y-295124501D01*
X325587500Y-291155751D02*
X330350000Y-286393251D01*
X501808750Y-219551250D02*
X501808750Y-238601250D01*
X330350000Y-286393251D02*
X349400000Y-286393251D01*
X497046250Y-289259002D02*
X497046250Y-281463750D01*
X501808750Y-257651250D02*
X501808750Y-276701250D01*
X358131250Y-295124501D02*
X491180751Y-295124501D01*
X491180751Y-295124501D02*
X497046250Y-289259002D01*
X459096250Y-200350751D02*
X478957001Y-200350751D01*
X311433650Y-282433651D02*
X311433650Y-288114400D01*
X314475000Y-291155751D02*
X325587500Y-291155751D01*
%TD*%
M02*
